{
.appVersion = "998";
copyright = "Copyright 2017 Google Inc. All Rights Reserved.";
customParameters = (
{
name = glyphOrder;
value = (
.notdef,
NULL,
CR,
space,
uni00A0,
tildecomb,
uni0305,
uni0484,
uni0487,
uni2C00,
uni2C01,
uni2C02,
uni2C03,
uni2C04,
uni2C05,
uni2C06,
uni2C07,
uni2C08,
uni2C09,
uni2C0A,
uni2C0B,
uni2C0C,
uni2C0D,
uni2C0E,
uni2C0F,
uni2C10,
uni2C11,
uni2C12,
uni2C13,
uni2C14,
uni2C15,
uni2C16,
uni2C17,
uni2C18,
uni2C19,
uni2C1A,
uni2C1B,
uni2C1C,
uni2C1D,
uni2C1E,
uni2C1F,
uni2C20,
uni2C21,
uni2C22,
uni2C23,
uni2C24,
uni2C25,
uni2C26,
uni2C27,
uni2C28,
uni2C29,
uni2C2A,
uni2C2B,
uni2C2C,
uni2C2D,
uni2C2E,
uni2C30,
uni2C31,
uni2C32,
uni2C33,
uni2C34,
uni2C35,
uni2C36,
uni2C37,
uni2C38,
uni2C39,
uni2C3A,
uni2C3B,
uni2C3C,
uni2C3D,
uni2C3E,
uni2C3F,
uni2C40,
uni2C41,
uni2C42,
uni2C43,
uni2C44,
uni2C45,
uni2C46,
uni2C47,
uni2C48,
uni2C49,
uni2C4A,
uni2C4B,
uni2C4C,
uni2C4D,
uni2C4E,
uni2C4F,
uni2C50,
uni2C51,
uni2C52,
uni2C53,
uni2C54,
uni2C55,
uni2C56,
uni2C57,
uni2C58,
uni2C59,
uni2C5A,
uni2C5B,
uni2C5C,
uni2C5D,
uni2C5E,
uni2E43,
uniA66F,
u1E000,
u1E001,
u1E002,
u1E003,
u1E004,
u1E005,
u1E006,
u1E008,
u1E009,
u1E00A,
u1E00B,
u1E00C,
u1E00D,
u1E00E,
u1E00F,
u1E010,
u1E011,
u1E012,
u1E013,
u1E014,
u1E015,
u1E016,
u1E017,
u1E018,
u1E01B,
u1E01C,
u1E01D,
u1E01E,
u1E01F,
u1E020,
u1E021,
u1E023,
u1E024,
u1E026,
u1E027,
u1E028,
u1E029,
u1E02A
);
},
{
name = description;
value = "Designed by Monotype design team.";
},
{
name = license;
value = "This Font Software is licensed under the SIL Open Font License, Version 1.1. This Font Software is distributed on an \"AS IS\" BASIS, WITHOUT WARRANTIES OR CONDITIONS OF ANY KIND, either express or implied. See the SIL Open Font License for the specific language, permissions and limitations governing your use of this Font Software.";
},
{
name = licenseURL;
value = "http://scripts.sil.org/OFL";
},
{
name = vendorID;
value = GOOG;
},
{
name = unicodeRanges;
value = (
0,
1,
6,
9,
57,
97
);
},
{
name = trademark;

glyphs = (
{
glyphname = .notdef;
lastChange = "2017-04-18 13:24:41 +0000";
layers = (
{
layerId = UUID0;
paths = (
{
closed = 1;
nodes = (
"450 0 LINE",
"450 714 LINE",
"50 714 LINE",
"50 0 LINE"
);
},
{
closed = 1;
nodes = (
"98 666 LINE",
"402 666 LINE",
"402 48 LINE",
"98 48 LINE"
);
}
);
width = 500;
}
);
},
{
glyphname = tildecomb;
lastChange = "2017-04-18 13:24:41 +0000";
layers = (
{
layerId = UUID0;
paths = (
{
closed = 1;
nodes = (
"-132 605 LINE",
"-124 645 OFFCURVE",
"-109 664 OFFCURVE",
"-77 664 CURVE SMOOTH",
"-33 664 OFFCURVE",
"19 606 OFFCURVE",
"75 606 CURVE SMOOTH",
"138 606 OFFCURVE",
"176 657 OFFCURVE",
"184 734 CURVE",
"134 734 LINE",
"124 695 OFFCURVE",
"109 676 OFFCURVE",
"79 676 CURVE SMOOTH",
"37 676 OFFCURVE",
"-14 733 OFFCURVE",
"-73 733 CURVE SMOOTH",
"-136 733 OFFCURVE",
"-175 685 OFFCURVE",
"-184 605 CURVE"
);
}
);
width = 0;
}
);
unicode = 0303;
},
{
glyphname = uni0305;
lastChange = "2017-04-18 13:24:41 +0000";
layers = (
{
layerId = UUID0;
paths = (
{
closed = 1;
nodes = (
"209 620 LINE",
"209 687 LINE",
"-208 687 LINE",
"-208 620 LINE"
);
}
);
width = 0;
}
);
unicode = 0305;
},
{
glyphname = uni0484;
lastChange = "2017-04-18 13:24:41 +0000";
layers = (
{
layerId = UUID0;
paths = (
{
closed = 1;
nodes = (
"182 605 LINE",
"182 622 LINE SMOOTH",
"182 693 OFFCURVE",
"140 725 OFFCURVE",
"68 725 CURVE SMOOTH",
"-8 725 OFFCURVE",
"-74 668 OFFCURVE",
"-176 668 CURVE SMOOTH",
"-182 668 LINE",
"-182 607 LINE",
"-174 607 LINE SMOOTH",
"-62 607 OFFCURVE",
"10 664 OFFCURVE",
"66 664 CURVE SMOOTH",
"94 664 OFFCURVE",
"119 654 OFFCURVE",
"119 605 CURVE"
);
}
);
width = 0;
}
);
unicode = 0484;
},
{
glyphname = uni0487;
lastChange = "2017-04-18 13:24:41 +0000";
layers = (
{
layerId = UUID0;
paths = (
{
closed = 1;
nodes = (
"-120 605 LINE",
"-120 644 OFFCURVE",
"-102 663 OFFCURVE",
"-68 663 CURVE SMOOTH",
"-13 663 OFFCURVE",
"59 608 OFFCURVE",
"172 608 CURVE SMOOTH",
"180 608 LINE",
"180 667 LINE",
"174 667 LINE SMOOTH",
"72 667 OFFCURVE",
"6 725 OFFCURVE",
"-70 725 CURVE SMOOTH",
"-141 725 OFFCURVE",
"-184 692 OFFCURVE",
"-184 621 CURVE SMOOTH",
"-184 605 LINE"
);
}
);
width = 0;
}
);
unicode = 0487;
},
{
glyphname = uni2C00;
lastChange = "2017-04-18 13:24:41 +0000";
layers = (
{
layerId = UUID0;
paths = (
{
closed = 1;
nodes = (
"168 0 LINE",
"168 253 LINE SMOOTH",
"168 292 OFFCURVE",
"178 302 OFFCURVE",
"217 302 CURVE SMOOTH",
"364 302 LINE",
"364 0 LINE",
"454 0 LINE",
"454 302 LINE",
"601 302 LINE SMOOTH",
"640 302 OFFCURVE",
"649 292 OFFCURVE",
"649 253 CURVE SMOOTH",
"649 0 LINE",
"739 0 LINE",
"739 283 LINE SMOOTH",
"739 361 OFFCURVE",
"720 381 OFFCURVE",
"642 381 CURVE SMOOTH",
"454 381 LINE",
"454 714 LINE",
"364 714 LINE",
"364 381 LINE",
"176 381 LINE SMOOTH",
"98 381 OFFCURVE",
"78 361 OFFCURVE",
"78 283 CURVE SMOOTH",
"78 0 LINE"
);
}
);
width = 817;
}
);
unicode = 2C00;
},
{
glyphname = uni2C01;
lastChange = "2017-04-18 13:24:41 +0000";
layers = (
{
layerId = UUID0;
paths = (
{
closed = 1;
nodes = (
"735 0 LINE",
"735 79 LINE",
"236 79 LINE SMOOTH",
"197 79 OFFCURVE",
"188 84 OFFCURVE",
"188 128 CURVE SMOOTH",
"188 304 LINE",
"662 348 LINE SMOOTH",
"744 356 OFFCURVE",
"759 362 OFFCURVE",
"759 445 CURVE SMOOTH",
"759 714 LINE",
"669 714 LINE",
"669 456 LINE SMOOTH",
"669 428 OFFCURVE",
"655 425 OFFCURVE",
"638 423 CURVE SMOOTH",
"473 408 LINE",
"473 714 LINE",
"383 714 LINE",
"383 399 LINE",
"188 381 LINE",
"188 714 LINE",
"98 714 LINE",
"98 98 LINE SMOOTH",
"98 20 OFFCURVE",
"117 0 OFFCURVE",
"195 0 CURVE SMOOTH"
);
}
);
width = 847;
}
);
unicode = 2C01;
},
{
glyphname = uni2C02;
lastChange = "2017-04-18 13:24:41 +0000";
layers = (
{
layerId = UUID0;
paths = (
{
closed = 1;
nodes = (
"867 0 LINE SMOOTH",
"945 0 OFFCURVE",
"965 20 OFFCURVE",
"965 98 CURVE SMOOTH",
"965 616 LINE SMOOTH",
"965 694 OFFCURVE",
"945 714 OFFCURVE",
"867 714 CURVE SMOOTH",
"697 714 LINE SMOOTH",
"619 714 OFFCURVE",
"600 694 OFFCURVE",
"600 616 CURVE SMOOTH",
"600 79 LINE",
"463 79 LINE",
"463 616 LINE SMOOTH",
"463 694 OFFCURVE",
"443 714 OFFCURVE",
"365 714 CURVE SMOOTH",
"195 714 LINE SMOOTH",
"117 714 OFFCURVE",
"98 694 OFFCURVE",
"98 616 CURVE SMOOTH",
"98 98 LINE SMOOTH",
"98 20 OFFCURVE",
"117 0 OFFCURVE",
"195 0 CURVE SMOOTH"
);
},
{
closed = 1;
nodes = (
"197 79 OFFCURVE",
"188 89 OFFCURVE",
"188 128 CURVE SMOOTH",
"188 586 LINE SMOOTH",
"188 625 OFFCURVE",
"197 635 OFFCURVE",
"236 635 CURVE SMOOTH",
"324 635 LINE SMOOTH",
"363 635 OFFCURVE",
"373 625 OFFCURVE",
"373 586 CURVE SMOOTH",
"373 79 LINE",
"236 79 LINE SMOOTH"
);
},
{
closed = 1;
nodes = (
"689 586 LINE SMOOTH",
"689 625 OFFCURVE",
"699 635 OFFCURVE",
"738 635 CURVE SMOOTH",
"826 635 LINE SMOOTH",
"865 635 OFFCURVE",
"875 625 OFFCURVE",
"875 586 CURVE SMOOTH",
"875 128 LINE SMOOTH",
"875 89 OFFCURVE",
"865 79 OFFCURVE",
"826 79 CURVE SMOOTH",
"689 79 LINE"
);
}
);
width = 1063;
}
);
unicode = 2C02;
},
{
glyphname = uni2C03;
lastChange = "2017-04-18 13:24:41 +0000";
layers = (
{
layerId = UUID0;
paths = (
{
closed = 1;
nodes = (
"267 0 LINE",
"370 277 LINE",
"377 276 OFFCURVE",
"384 276 OFFCURVE",
"392 276 CURVE SMOOTH",
"486 276 LINE",
"486 98 LINE SMOOTH",
"486 20 OFFCURVE",
"505 0 OFFCURVE",
"583 0 CURVE SMOOTH",
"879 0 LINE",
"879 315 LINE SMOOTH",
"879 394 OFFCURVE",
"860 413 OFFCURVE",
"782 413 CURVE SMOOTH",
"583 413 LINE SMOOTH",
"521 413 OFFCURVE",
"496 400 OFFCURVE",
"488 355 CURVE",
"399 355 LINE",
"532 714 LINE",
"146 714 LINE SMOOTH",
"104 714 OFFCURVE",
"78 701 OFFCURVE",
"78 636 CURVE SMOOTH",
"78 575 LINE SMOOTH",
"78 442 OFFCURVE",
"160 331 OFFCURVE",
"289 292 CURVE",
"180 0 LINE"
);
},
{
closed = 1;
nodes = (
"211 394 OFFCURVE",
"168 484 OFFCURVE",
"168 563 CURVE SMOOTH",
"168 625 OFFCURVE",
"172 635 OFFCURVE",
"204 635 CURVE SMOOTH",
"417 635 LINE",
"316 365 LINE"
);
},
{
closed = 1;
nodes = (
"585 79 OFFCURVE",
"576 89 OFFCURVE",
"576 128 CURVE SMOOTH",
"576 285 LINE SMOOTH",
"576 324 OFFCURVE",
"585 334 OFFCURVE",
"625 334 CURVE SMOOTH",
"741 334 LINE SMOOTH",
"780 334 OFFCURVE",
"790 324 OFFCURVE",
"790 285 CURVE SMOOTH",
"790 79 LINE",
"625 79 LINE SMOOTH"
);
}
);
width = 958;
}
);
unicode = 2C03;
},
{
glyphname = uni2C04;
lastChange = "2017-04-18 13:24:41 +0000";
layers = (
{
layerId = UUID0;
paths = (
{
closed = 1;
nodes = (
"365 0 LINE SMOOTH",
"443 0 OFFCURVE",
"463 20 OFFCURVE",
"463 98 CURVE SMOOTH",
"463 635 LINE",
"551 635 LINE SMOOTH",
"590 635 OFFCURVE",
"600 625 OFFCURVE",
"600 586 CURVE SMOOTH",
"600 98 LINE SMOOTH",
"600 20 OFFCURVE",
"619 0 OFFCURVE",
"697 0 CURVE SMOOTH",
"896 0 LINE SMOOTH",
"974 0 OFFCURVE",
"993 20 OFFCURVE",
"993 98 CURVE SMOOTH",
"993 331 LINE SMOOTH",
"993 409 OFFCURVE",
"974 429 OFFCURVE",
"896 429 CURVE SMOOTH",
"689 429 LINE",
"689 616 LINE SMOOTH",
"689 694 OFFCURVE",
"670 714 OFFCURVE",
"592 714 CURVE SMOOTH",
"195 714 LINE SMOOTH",
"117 714 OFFCURVE",
"98 694 OFFCURVE",
"98 616 CURVE SMOOTH",
"98 98 LINE SMOOTH",
"98 20 OFFCURVE",
"117 0 OFFCURVE",
"195 0 CURVE SMOOTH"
);
},
{
closed = 1;
nodes = (
"197 79 OFFCURVE",
"188 89 OFFCURVE",
"188 128 CURVE SMOOTH",
"188 586 LINE SMOOTH",
"188 625 OFFCURVE",
"197 635 OFFCURVE",
"236 635 CURVE SMOOTH",
"373 635 LINE",
"373 128 LINE SMOOTH",
"373 89 OFFCURVE",
"363 79 OFFCURVE",
"324 79 CURVE SMOOTH",
"236 79 LINE SMOOTH"
);
},
{
closed = 1;
nodes = (
"699 79 OFFCURVE",
"689 89 OFFCURVE",
"689 128 CURVE SMOOTH",
"689 350 LINE",
"854 350 LINE SMOOTH",
"894 350 OFFCURVE",
"903 340 OFFCURVE",
"903 301 CURVE SMOOTH",
"903 128 LINE SMOOTH",
"903 89 OFFCURVE",
"894 79 OFFCURVE",
"854 79 CURVE SMOOTH",
"738 79 LINE SMOOTH"
);
}
);
width = 1071;
}
);
unicode = 2C04;
},
{
glyphname = uni2C05;
lastChange = "2017-04-18 13:24:41 +0000";
layers = (
{
layerId = UUID0;
paths = (
{
closed = 1;
nodes = (
"477 -10 OFFCURVE",
"590 136 OFFCURVE",
"590 369 CURVE SMOOTH",
"590 573 OFFCURVE",
"481 724 OFFCURVE",
"252 724 CURVE SMOOTH",
"177 724 OFFCURVE",
"104 709 OFFCURVE",
"49 682 CURVE",
"86 607 LINE",
"130 627 OFFCURVE",
"184 645 OFFCURVE",
"251 645 CURVE SMOOTH",
"389 645 OFFCURVE",
"481 559 OFFCURVE",
"494 413 CURVE",
"148 413 LINE",
"148 334 LINE",
"495 334 LINE",
"490 163 OFFCURVE",
"403 69 OFFCURVE",
"231 69 CURVE SMOOTH",
"167 69 OFFCURVE",
"111 82 OFFCURVE",
"55 97 CURVE",
"55 19 LINE",
"111 -1 OFFCURVE",
"162 -10 OFFCURVE",
"245 -10 CURVE SMOOTH"
);
}
);
width = 658;
}
);
unicode = 2C05;
},
{
glyphname = uni2C06;
lastChange = "2017-04-18 13:24:41 +0000";
layers = (
{
layerId = UUID0;
paths = (
{
closed = 1;
nodes = (
"365 0 LINE SMOOTH",
"443 0 OFFCURVE",
"463 20 OFFCURVE",
"463 98 CURVE SMOOTH",
"463 635 LINE",
"600 635 LINE",
"600 98 LINE SMOOTH",
"600 20 OFFCURVE",
"619 0 OFFCURVE",
"697 0 CURVE SMOOTH",
"867 0 LINE SMOOTH",
"945 0 OFFCURVE",
"965 20 OFFCURVE",
"965 98 CURVE SMOOTH",
"965 616 LINE SMOOTH",
"965 694 OFFCURVE",
"945 714 OFFCURVE",
"867 714 CURVE SMOOTH",
"614 714 LINE",
"641 778 OFFCURVE",
"698 811 OFFCURVE",
"809 811 CURVE SMOOTH",
"834 811 LINE",
"834 890 LINE",
"815 890 LINE SMOOTH",
"642 890 OFFCURVE",
"563 812 OFFCURVE",
"531 730 CURVE",
"500 812 OFFCURVE",
"420 890 OFFCURVE",
"247 890 CURVE SMOOTH",
"229 890 LINE",
"229 811 LINE",
"254 811 LINE SMOOTH",
"365 811 OFFCURVE",
"421 778 OFFCURVE",
"448 714 CURVE",
"195 714 LINE SMOOTH",
"117 714 OFFCURVE",
"98 694 OFFCURVE",
"98 616 CURVE SMOOTH",
"98 98 LINE SMOOTH",
"98 20 OFFCURVE",
"117 0 OFFCURVE",
"195 0 CURVE SMOOTH"
);
},
{
closed = 1;
nodes = (
"197 79 OFFCURVE",
"188 89 OFFCURVE",
"188 128 CURVE SMOOTH",
"188 586 LINE SMOOTH",
"188 625 OFFCURVE",
"197 635 OFFCURVE",
"236 635 CURVE SMOOTH",
"373 635 LINE",
"373 128 LINE SMOOTH",
"373 89 OFFCURVE",
"363 79 OFFCURVE",
"324 79 CURVE SMOOTH",
"236 79 LINE SMOOTH"
);
},
{
closed = 1;
nodes = (
"699 79 OFFCURVE",
"689 89 OFFCURVE",
"689 128 CURVE SMOOTH",
"689 635 LINE",
"826 635 LINE SMOOTH",
"865 635 OFFCURVE",
"875 625 OFFCURVE",
"875 586 CURVE SMOOTH",
"875 128 LINE SMOOTH",
"875 89 OFFCURVE",
"865 79 OFFCURVE",
"826 79 CURVE SMOOTH",
"738 79 LINE SMOOTH"
);
}
);
width = 1063;
}
);
unicode = 2C06;
},
{
glyphname = uni2C07;
lastChange = "2017-04-18 13:24:41 +0000";
layers = (
{
layerId = UUID0;
paths = (
{
closed = 1;
nodes = (
"658 0 LINE SMOOTH",
"736 0 OFFCURVE",
"756 20 OFFCURVE",
"756 98 CURVE SMOOTH",
"756 315 LINE SMOOTH",
"756 392 OFFCURVE",
"737 412 OFFCURVE",
"662 413 CURVE",
"724 461 OFFCURVE",
"756 532 OFFCURVE",
"756 610 CURVE SMOOTH",
"756 651 LINE SMOOTH",
"756 701 OFFCURVE",
"735 714 OFFCURVE",
"692 714 CURVE SMOOTH",
"479 714 LINE SMOOTH",
"401 714 OFFCURVE",
"382 694 OFFCURVE",
"382 616 CURVE SMOOTH",
"382 413 LINE",
"195 413 LINE SMOOTH",
"117 413 OFFCURVE",
"98 394 OFFCURVE",
"98 315 CURVE SMOOTH",
"98 98 LINE SMOOTH",
"98 20 OFFCURVE",
"117 0 OFFCURVE",
"195 0 CURVE SMOOTH"
);
},
{
closed = 1;
nodes = (
"197 79 OFFCURVE",
"188 89 OFFCURVE",
"188 128 CURVE SMOOTH",
"188 285 LINE SMOOTH",
"188 324 OFFCURVE",
"197 334 OFFCURVE",
"236 334 CURVE SMOOTH",
"382 334 LINE",
"382 79 LINE",
"236 79 LINE SMOOTH"
);
},
{
closed = 1;
nodes = (
"472 334 LINE",
"617 334 LINE SMOOTH",
"656 334 OFFCURVE",
"666 324 OFFCURVE",
"666 285 CURVE SMOOTH",
"666 128 LINE SMOOTH",
"666 89 OFFCURVE",
"656 79 OFFCURVE",
"617 79 CURVE SMOOTH",
"472 79 LINE"
);
},
{
closed = 1;
nodes = (
"472 586 LINE SMOOTH",
"472 625 OFFCURVE",
"481 635 OFFCURVE",
"521 635 CURVE SMOOTH",
"630 635 LINE SMOOTH",
"662 635 OFFCURVE",
"666 623 OFFCURVE",
"666 602 CURVE SMOOTH",
"666 534 OFFCURVE",
"633 429 OFFCURVE",
"488 413 CURVE",
"472 413 LINE"
);
}
);
width = 854;
}
);
unicode = 2C07;
},
{
glyphname = uni2C08;
lastChange = "2017-04-18 13:24:41 +0000";
layers = (
{
layerId = UUID0;
paths = (
{
closed = 1;
nodes = (
"205 0 LINE SMOOTH",
"389 0 OFFCURVE",
"460 145 OFFCURVE",
"466 334 CURVE",
"547 334 LINE",
"547 98 LINE SMOOTH",
"547 20 OFFCURVE",
"566 0 OFFCURVE",
"645 0 CURVE SMOOTH",
"843 0 LINE SMOOTH",
"921 0 OFFCURVE",
"940 20 OFFCURVE",
"940 98 CURVE SMOOTH",
"940 315 LINE SMOOTH",
"940 394 OFFCURVE",
"921 413 OFFCURVE",
"843 413 CURVE SMOOTH",
"465 413 LINE",
"454 577 OFFCURVE",
"386 714 OFFCURVE",
"214 714 CURVE SMOOTH",
"98 714 LINE",
"98 0 LINE"
);
},
{
closed = 1;
nodes = (
"188 334 LINE",
"372 334 LINE",
"366 149 OFFCURVE",
"309 79 OFFCURVE",
"196 79 CURVE SMOOTH",
"188 79 LINE"
);
},
{
closed = 1;
nodes = (
"188 635 LINE",
"213 635 LINE SMOOTH",
"294 635 OFFCURVE",
"360 579 OFFCURVE",
"371 413 CURVE",
"188 413 LINE"
);
},
{
closed = 1;
nodes = (
"646 79 OFFCURVE",
"637 89 OFFCURVE",
"637 128 CURVE SMOOTH",
"637 334 LINE",
"802 334 LINE SMOOTH",
"841 334 OFFCURVE",
"851 324 OFFCURVE",
"851 285 CURVE SMOOTH",
"851 128 LINE SMOOTH",
"851 89 OFFCURVE",
"841 79 OFFCURVE",
"802 79 CURVE SMOOTH",
"686 79 LINE SMOOTH"
);
}
);
width = 1019;
}
);
unicode = 2C08;
},
{
glyphname = uni2C09;
lastChange = "2017-04-18 13:24:41 +0000";
layers = (
{
layerId = UUID0;
paths = (
{
closed = 1;
nodes = (
"685 0 LINE",
"685 79 LINE",
"581 79 LINE",
"581 313 LINE",
"622 321 OFFCURVE",
"652 340 OFFCURVE",
"673 367 CURVE",
"701 332 OFFCURVE",
"744 309 OFFCURVE",
"812 309 CURVE SMOOTH",
"955 309 OFFCURVE",
"994 398 OFFCURVE",
"994 536 CURVE SMOOTH",
"994 714 LINE",
"78 714 LINE",
"78 536 LINE SMOOTH",
"78 398 OFFCURVE",
"117 309 OFFCURVE",
"261 309 CURVE SMOOTH",
"328 309 OFFCURVE",
"371 332 OFFCURVE",
"398 367 CURVE",
"419 340 OFFCURVE",
"449 321 OFFCURVE",
"491 313 CURVE",
"491 79 LINE",
"388 79 LINE",
"388 0 LINE"
);
},
{
closed = 1;
nodes = (
"180 388 OFFCURVE",
"168 439 OFFCURVE",
"168 536 CURVE SMOOTH",
"168 635 LINE",
"354 635 LINE",
"354 536 LINE SMOOTH",
"354 438 OFFCURVE",
"341 388 OFFCURVE",
"261 388 CURVE SMOOTH"
);
},
{
closed = 1;
nodes = (
"458 388 OFFCURVE",
"443 436 OFFCURVE",
"443 528 CURVE SMOOTH",
"443 635 LINE",
"629 635 LINE",
"629 528 LINE SMOOTH",
"629 437 OFFCURVE",
"615 388 OFFCURVE",
"536 388 CURVE SMOOTH"
);
},
{
closed = 1;
nodes = (
"734 388 OFFCURVE",
"719 436 OFFCURVE",
"719 527 CURVE SMOOTH",
"719 635 LINE",
"904 635 LINE",
"904 536 LINE SMOOTH",
"904 439 OFFCURVE",
"893 388 OFFCURVE",
"812 388 CURVE SMOOTH"
);
}
);
width = 1072;
}
);
unicode = 2C09;
},
{
glyphname = uni2C0A;
lastChange = "2017-04-18 13:24:41 +0000";
layers = (
{
layerId = UUID0;
paths = (
{
closed = 1;
nodes = (
"719 0 LINE",
"719 168 LINE SMOOTH",
"719 242 OFFCURVE",
"704 309 OFFCURVE",
"657 350 CURVE",
"673 367 LINE",
"701 332 OFFCURVE",
"744 309 OFFCURVE",
"812 309 CURVE SMOOTH",
"955 309 OFFCURVE",
"994 398 OFFCURVE",
"994 536 CURVE SMOOTH",
"994 714 LINE",
"78 714 LINE",
"78 536 LINE SMOOTH",
"78 398 OFFCURVE",
"117 309 OFFCURVE",
"261 309 CURVE SMOOTH",
"328 309 OFFCURVE",
"371 332 OFFCURVE",
"398 367 CURVE",
"415 350 LINE",
"365 307 OFFCURVE",
"354 235 OFFCURVE",
"354 168 CURVE SMOOTH",
"354 0 LINE"
);
},
{
closed = 1;
nodes = (
"443 168 LINE SMOOTH",
"443 266 OFFCURVE",
"456 309 OFFCURVE",
"536 309 CURVE SMOOTH",
"617 309 OFFCURVE",
"629 265 OFFCURVE",
"629 168 CURVE SMOOTH",
"629 79 LINE",
"443 79 LINE"
);
},
{
closed = 1;
nodes = (
"180 388 OFFCURVE",
"168 439 OFFCURVE",
"168 536 CURVE SMOOTH",
"168 635 LINE",
"354 635 LINE",
"354 536 LINE SMOOTH",
"354 438 OFFCURVE",
"341 388 OFFCURVE",
"261 388 CURVE SMOOTH"
);
},
{
closed = 1;
nodes = (
"456 388 OFFCURVE",
"443 438 OFFCURVE",
"443 536 CURVE SMOOTH",
"443 635 LINE",
"629 635 LINE",
"629 536 LINE SMOOTH",
"629 437 OFFCURVE",
"615 388 OFFCURVE",
"536 388 CURVE SMOOTH"
);
},
{
closed = 1;
nodes = (
"734 388 OFFCURVE",
"719 436 OFFCURVE",
"719 536 CURVE SMOOTH",
"719 635 LINE",
"904 635 LINE",
"904 536 LINE SMOOTH",
"904 439 OFFCURVE",
"893 388 OFFCURVE",
"812 388 CURVE SMOOTH"
);
}
);
width = 1072;
}
);
unicode = 2C0A;
},
{
glyphname = uni2C0B;
lastChange = "2017-04-18 13:24:41 +0000";
layers = (
{
layerId = UUID0;
paths = (
{
closed = 1;
nodes = (
"443 0 LINE",
"443 178 LINE SMOOTH",
"443 251 OFFCURVE",
"428 322 OFFCURVE",
"382 364 CURVE",
"428 404 OFFCURVE",
"443 472 OFFCURVE",
"443 546 CURVE SMOOTH",
"443 714 LINE",
"78 714 LINE",
"78 546 LINE SMOOTH",
"78 479 OFFCURVE",
"90 407 OFFCURVE",
"139 364 CURVE",
"90 319 OFFCURVE",
"78 245 OFFCURVE",
"78 178 CURVE SMOOTH",
"78 0 LINE"
);
},
{
closed = 1;
nodes = (
"168 178 LINE SMOOTH",
"168 275 OFFCURVE",
"181 326 OFFCURVE",
"261 326 CURVE SMOOTH",
"342 326 OFFCURVE",
"354 274 OFFCURVE",
"354 178 CURVE SMOOTH",
"354 79 LINE",
"168 79 LINE"
);
},
{
closed = 1;
nodes = (
"181 405 OFFCURVE",
"168 448 OFFCURVE",
"168 546 CURVE SMOOTH",
"168 635 LINE",
"354 635 LINE",
"354 546 LINE SMOOTH",
"354 449 OFFCURVE",
"342 405 OFFCURVE",
"261 405 CURVE SMOOTH"
);
}
);
width = 521;
}
);
unicode = 2C0B;
},
{
glyphname = uni2C0C;
lastChange = "2017-04-18 13:24:41 +0000";
layers = (
{
layerId = UUID0;
paths = (
{
closed = 1;
nodes = (
"188 0 LINE",
"188 586 LINE SMOOTH",
"188 625 OFFCURVE",
"197 635 OFFCURVE",
"236 635 CURVE SMOOTH",
"324 635 LINE SMOOTH",
"363 635 OFFCURVE",
"373 625 OFFCURVE",
"373 586 CURVE SMOOTH",
"373 0 LINE",
"463 0 LINE",
"463 301 LINE",
"614 301 LINE",
"614 0 LINE",
"704 0 LINE",
"704 301 LINE",
"890 311 OFFCURVE",
"1018 414 OFFCURVE",
"1018 575 CURVE SMOOTH",
"1018 666 LINE SMOOTH",
"1018 701 OFFCURVE",
"992 714 OFFCURVE",
"969 714 CURVE SMOOTH",
"712 714 LINE SMOOTH",
"634 714 OFFCURVE",
"614 694 OFFCURVE",
"614 616 CURVE SMOOTH",
"614 380 LINE",
"463 380 LINE",
"463 616 LINE SMOOTH",
"463 694 OFFCURVE",
"443 714 OFFCURVE",
"365 714 CURVE SMOOTH",
"195 714 LINE SMOOTH",
"117 714 OFFCURVE",
"98 694 OFFCURVE",
"98 616 CURVE SMOOTH",
"98 0 LINE"
);
},
{
closed = 1;
nodes = (
"704 586 LINE SMOOTH",
"704 625 OFFCURVE",
"714 635 OFFCURVE",
"753 635 CURVE SMOOTH",
"892 635 LINE SMOOTH",
"923 635 OFFCURVE",
"928 625 OFFCURVE",
"928 563 CURVE SMOOTH",
"928 468 OFFCURVE",
"863 390 OFFCURVE",
"704 380 CURVE"
);
}
);
width = 1096;
}
);
unicode = 2C0C;
},
{
glyphname = uni2C0D;
lastChange = "2017-04-18 13:24:41 +0000";
layers = (
{
layerId = UUID0;
paths = (
{
closed = 1;
nodes = (
"367 0 LINE",
"367 315 LINE SMOOTH",
"367 394 OFFCURVE",
"348 413 OFFCURVE",
"270 413 CURVE SMOOTH",
"141 413 LINE",
"204 714 LINE",
"118 714 LINE",
"39 334 LINE",
"229 334 LINE SMOOTH",
"268 334 OFFCURVE",
"277 324 OFFCURVE",
"277 285 CURVE SMOOTH",
"277 0 LINE"
);
}
);
width = 445;
}
);
unicode = 2C0D;
},
{
glyphname = uni2C0E;
lastChange = "2017-04-18 13:24:41 +0000";
layers = (
{
layerId = UUID0;
paths = (
{
closed = 1;
nodes = (
"346 0 LINE SMOOTH",
"424 0 OFFCURVE",
"443 20 OFFCURVE",
"443 98 CURVE SMOOTH",
"443 334 LINE",
"595 334 LINE",
"595 98 LINE SMOOTH",
"595 20 OFFCURVE",
"614 0 OFFCURVE",
"692 0 CURVE SMOOTH",
"862 0 LINE SMOOTH",
"940 0 OFFCURVE",
"960 20 OFFCURVE",
"960 98 CURVE SMOOTH",
"960 315 LINE SMOOTH",
"960 394 OFFCURVE",
"940 413 OFFCURVE",
"862 413 CURVE SMOOTH",
"685 413 LINE",
"685 616 LINE SMOOTH",
"685 694 OFFCURVE",
"665 714 OFFCURVE",
"587 714 CURVE SMOOTH",
"451 714 LINE SMOOTH",
"373 714 OFFCURVE",
"354 694 OFFCURVE",
"354 616 CURVE SMOOTH",
"354 413 LINE",
"176 413 LINE SMOOTH",
"98 413 OFFCURVE",
"78 394 OFFCURVE",
"78 315 CURVE SMOOTH",
"78 98 LINE SMOOTH",
"78 20 OFFCURVE",
"98 0 OFFCURVE",
"176 0 CURVE SMOOTH"
);
},
{
closed = 1;
nodes = (
"178 79 OFFCURVE",
"168 89 OFFCURVE",
"168 128 CURVE SMOOTH",
"168 285 LINE SMOOTH",
"168 324 OFFCURVE",
"178 334 OFFCURVE",
"217 334 CURVE SMOOTH",
"354 334 LINE",
"354 128 LINE SMOOTH",
"354 89 OFFCURVE",
"344 79 OFFCURVE",
"305 79 CURVE SMOOTH",
"217 79 LINE SMOOTH"
);
},
{
closed = 1;
nodes = (
"694 79 OFFCURVE",
"685 89 OFFCURVE",
"685 128 CURVE",
"685 334 LINE",
"821 334 LINE SMOOTH",
"860 334 OFFCURVE",
"870 324 OFFCURVE",
"870 285 CURVE SMOOTH",
"870 128 LINE SMOOTH",
"870 89 OFFCURVE",
"860 79 OFFCURVE",
"821 79 CURVE SMOOTH",
"733 79 LINE SMOOTH"
);
},
{
closed = 1;
nodes = (
"443 586 LINE SMOOTH",
"443 625 OFFCURVE",
"453 635 OFFCURVE",
"492 635 CURVE SMOOTH",
"546 635 LINE SMOOTH",
"585 635 OFFCURVE",
"595 625 OFFCURVE",
"595 586 CURVE SMOOTH",
"595 413 LINE",
"443 413 LINE"
);
}
);
width = 1038;
}
);
unicode = 2C0E;
},
{
glyphname = uni2C0F;
lastChange = "2017-04-18 13:24:41 +0000";
layers = (
{
layerId = UUID0;
paths = (
{
closed = 1;
nodes = (
"188 0 LINE",
"188 477 LINE SMOOTH",
"188 575 OFFCURVE",
"200 645 OFFCURVE",
"280 645 CURVE SMOOTH",
"359 645 OFFCURVE",
"373 578 OFFCURVE",
"373 485 CURVE SMOOTH",
"373 0 LINE",
"463 0 LINE",
"463 487 LINE SMOOTH",
"463 580 OFFCURVE",
"479 645 OFFCURVE",
"556 645 CURVE SMOOTH",
"637 645 OFFCURVE",
"648 574 OFFCURVE",
"648 477 CURVE SMOOTH",
"648 0 LINE",
"738 0 LINE",
"738 477 LINE SMOOTH",
"738 615 OFFCURVE",
"704 724 OFFCURVE",
"556 724 CURVE SMOOTH",
"488 724 OFFCURVE",
"445 700 OFFCURVE",
"418 665 CURVE",
"391 702 OFFCURVE",
"347 724 OFFCURVE",
"280 724 CURVE SMOOTH",
"114 724 OFFCURVE",
"98 581 OFFCURVE",
"98 477 CURVE SMOOTH",
"98 0 LINE"
);
}
);
width = 836;
}
);
unicode = 2C0F;
},
{
glyphname = uni2C10;
lastChange = "2017-04-18 13:24:41 +0000";
layers = (
{
layerId = UUID0;
paths = (
{
closed = 1;
nodes = (
"188 0 LINE",
"188 301 LINE",
"374 311 OFFCURVE",
"501 414 OFFCURVE",
"501 575 CURVE SMOOTH",
"501 646 LINE SMOOTH",
"501 701 OFFCURVE",
"476 714 OFFCURVE",
"433 714 CURVE SMOOTH",
"195 714 LINE SMOOTH",
"117 714 OFFCURVE",
"98 694 OFFCURVE",
"98 616 CURVE SMOOTH",
"98 0 LINE"
);
},
{
closed = 1;
nodes = (
"188 586 LINE SMOOTH",
"188 625 OFFCURVE",
"197 635 OFFCURVE",
"236 635 CURVE SMOOTH",
"375 635 LINE SMOOTH",
"407 635 OFFCURVE",
"411 625 OFFCURVE",
"411 563 CURVE SMOOTH",
"411 468 OFFCURVE",
"347 390 OFFCURVE",
"188 380 CURVE"
);
}
);
width = 569;
}
);
unicode = 2C10;
},
{
glyphname = uni2C11;
lastChange = "2017-04-18 13:24:41 +0000";
layers = (
{
layerId = UUID0;
paths = (
{
closed = 1;
nodes = (
"374 0 LINE SMOOTH",
"457 0 OFFCURVE",
"472 15 OFFCURVE",
"472 98 CURVE SMOOTH",
"472 616 LINE SMOOTH",
"472 699 OFFCURVE",
"457 714 OFFCURVE",
"374 714 CURVE SMOOTH",
"179 714 LINE SMOOTH",
"80 714 OFFCURVE",
"68 637 OFFCURVE",
"68 575 CURVE SMOOTH",
"68 477 OFFCURVE",
"123 403 OFFCURVE",
"209 368 CURVE",
"123 324 OFFCURVE",
"68 237 OFFCURVE",
"68 139 CURVE SMOOTH",
"68 77 OFFCURVE",
"80 0 OFFCURVE",
"179 0 CURVE SMOOTH"
);
},
{
closed = 1;
nodes = (
"164 79 OFFCURVE",
"158 107 OFFCURVE",
"158 155 CURVE SMOOTH",
"158 257 OFFCURVE",
"251 333 OFFCURVE",
"382 334 CURVE",
"382 122 LINE SMOOTH",
"382 96 OFFCURVE",
"373 79 OFFCURVE",
"345 79 CURVE SMOOTH",
"210 79 LINE SMOOTH"
);
},
{
closed = 1;
nodes = (
"251 414 OFFCURVE",
"158 468 OFFCURVE",
"158 559 CURVE SMOOTH",
"158 606 OFFCURVE",
"164 635 OFFCURVE",
"210 635 CURVE SMOOTH",
"345 635 LINE SMOOTH",
"373 635 OFFCURVE",
"382 618 OFFCURVE",
"382 592 CURVE SMOOTH",
"382 413 LINE"
);
}
);
width = 569;
}
);
unicode = 2C11;
},
{
glyphname = uni2C12;
lastChange = "2017-04-18 13:24:41 +0000";
layers = (
{
layerId = UUID0;
paths = (
{
closed = 1;
nodes = (
"188 0 LINE",
"188 586 LINE SMOOTH",
"188 625 OFFCURVE",
"197 635 OFFCURVE",
"236 635 CURVE SMOOTH",
"326 635 LINE",
"326 293 LINE SMOOTH",
"326 215 OFFCURVE",
"345 195 OFFCURVE",
"423 195 CURVE SMOOTH",
"593 195 LINE SMOOTH",
"671 195 OFFCURVE",
"691 215 OFFCURVE",
"691 293 CURVE SMOOTH",
"691 616 LINE SMOOTH",
"691 694 OFFCURVE",
"671 714 OFFCURVE",
"593 714 CURVE SMOOTH",
"195 714 LINE SMOOTH",
"117 714 OFFCURVE",
"98 694 OFFCURVE",
"98 616 CURVE SMOOTH",
"98 0 LINE"
);
},
{
closed = 1;
nodes = (
"425 274 OFFCURVE",
"416 284 OFFCURVE",
"416 323 CURVE SMOOTH",
"416 635 LINE",
"552 635 LINE SMOOTH",
"591 635 OFFCURVE",
"601 625 OFFCURVE",
"601 586 CURVE SMOOTH",
"601 323 LINE SMOOTH",
"601 284 OFFCURVE",
"591 274 OFFCURVE",
"552 274 CURVE SMOOTH",
"464 274 LINE SMOOTH"
);
}
);
width = 769;
}
);
unicode = 2C12;
},
{
glyphname = uni2C13;
lastChange = "2017-04-18 13:24:41 +0000";
layers = (
{
layerId = UUID0;
paths = (
{
closed = 1;
nodes = (
"371 0 LINE SMOOTH",
"480 0 OFFCURVE",
"501 77 OFFCURVE",
"501 139 CURVE SMOOTH",
"501 294 OFFCURVE",
"364 412 OFFCURVE",
"188 413 CURVE",
"188 714 LINE",
"98 714 LINE",
"98 98 LINE SMOOTH",
"98 15 OFFCURVE",
"112 0 OFFCURVE",
"195 0 CURVE SMOOTH"
);
},
{
closed = 1;
nodes = (
"197 79 OFFCURVE",
"188 96 OFFCURVE",
"188 122 CURVE SMOOTH",
"188 334 LINE",
"317 333 OFFCURVE",
"411 246 OFFCURVE",
"411 155 CURVE SMOOTH",
"411 107 OFFCURVE",
"406 79 OFFCURVE",
"359 79 CURVE SMOOTH",
"224 79 LINE SMOOTH"
);
}
);
width = 569;
}
);
unicode = 2C13;
},
{
glyphname = uni2C14;
lastChange = "2017-04-18 13:24:41 +0000";
layers = (
{
layerId = UUID0;
paths = (
{
closed = 1;
nodes = (
"588 0 LINE",
"588 178 LINE SMOOTH",
"588 187 OFFCURVE",
"587 196 OFFCURVE",
"587 205 CURVE",
"691 258 OFFCURVE",
"735 357 OFFCURVE",
"735 451 CURVE SMOOTH",
"735 578 OFFCURVE",
"642 725 OFFCURVE",
"402 725 CURVE SMOOTH",
"162 725 OFFCURVE",
"68 578 OFFCURVE",
"68 445 CURVE SMOOTH",
"68 353 OFFCURVE",
"114 254 OFFCURVE",
"223 202 CURVE",
"223 194 OFFCURVE",
"223 186 OFFCURVE",
"223 178 CURVE SMOOTH",
"223 0 LINE"
);
},
{
closed = 1;
nodes = (
"313 178 LINE SMOOTH",
"313 275 OFFCURVE",
"325 326 OFFCURVE",
"405 326 CURVE SMOOTH",
"486 326 OFFCURVE",
"498 274 OFFCURVE",
"498 178 CURVE SMOOTH",
"498 79 LINE",
"313 79 LINE"
);
},
{
closed = 1;
nodes = (
"191 322 OFFCURVE",
"161 371 OFFCURVE",
"161 446 CURVE SMOOTH",
"161 572 OFFCURVE",
"271 646 OFFCURVE",
"401 646 CURVE SMOOTH",
"528 646 OFFCURVE",
"643 583 OFFCURVE",
"643 446 CURVE SMOOTH",
"643 376 OFFCURVE",
"615 328 OFFCURVE",
"570 295 CURVE",
"547 359 OFFCURVE",
"498 405 OFFCURVE",
"405 405 CURVE SMOOTH",
"306 405 OFFCURVE",
"259 354 OFFCURVE",
"238 290 CURVE"
);
}
);
width = 804;
}
);
unicode = 2C14;
},
{
glyphname = uni2C15;
lastChange = "2017-04-18 13:24:41 +0000";
layers = (
{
layerId = UUID0;
paths = (
{
closed = 1;
nodes = (
"365 0 LINE SMOOTH",
"443 0 OFFCURVE",
"463 20 OFFCURVE",
"463 98 CURVE SMOOTH",
"463 635 LINE",
"600 635 LINE",
"600 98 LINE SMOOTH",
"600 20 OFFCURVE",
"619 0 OFFCURVE",
"697 0 CURVE SMOOTH",
"867 0 LINE SMOOTH",
"945 0 OFFCURVE",
"965 20 OFFCURVE",
"965 98 CURVE SMOOTH",
"965 616 LINE SMOOTH",
"965 694 OFFCURVE",
"945 714 OFFCURVE",
"867 714 CURVE SMOOTH",
"195 714 LINE SMOOTH",
"117 714 OFFCURVE",
"98 694 OFFCURVE",
"98 616 CURVE SMOOTH",
"98 98 LINE SMOOTH",
"98 20 OFFCURVE",
"117 0 OFFCURVE",
"195 0 CURVE SMOOTH"
);
},
{
closed = 1;
nodes = (
"197 79 OFFCURVE",
"188 89 OFFCURVE",
"188 128 CURVE SMOOTH",
"188 586 LINE SMOOTH",
"188 625 OFFCURVE",
"197 635 OFFCURVE",
"236 635 CURVE SMOOTH",
"373 635 LINE",
"373 128 LINE SMOOTH",
"373 89 OFFCURVE",
"363 79 OFFCURVE",
"324 79 CURVE SMOOTH",
"236 79 LINE SMOOTH"
);
},
{
closed = 1;
nodes = (
"699 79 OFFCURVE",
"689 89 OFFCURVE",
"689 128 CURVE SMOOTH",
"689 635 LINE",
"826 635 LINE SMOOTH",
"865 635 OFFCURVE",
"875 625 OFFCURVE",
"875 586 CURVE SMOOTH",
"875 128 LINE SMOOTH",
"875 89 OFFCURVE",
"865 79 OFFCURVE",
"826 79 CURVE SMOOTH",
"738 79 LINE SMOOTH"
);
}
);
width = 1063;
}
);
unicode = 2C15;
},
{
glyphname = uni2C16;
lastChange = "2017-04-18 13:24:41 +0000";
layers = (
{
layerId = UUID0;
paths = (
{
closed = 1;
nodes = (
"659 0 LINE SMOOTH",
"737 0 OFFCURVE",
"757 20 OFFCURVE",
"757 98 CURVE SMOOTH",
"757 616 LINE SMOOTH",
"757 694 OFFCURVE",
"737 714 OFFCURVE",
"659 714 CURVE SMOOTH",
"189 714 LINE SMOOTH",
"89 714 OFFCURVE",
"78 637 OFFCURVE",
"78 575 CURVE SMOOTH",
"78 477 OFFCURVE",
"136 414 OFFCURVE",
"221 372 CURVE",
"136 327 OFFCURVE",
"78 237 OFFCURVE",
"78 139 CURVE SMOOTH",
"78 77 OFFCURVE",
"89 0 OFFCURVE",
"189 0 CURVE SMOOTH"
);
},
{
closed = 1;
nodes = (
"173 79 OFFCURVE",
"168 107 OFFCURVE",
"168 155 CURVE SMOOTH",
"168 266 OFFCURVE",
"261 333 OFFCURVE",
"392 334 CURVE",
"392 79 LINE",
"220 79 LINE SMOOTH"
);
},
{
closed = 1;
nodes = (
"481 334 LINE",
"667 334 LINE",
"667 128 LINE SMOOTH",
"667 89 OFFCURVE",
"657 79 OFFCURVE",
"618 79 CURVE",
"481 79 LINE"
);
},
{
closed = 1;
nodes = (
"251 414 OFFCURVE",
"168 468 OFFCURVE",
"168 559 CURVE SMOOTH",
"168 606 OFFCURVE",
"173 635 OFFCURVE",
"220 635 CURVE SMOOTH",
"392 635 LINE",
"392 413 LINE"
);
},
{
closed = 1;
nodes = (
"481 635 LINE",
"618 635 LINE SMOOTH",
"657 635 OFFCURVE",
"667 625 OFFCURVE",
"667 586 CURVE SMOOTH",
"667 413 LINE",
"481 413 LINE"
);
}
);
width = 854;
}
);
unicode = 2C16;
},
{
glyphname = uni2C17;
lastChange = "2017-04-18 13:24:41 +0000";
layers = (
{
layerId = UUID0;
paths = (
{
closed = 1;
nodes = (
"442 -107 LINE",
"442 -7 LINE",
"629 11 OFFCURVE",
"728 153 OFFCURVE",
"728 358 CURVE SMOOTH",
"728 564 OFFCURVE",
"628 705 OFFCURVE",
"442 723 CURVE",
"442 812 LINE",
"353 812 LINE",
"353 723 LINE",
"160 703 OFFCURVE",
"68 562 OFFCURVE",
"68 359 CURVE SMOOTH",
"68 154 OFFCURVE",
"161 12 OFFCURVE",
"353 -7 CURVE",
"353 -107 LINE"
);
},
{
closed = 1;
nodes = (
"222 88 OFFCURVE",
"159 196 OFFCURVE",
"159 358 CURVE SMOOTH",
"159 520 OFFCURVE",
"222 625 OFFCURVE",
"353 645 CURVE",
"353 69 LINE"
);
},
{
closed = 1;
nodes = (
"442 646 LINE",
"574 627 OFFCURVE",
"637 521 OFFCURVE",
"637 358 CURVE SMOOTH",
"637 195 OFFCURVE",
"574 87 OFFCURVE",
"442 68 CURVE"
);
}
);
width = 796;
}
);
unicode = 2C17;
},
{
glyphname = uni2C18;
lastChange = "2017-04-18 13:24:41 +0000";
layers = (
{
layerId = UUID0;
paths = (
{
closed = 1;
nodes = (
"164 0 LINE",
"267 276 LINE",
"383 276 LINE",
"383 98 LINE SMOOTH",
"383 20 OFFCURVE",
"403 0 OFFCURVE",
"481 0 CURVE SMOOTH",
"777 0 LINE",
"777 315 LINE SMOOTH",
"777 394 OFFCURVE",
"757 413 OFFCURVE",
"679 413 CURVE SMOOTH",
"481 413 LINE SMOOTH",
"418 413 OFFCURVE",
"394 400 OFFCURVE",
"386 355 CURVE",
"296 355 LINE",
"430 714 LINE",
"49 714 LINE",
"49 635 LINE",
"314 635 LINE",
"78 0 LINE"
);
},
{
closed = 1;
nodes = (
"483 79 OFFCURVE",
"473 89 OFFCURVE",
"473 128 CURVE SMOOTH",
"473 285 LINE SMOOTH",
"473 324 OFFCURVE",
"483 334 OFFCURVE",
"522 334 CURVE SMOOTH",
"638 334 LINE SMOOTH",
"677 334 OFFCURVE",
"687 324 OFFCURVE",
"687 285 CURVE SMOOTH",
"687 79 LINE",
"522 79 LINE SMOOTH"
);
}
);
width = 855;
}
);
unicode = 2C18;
},
{
glyphname = uni2C19;
lastChange = "2017-04-18 13:24:41 +0000";
layers = (
{
layerId = UUID0;
paths = (
{
closed = 1;
nodes = (
"613 -10 OFFCURVE",
"728 137 OFFCURVE",
"728 358 CURVE SMOOTH",
"728 580 OFFCURVE",
"613 725 OFFCURVE",
"399 725 CURVE SMOOTH",
"175 725 OFFCURVE",
"68 578 OFFCURVE",
"68 359 CURVE SMOOTH",
"68 138 OFFCURVE",
"175 -10 OFFCURVE",
"398 -10 CURVE SMOOTH"
);
},
{
closed = 1;
nodes = (
"372 61 OFFCURVE",
"350 83 OFFCURVE",
"350 110 CURVE SMOOTH",
"350 137 OFFCURVE",
"372 159 OFFCURVE",
"399 159 CURVE SMOOTH",
"427 159 OFFCURVE",
"449 137 OFFCURVE",
"449 110 CURVE SMOOTH",
"449 83 OFFCURVE",
"427 61 OFFCURVE",
"399 61 CURVE SMOOTH"
);
},
{
closed = 1;
nodes = (
"203 121 OFFCURVE",
"161 224 OFFCURVE",
"161 358 CURVE SMOOTH",
"161 492 OFFCURVE",
"203 594 OFFCURVE",
"292 633 CURVE",
"290 624 OFFCURVE",
"289 614 OFFCURVE",
"289 604 CURVE SMOOTH",
"289 543 OFFCURVE",
"338 494 OFFCURVE",
"399 494 CURVE SMOOTH",
"460 494 OFFCURVE",
"510 543 OFFCURVE",
"510 604 CURVE SMOOTH",
"510 614 OFFCURVE",
"508 624 OFFCURVE",
"506 633 CURVE",
"593 593 OFFCURVE",
"635 492 OFFCURVE",
"635 358 CURVE SMOOTH",
"635 225 OFFCURVE",
"594 122 OFFCURVE",
"506 82 CURVE",
"508 90 OFFCURVE",
"510 100 OFFCURVE",
"510 109 CURVE SMOOTH",
"510 171 OFFCURVE",
"460 220 OFFCURVE",
"399 220 CURVE SMOOTH",
"338 220 OFFCURVE",
"289 171 OFFCURVE",
"289 109 CURVE SMOOTH",
"289 100 OFFCURVE",
"290 90 OFFCURVE",
"292 81 CURVE"
);
},
{
closed = 1;
nodes = (
"372 555 OFFCURVE",
"350 577 OFFCURVE",
"350 604 CURVE SMOOTH",
"350 631 OFFCURVE",
"371 654 OFFCURVE",
"397 654 CURVE SMOOTH",
"428 654 OFFCURVE",
"449 631 OFFCURVE",
"449 604 CURVE SMOOTH",
"449 577 OFFCURVE",
"427 555 OFFCURVE",
"399 555 CURVE SMOOTH"
);
}
);
width = 796;
}
);
unicode = 2C19;
},
{
glyphname = uni2C1A;
lastChange = "2017-04-18 13:24:41 +0000";
layers = (
{
layerId = UUID0;
paths = (
{
closed = 1;
nodes = (
"374 0 LINE SMOOTH",
"452 0 OFFCURVE",
"472 20 OFFCURVE",
"472 98 CURVE SMOOTH",
"472 586 LINE SMOOTH",
"472 625 OFFCURVE",
"481 635 OFFCURVE",
"521 635 CURVE SMOOTH",
"628 635 LINE SMOOTH",
"667 635 OFFCURVE",
"677 625 OFFCURVE",
"677 586 CURVE SMOOTH",
"677 0 LINE",
"767 0 LINE",
"767 616 LINE SMOOTH",
"767 694 OFFCURVE",
"748 714 OFFCURVE",
"669 714 CURVE SMOOTH",
"479 714 LINE SMOOTH",
"401 714 OFFCURVE",
"382 694 OFFCURVE",
"382 616 CURVE SMOOTH",
"382 413 LINE",
"176 413 LINE SMOOTH",
"98 413 OFFCURVE",
"78 394 OFFCURVE",
"78 315 CURVE SMOOTH",
"78 98 LINE SMOOTH",
"78 20 OFFCURVE",
"98 0 OFFCURVE",
"176 0 CURVE SMOOTH"
);
},
{
closed = 1;
nodes = (
"178 79 OFFCURVE",
"168 89 OFFCURVE",
"168 128 CURVE SMOOTH",
"168 285 LINE SMOOTH",
"168 324 OFFCURVE",
"178 334 OFFCURVE",
"217 334 CURVE SMOOTH",
"382 334 LINE",
"382 128 LINE SMOOTH",
"382 89 OFFCURVE",
"372 79 OFFCURVE",
"333 79 CURVE SMOOTH",
"217 79 LINE SMOOTH"
);
}
);
width = 865;
}
);
unicode = 2C1A;
},
{
glyphname = uni2C1B;
lastChange = "2017-04-18 13:24:41 +0000";
layers = (
{
layerId = UUID0;
paths = (
{
closed = 1;
nodes = (
"592 0 LINE",
"592 193 LINE SMOOTH",
"592 246 OFFCURVE",
"584 295 OFFCURVE",
"563 334 CURVE",
"642 334 LINE SMOOTH",
"720 334 OFFCURVE",
"740 354 OFFCURVE",
"740 432 CURVE SMOOTH",
"740 714 LINE",
"650 714 LINE",
"650 462 LINE SMOOTH",
"650 423 OFFCURVE",
"640 413 OFFCURVE",
"601 413 CURVE SMOOTH",
"454 413 LINE",
"454 714 LINE",
"364 714 LINE",
"364 413 LINE",
"217 413 LINE SMOOTH",
"178 413 OFFCURVE",
"168 423 OFFCURVE",
"168 462 CURVE SMOOTH",
"168 714 LINE",
"78 714 LINE",
"78 432 LINE SMOOTH",
"78 354 OFFCURVE",
"98 334 OFFCURVE",
"176 334 CURVE SMOOTH",
"255 334 LINE",
"232 293 OFFCURVE",
"227 242 OFFCURVE",
"227 193 CURVE SMOOTH",
"227 0 LINE"
);
},
{
closed = 1;
nodes = (
"316 193 LINE SMOOTH",
"316 291 OFFCURVE",
"329 333 OFFCURVE",
"409 333 CURVE SMOOTH",
"490 333 OFFCURVE",
"502 290 OFFCURVE",
"502 193 CURVE SMOOTH",
"502 79 LINE",
"316 79 LINE"
);
}
);
width = 818;
}
);
unicode = 2C1B;
},
{
glyphname = uni2C1C;
lastChange = "2017-04-18 13:24:41 +0000";
layers = (
{
layerId = UUID0;
paths = (
{
closed = 1;
nodes = (
"636 0 LINE SMOOTH",
"676 0 OFFCURVE",
"686 36 OFFCURVE",
"696 98 CURVE SMOOTH",
"791 714 LINE",
"703 714 LINE",
"612 128 LINE SMOOTH",
"606 91 OFFCURVE",
"603 79 OFFCURVE",
"570 79 CURVE SMOOTH",
"538 79 OFFCURVE",
"533 92 OFFCURVE",
"528 128 CURVE SMOOTH",
"454 616 LINE SMOOTH",
"442 698 OFFCURVE",
"439 714 OFFCURVE",
"356 714 CURVE SMOOTH",
"179 714 LINE SMOOTH",
"80 714 OFFCURVE",
"68 637 OFFCURVE",
"68 575 CURVE SMOOTH",
"68 419 OFFCURVE",
"207 334 OFFCURVE",
"385 334 CURVE SMOOTH",
"406 334 LINE",
"441 98 LINE SMOOTH",
"450 36 OFFCURVE",
"461 0 OFFCURVE",
"502 0 CURVE SMOOTH"
);
},
{
closed = 1;
nodes = (
"243 413 OFFCURVE",
"158 469 OFFCURVE",
"158 561 CURVE SMOOTH",
"158 606 OFFCURVE",
"164 635 OFFCURVE",
"210 635 CURVE SMOOTH",
"331 635 LINE SMOOTH",
"358 635 OFFCURVE",
"363 618 OFFCURVE",
"367 592 CURVE SMOOTH",
"395 413 LINE",
"374 413 LINE SMOOTH"
);
}
);
width = 840;
}
);
unicode = 2C1C;
},
{
glyphname = uni2C1D;
lastChange = "2017-04-18 13:24:41 +0000";
layers = (
{
layerId = UUID0;
paths = (
{
closed = 1;
nodes = (
"637 0 LINE",
"637 169 LINE SMOOTH",
"637 233 OFFCURVE",
"625 293 OFFCURVE",
"592 334 CURVE",
"860 334 LINE",
"710 714 LINE",
"620 714 LINE",
"664 603 LINE",
"245 603 LINE",
"289 714 LINE",
"199 714 LINE",
"49 334 LINE",
"316 334 LINE",
"281 291 OFFCURVE",
"272 228 OFFCURVE",
"272 169 CURVE SMOOTH",
"272 0 LINE"
);
},
{
closed = 1;
nodes = (
"362 169 LINE SMOOTH",
"362 267 OFFCURVE",
"375 310 OFFCURVE",
"455 310 CURVE SMOOTH",
"536 310 OFFCURVE",
"547 266 OFFCURVE",
"547 169 CURVE SMOOTH",
"547 79 LINE",
"362 79 LINE"
);
},
{
closed = 1;
nodes = (
"213 523 LINE",
"409 523 LINE",
"409 413 LINE",
"170 413 LINE"
);
},
{
closed = 1;
nodes = (
"500 523 LINE",
"695 523 LINE",
"739 413 LINE",
"500 413 LINE"
);
}
);
width = 909;
}
);
unicode = 2C1D;
},
{
glyphname = uni2C1E;
lastChange = "2017-04-18 13:24:41 +0000";
layers = (
{
layerId = UUID0;
paths = (
{
closed = 1;
nodes = (
"662 0 LINE SMOOTH",
"740 0 OFFCURVE",
"759 20 OFFCURVE",
"759 98 CURVE SMOOTH",
"759 714 LINE",
"669 714 LINE",
"669 128 LINE SMOOTH",
"669 89 OFFCURVE",
"660 79 OFFCURVE",
"621 79 CURVE SMOOTH",
"473 79 LINE",
"473 714 LINE",
"383 714 LINE",
"383 79 LINE",
"236 79 LINE SMOOTH",
"197 79 OFFCURVE",
"188 89 OFFCURVE",
"188 128 CURVE SMOOTH",
"188 714 LINE",
"98 714 LINE",
"98 98 LINE SMOOTH",
"98 20 OFFCURVE",
"117 0 OFFCURVE",
"195 0 CURVE SMOOTH"
);
}
);
width = 857;
}
);
unicode = 2C1E;
},
{
glyphname = uni2C1F;
lastChange = "2017-04-18 13:24:41 +0000";
layers = (
{
layerId = UUID0;
paths = (
{
closed = 1;
nodes = (
"664 0 LINE",
"664 178 LINE SMOOTH",
"664 251 OFFCURVE",
"649 322 OFFCURVE",
"603 364 CURVE",
"649 404 OFFCURVE",
"664 472 OFFCURVE",
"664 546 CURVE SMOOTH",
"664 714 LINE",
"299 714 LINE",
"299 546 LINE SMOOTH",
"299 500 OFFCURVE",
"304 452 OFFCURVE",
"323 413 CURVE",
"142 413 LINE SMOOTH",
"80 413 OFFCURVE",
"29 363 OFFCURVE",
"29 301 CURVE SMOOTH",
"29 239 OFFCURVE",
"80 188 OFFCURVE",
"142 188 CURVE SMOOTH",
"205 188 OFFCURVE",
"255 239 OFFCURVE",
"255 301 CURVE SMOOTH",
"255 312 OFFCURVE",
"253 323 OFFCURVE",
"250 334 CURVE",
"334 334 LINE",
"306 290 OFFCURVE",
"299 231 OFFCURVE",
"299 178 CURVE SMOOTH",
"299 0 LINE"
);
},
{
closed = 1;
nodes = (
"115 251 OFFCURVE",
"93 273 OFFCURVE",
"93 301 CURVE SMOOTH",
"93 327 OFFCURVE",
"114 350 OFFCURVE",
"140 350 CURVE SMOOTH",
"171 350 OFFCURVE",
"191 327 OFFCURVE",
"191 301 CURVE SMOOTH",
"191 273 OFFCURVE",
"169 251 OFFCURVE",
"142 251 CURVE SMOOTH"
);
},
{
closed = 1;
nodes = (
"389 178 LINE SMOOTH",
"389 275 OFFCURVE",
"401 326 OFFCURVE",
"481 326 CURVE SMOOTH",
"563 326 OFFCURVE",
"574 274 OFFCURVE",
"574 178 CURVE SMOOTH",
"574 79 LINE",
"389 79 LINE"
);
},
{
closed = 1;
nodes = (
"401 405 OFFCURVE",
"389 448 OFFCURVE",
"389 546 CURVE SMOOTH",
"389 635 LINE",
"574 635 LINE",
"574 546 LINE SMOOTH",
"574 449 OFFCURVE",
"563 405 OFFCURVE",
"481 405 CURVE SMOOTH"
);
}
);
width = 742;
}
);
unicode = 2C1F;
},
{
glyphname = uni2C20;
lastChange = "2017-04-18 13:24:41 +0000";
layers = (
{
layerId = UUID0;
paths = (
{
closed = 1;
nodes = (
"621 0 LINE",
"621 178 LINE SMOOTH",
"621 251 OFFCURVE",
"606 322 OFFCURVE",
"560 364 CURVE",
"606 404 OFFCURVE",
"621 472 OFFCURVE",
"621 546 CURVE SMOOTH",
"621 714 LINE",
"256 714 LINE",
"256 546 LINE SMOOTH",
"256 500 OFFCURVE",
"261 452 OFFCURVE",
"280 413 CURVE",
"118 413 LINE SMOOTH",
"69 413 OFFCURVE",
"29 369 OFFCURVE",
"29 313 CURVE SMOOTH",
"29 257 OFFCURVE",
"69 212 OFFCURVE",
"118 212 CURVE SMOOTH",
"167 212 OFFCURVE",
"207 257 OFFCURVE",
"207 313 CURVE SMOOTH",
"207 320 OFFCURVE",
"206 327 OFFCURVE",
"205 334 CURVE",
"292 334 LINE",
"263 290 OFFCURVE",
"256 231 OFFCURVE",
"256 178 CURVE SMOOTH",
"256 0 LINE"
);
},
{
closed = 1;
nodes = (
"346 178 LINE SMOOTH",
"346 275 OFFCURVE",
"358 326 OFFCURVE",
"438 326 CURVE SMOOTH",
"520 326 OFFCURVE",
"531 274 OFFCURVE",
"531 178 CURVE SMOOTH",
"531 79 LINE",
"346 79 LINE"
);
},
{
closed = 1;
nodes = (
"358 405 OFFCURVE",
"346 448 OFFCURVE",
"346 546 CURVE SMOOTH",
"346 635 LINE",
"531 635 LINE",
"531 546 LINE SMOOTH",
"531 449 OFFCURVE",
"520 405 OFFCURVE",
"438 405 CURVE SMOOTH"
);
}
);
width = 699;
}
);
unicode = 2C20;
},
{
glyphname = uni2C21;
lastChange = "2017-04-18 13:24:41 +0000";
layers = (
{
layerId = UUID0;
paths = (
{
closed = 1;
nodes = (
"887 0 LINE",
"582 655 LINE SMOOTH",
"565 692 OFFCURVE",
"550 714 OFFCURVE",
"515 714 CURVE SMOOTH",
"420 714 LINE SMOOTH",
"386 714 OFFCURVE",
"371 692 OFFCURVE",
"354 655 CURVE SMOOTH",
"49 0 LINE"
);
},
{
closed = 1;
nodes = (
"278 302 LINE",
"425 302 LINE",
"425 79 LINE",
"175 79 LINE"
);
},
{
closed = 1;
nodes = (
"516 302 LINE",
"657 302 LINE",
"761 79 LINE",
"516 79 LINE"
);
},
{
closed = 1;
nodes = (
"417 601 LINE SMOOTH",
"425 618 OFFCURVE",
"433 635 OFFCURVE",
"456 635 CURVE SMOOTH",
"479 635 LINE SMOOTH",
"502 635 OFFCURVE",
"511 618 OFFCURVE",
"519 601 CURVE SMOOTH",
"621 381 LINE",
"315 381 LINE"
);
}
);
width = 936;
}
);
unicode = 2C21;
},
{
glyphname = uni2C22;
lastChange = "2017-04-18 13:24:41 +0000";
layers = (
{
layerId = UUID0;
paths = (
{
closed = 1;
nodes = (
"535 -34 LINE",
"535 55 LINE",
"563 68 OFFCURVE",
"589 86 OFFCURVE",
"611 107 CURVE",
"611 -34 LINE",
"686 -34 LINE",
"686 222 LINE",
"702 264 OFFCURVE",
"709 309 OFFCURVE",
"709 356 CURVE SMOOTH",
"709 547 OFFCURVE",
"598 687 OFFCURVE",
"390 687 CURVE SMOOTH",
"371 687 OFFCURVE",
"354 686 OFFCURVE",
"336 683 CURVE",
"336 746 LINE",
"261 746 LINE",
"261 665 LINE",
"232 654 OFFCURVE",
"207 640 OFFCURVE",
"185 623 CURVE",
"185 746 LINE",
"110 746 LINE",
"110 533 LINE",
"82 481 OFFCURVE",
"68 420 OFFCURVE",
"68 357 CURVE SMOOTH",
"68 167 OFFCURVE",
"172 24 OFFCURVE",
"389 24 CURVE SMOOTH",
"414 24 OFFCURVE",
"438 27 OFFCURVE",
"459 31 CURVE",
"459 -34 LINE"
);
},
{
closed = 1;
nodes = (
"233 102 OFFCURVE",
"163 204 OFFCURVE",
"163 356 CURVE SMOOTH",
"163 508 OFFCURVE",
"233 608 OFFCURVE",
"390 608 CURVE SMOOTH",
"547 608 OFFCURVE",
"614 508 OFFCURVE",
"614 356 CURVE SMOOTH",
"614 204 OFFCURVE",
"547 102 OFFCURVE",
"389 102 CURVE SMOOTH"
);
}
);
width = 778;
}
);
unicode = 2C22;
},
{
glyphname = uni2C23;
lastChange = "2017-04-18 13:24:41 +0000";
layers = (
{
layerId = UUID0;
paths = (
{
closed = 1;
nodes = (
"721 125 LINE",
"757 137 OFFCURVE",
"759 176 OFFCURVE",
"759 233 CURVE SMOOTH",
"759 616 LINE SMOOTH",
"759 694 OFFCURVE",
"740 714 OFFCURVE",
"662 714 CURVE SMOOTH",
"195 714 LINE SMOOTH",
"117 714 OFFCURVE",
"98 694 OFFCURVE",
"98 616 CURVE SMOOTH",
"98 -82 LINE"
);
},
{
closed = 1;
nodes = (
"188 586 LINE SMOOTH",
"188 625 OFFCURVE",
"197 635 OFFCURVE",
"236 635 CURVE SMOOTH",
"383 635 LINE",
"383 98 LINE",
"188 33 LINE"
);
},
{
closed = 1;
nodes = (
"473 635 LINE",
"621 635 LINE SMOOTH",
"660 635 OFFCURVE",
"669 625 OFFCURVE",
"669 586 CURVE SMOOTH",
"669 229 LINE SMOOTH",
"669 206 OFFCURVE",
"660 190 OFFCURVE",
"637 182 CURVE SMOOTH",
"473 128 LINE"
);
}
);
width = 857;
}
);
unicode = 2C23;
},
{
glyphname = uni2C24;
lastChange = "2017-04-18 13:24:41 +0000";
layers = (
{
layerId = UUID0;
paths = (
{
closed = 1;
nodes = (
"565 -10 OFFCURVE",
"616 -1 OFFCURVE",
"672 19 CURVE",
"672 97 LINE",
"616 82 OFFCURVE",
"560 69 OFFCURVE",
"496 69 CURVE SMOOTH",
"324 69 OFFCURVE",
"237 163 OFFCURVE",
"232 334 CURVE",
"579 334 LINE",
"579 413 LINE",
"233 413 LINE",
"246 559 OFFCURVE",
"338 645 OFFCURVE",
"476 645 CURVE SMOOTH",
"543 645 OFFCURVE",
"597 627 OFFCURVE",
"641 607 CURVE",
"678 682 LINE",
"623 709 OFFCURVE",
"550 724 OFFCURVE",
"475 724 CURVE SMOOTH",
"263 724 OFFCURVE",
"154 594 OFFCURVE",
"139 413 CURVE",
"20 413 LINE",
"20 334 LINE",
"138 334 LINE",
"149 122 OFFCURVE",
"262 -10 OFFCURVE",
"482 -10 CURVE SMOOTH"
);
}
);
width = 727;
}
);
unicode = 2C24;
},
{
glyphname = uni2C25;
lastChange = "2017-04-18 13:24:41 +0000";
layers = (
{
layerId = UUID0;
paths = (
{
closed = 1;
nodes = (
"688 -10 OFFCURVE",
"739 -1 OFFCURVE",
"794 19 CURVE",
"794 97 LINE",
"739 82 OFFCURVE",
"683 69 OFFCURVE",
"619 69 CURVE SMOOTH",
"447 69 OFFCURVE",
"359 163 OFFCURVE",
"354 334 CURVE",
"702 334 LINE",
"702 413 LINE",
"355 413 LINE",
"369 559 OFFCURVE",
"460 645 OFFCURVE",
"599 645 CURVE SMOOTH",
"666 645 OFFCURVE",
"720 627 OFFCURVE",
"764 607 CURVE",
"801 682 LINE",
"746 709 OFFCURVE",
"672 724 OFFCURVE",
"598 724 CURVE SMOOTH",
"385 724 OFFCURVE",
"276 594 OFFCURVE",
"262 413 CURVE",
"118 413 LINE SMOOTH",
"69 413 OFFCURVE",
"29 369 OFFCURVE",
"29 313 CURVE SMOOTH",
"29 257 OFFCURVE",
"69 212 OFFCURVE",
"118 212 CURVE SMOOTH",
"167 212 OFFCURVE",
"207 257 OFFCURVE",
"207 313 CURVE SMOOTH",
"207 320 OFFCURVE",
"206 327 OFFCURVE",
"205 334 CURVE",
"260 334 LINE",
"271 122 OFFCURVE",
"384 -10 OFFCURVE",
"604 -10 CURVE SMOOTH"
);
}
);
width = 850;
}
);
unicode = 2C25;
},
{
glyphname = uni2C26;
lastChange = "2017-04-18 13:24:41 +0000";
layers = (
{
layerId = UUID0;
paths = (
{
closed = 1;
nodes = (
"613 0 LINE",
"613 169 LINE SMOOTH",
"613 233 OFFCURVE",
"601 293 OFFCURVE",
"567 334 CURVE",
"811 334 LINE",
"612 714 LINE",
"248 714 LINE",
"49 334 LINE",
"292 334 LINE",
"256 291 OFFCURVE",
"248 228 OFFCURVE",
"248 169 CURVE SMOOTH",
"248 0 LINE"
);
},
{
closed = 1;
nodes = (
"337 169 LINE SMOOTH",
"337 267 OFFCURVE",
"350 310 OFFCURVE",
"430 310 CURVE SMOOTH",
"511 310 OFFCURVE",
"523 266 OFFCURVE",
"523 169 CURVE SMOOTH",
"523 79 LINE",
"337 79 LINE"
);
},
{
closed = 1;
nodes = (
"295 635 LINE",
"385 635 LINE",
"385 413 LINE",
"177 413 LINE"
);
},
{
closed = 1;
nodes = (
"475 635 LINE",
"564 635 LINE",
"683 413 LINE",
"475 413 LINE"
);
}
);
width = 860;
}
);
unicode = 2C26;
},
{
glyphname = uni2C27;
lastChange = "2017-04-18 13:24:41 +0000";
layers = (
{
layerId = UUID0;
paths = (
{
closed = 1;
nodes = (
"380 -10 OFFCURVE",
"451 134 OFFCURVE",
"458 334 CURVE",
"571 334 LINE",
"579 134 OFFCURVE",
"650 -10 OFFCURVE",
"833 -10 CURVE SMOOTH",
"892 -10 OFFCURVE",
"938 0 OFFCURVE",
"979 13 CURVE",
"979 93 LINE",
"938 81 OFFCURVE",
"892 69 OFFCURVE",
"847 69 CURVE SMOOTH",
"728 69 OFFCURVE",
"666 163 OFFCURVE",
"666 334 CURVE",
"891 334 LINE",
"891 413 LINE",
"667 413 LINE",
"670 559 OFFCURVE",
"735 645 OFFCURVE",
"825 645 CURVE SMOOTH",
"875 645 OFFCURVE",
"914 633 OFFCURVE",
"947 610 CURVE",
"981 684 LINE",
"936 711 OFFCURVE",
"893 724 OFFCURVE",
"824 724 CURVE SMOOTH",
"649 724 OFFCURVE",
"582 580 OFFCURVE",
"572 413 CURVE",
"458 413 LINE",
"448 580 OFFCURVE",
"381 724 OFFCURVE",
"207 724 CURVE SMOOTH",
"137 724 OFFCURVE",
"94 711 OFFCURVE",
"49 684 CURVE",
"83 610 LINE",
"116 633 OFFCURVE",
"155 645 OFFCURVE",
"206 645 CURVE SMOOTH",
"295 645 OFFCURVE",
"360 559 OFFCURVE",
"364 413 CURVE",
"140 413 LINE",
"140 334 LINE",
"365 334 LINE",
"365 163 OFFCURVE",
"302 69 OFFCURVE",
"184 69 CURVE SMOOTH",
"138 69 OFFCURVE",
"92 81 OFFCURVE",
"52 93 CURVE",
"52 13 LINE",
"92 0 OFFCURVE",
"138 -10 OFFCURVE",
"198 -10 CURVE SMOOTH"
);
}
);
width = 1030;
}
);
unicode = 2C27;
},
{
glyphname = uni2C28;
lastChange = "2017-04-18 13:24:41 +0000";
layers = (
{
layerId = UUID0;
paths = (
{
closed = 1;
nodes = (
"902 -10 OFFCURVE",
"948 0 OFFCURVE",
"988 13 CURVE",
"988 93 LINE",
"948 81 OFFCURVE",
"902 69 OFFCURVE",
"856 69 CURVE SMOOTH",
"738 69 OFFCURVE",
"675 163 OFFCURVE",
"675 334 CURVE",
"900 334 LINE",
"900 413 LINE",
"676 413 LINE",
"680 559 OFFCURVE",
"745 645 OFFCURVE",
"834 645 CURVE SMOOTH",
"885 645 OFFCURVE",
"924 633 OFFCURVE",
"957 610 CURVE",
"991 684 LINE",
"946 711 OFFCURVE",
"903 724 OFFCURVE",
"833 724 CURVE SMOOTH",
"659 724 OFFCURVE",
"591 580 OFFCURVE",
"582 413 CURVE",
"481 413 LINE",
"481 616 LINE SMOOTH",
"481 699 OFFCURVE",
"467 714 OFFCURVE",
"384 714 CURVE SMOOTH",
"189 714 LINE SMOOTH",
"89 714 OFFCURVE",
"78 637 OFFCURVE",
"78 575 CURVE SMOOTH",
"78 477 OFFCURVE",
"133 407 OFFCURVE",
"218 368 CURVE",
"133 320 OFFCURVE",
"78 237 OFFCURVE",
"78 139 CURVE SMOOTH",
"78 77 OFFCURVE",
"89 0 OFFCURVE",
"189 0 CURVE SMOOTH",
"384 0 LINE SMOOTH",
"467 0 OFFCURVE",
"481 15 OFFCURVE",
"481 98 CURVE SMOOTH",
"481 334 LINE",
"581 334 LINE",
"588 134 OFFCURVE",
"660 -10 OFFCURVE",
"842 -10 CURVE SMOOTH"
);
},
{
closed = 1;
nodes = (
"173 79 OFFCURVE",
"168 107 OFFCURVE",
"168 155 CURVE SMOOTH",
"168 246 OFFCURVE",
"261 333 OFFCURVE",
"392 334 CURVE",
"392 121 LINE SMOOTH",
"392 95 OFFCURVE",
"382 79 OFFCURVE",
"355 79 CURVE SMOOTH",
"220 79 LINE SMOOTH"
);
},
{
closed = 1;
nodes = (
"261 414 OFFCURVE",
"168 468 OFFCURVE",
"168 559 CURVE SMOOTH",
"168 606 OFFCURVE",
"173 635 OFFCURVE",
"220 635 CURVE SMOOTH",
"355 635 LINE SMOOTH",
"382 635 OFFCURVE",
"392 618 OFFCURVE",
"392 592 CURVE SMOOTH",
"392 413 LINE"
);
}
);
width = 1040;
}
);
unicode = 2C28;
},
{
glyphname = uni2C29;
lastChange = "2017-04-18 13:24:41 +0000";
layers = (
{
layerId = UUID0;
paths = (
{
closed = 1;
nodes = (
"1166 -10 OFFCURVE",
"1211 0 OFFCURVE",
"1252 13 CURVE",
"1252 93 LINE",
"1211 81 OFFCURVE",
"1166 69 OFFCURVE",
"1120 69 CURVE SMOOTH",
"1001 69 OFFCURVE",
"939 163 OFFCURVE",
"939 334 CURVE",
"1164 334 LINE",
"1164 413 LINE",
"940 413 LINE",
"943 559 OFFCURVE",
"1009 645 OFFCURVE",
"1098 645 CURVE SMOOTH",
"1148 645 OFFCURVE",
"1188 633 OFFCURVE",
"1221 610 CURVE",
"1255 684 LINE",
"1209 711 OFFCURVE",
"1167 724 OFFCURVE",
"1097 724 CURVE SMOOTH",
"922 724 OFFCURVE",
"855 580 OFFCURVE",
"845 413 CURVE",
"770 413 LINE",
"612 714 LINE",
"248 714 LINE",
"49 334 LINE",
"292 334 LINE",
"256 291 OFFCURVE",
"248 228 OFFCURVE",
"248 169 CURVE SMOOTH",
"248 0 LINE",
"613 0 LINE",
"613 169 LINE SMOOTH",
"613 233 OFFCURVE",
"601 293 OFFCURVE",
"567 334 CURVE",
"845 334 LINE",
"852 134 OFFCURVE",
"923 -10 OFFCURVE",
"1106 -10 CURVE SMOOTH"
);
},
{
closed = 1;
nodes = (
"337 169 LINE SMOOTH",
"337 267 OFFCURVE",
"350 310 OFFCURVE",
"430 310 CURVE SMOOTH",
"511 310 OFFCURVE",
"523 266 OFFCURVE",
"523 169 CURVE SMOOTH",
"523 79 LINE",
"337 79 LINE"
);
},
{
closed = 1;
nodes = (
"295 635 LINE",
"385 635 LINE",
"385 413 LINE",
"177 413 LINE"
);
},
{
closed = 1;
nodes = (
"475 635 LINE",
"564 635 LINE",
"683 413 LINE",
"475 413 LINE"
);
}
);
width = 1304;
}
);
unicode = 2C29;
},
{
glyphname = uni2C2A;
lastChange = "2017-04-18 13:24:41 +0000";
layers = (
{
layerId = UUID0;
paths = (
{
closed = 1;
nodes = (
"628 -10 OFFCURVE",
"709 126 OFFCURVE",
"714 334 CURVE",
"729 334 LINE SMOOTH",
"769 334 OFFCURVE",
"778 324 OFFCURVE",
"778 285 CURVE SMOOTH",
"778 266 LINE",
"858 266 LINE",
"858 306 LINE SMOOTH",
"858 384 OFFCURVE",
"839 413 OFFCURVE",
"761 413 CURVE SMOOTH",
"713 413 LINE",
"700 604 OFFCURVE",
"621 725 OFFCURVE",
"470 725 CURVE SMOOTH",
"309 725 OFFCURVE",
"235 602 OFFCURVE",
"223 413 CURVE",
"166 413 LINE SMOOTH",
"88 413 OFFCURVE",
"68 384 OFFCURVE",
"68 306 CURVE SMOOTH",
"68 266 LINE",
"158 266 LINE",
"158 285 LINE SMOOTH",
"158 324 OFFCURVE",
"168 334 OFFCURVE",
"207 334 CURVE SMOOTH",
"222 334 LINE",
"228 127 OFFCURVE",
"301 -10 OFFCURVE",
"469 -10 CURVE SMOOTH"
);
},
{
closed = 1;
nodes = (
"361 68 OFFCURVE",
"316 168 OFFCURVE",
"313 334 CURVE",
"624 334 LINE",
"620 168 OFFCURVE",
"577 68 OFFCURVE",
"469 68 CURVE SMOOTH"
);
},
{
closed = 1;
nodes = (
"323 560 OFFCURVE",
"369 646 OFFCURVE",
"470 646 CURVE SMOOTH",
"570 646 OFFCURVE",
"614 560 OFFCURVE",
"623 413 CURVE",
"314 413 LINE"
);
}
);
width = 927;
}
);
unicode = 2C2A;
},
{
glyphname = uni2C2B;
lastChange = "2017-04-18 13:24:41 +0000";
layers = (
{
layerId = UUID0;
paths = (
{
closed = 1;
nodes = (
"434 0 LINE",
"434 114 LINE SMOOTH",
"434 158 OFFCURVE",
"421 198 OFFCURVE",
"376 241 CURVE",
"408 267 OFFCURVE",
"425 302 OFFCURVE",
"430 334 CURVE",
"562 334 LINE",
"562 413 LINE",
"419 413 LINE",
"410 434 OFFCURVE",
"396 455 OFFCURVE",
"375 472 CURVE",
"418 510 OFFCURVE",
"434 555 OFFCURVE",
"434 600 CURVE SMOOTH",
"434 714 LINE",
"78 714 LINE",
"78 600 LINE SMOOTH",
"78 551 OFFCURVE",
"90 508 OFFCURVE",
"131 472 CURVE",
"94 441 OFFCURVE",
"79 397 OFFCURVE",
"79 357 CURVE SMOOTH",
"79 316 OFFCURVE",
"94 272 OFFCURVE",
"131 242 CURVE",
"90 206 OFFCURVE",
"78 163 OFFCURVE",
"78 114 CURVE SMOOTH",
"78 0 LINE"
);
},
{
closed = 1;
nodes = (
"168 114 LINE SMOOTH",
"168 147 OFFCURVE",
"180 204 OFFCURVE",
"256 204 CURVE SMOOTH",
"331 204 OFFCURVE",
"344 148 OFFCURVE",
"344 114 CURVE SMOOTH",
"344 79 LINE",
"168 79 LINE"
);
},
{
closed = 1;
nodes = (
"188 283 OFFCURVE",
"169 328 OFFCURVE",
"169 357 CURVE SMOOTH",
"169 386 OFFCURVE",
"188 431 OFFCURVE",
"256 431 CURVE SMOOTH",
"322 431 OFFCURVE",
"343 386 OFFCURVE",
"343 357 CURVE SMOOTH",
"343 327 OFFCURVE",
"322 283 OFFCURVE",
"256 283 CURVE SMOOTH"
);
},
{
closed = 1;
nodes = (
"180 510 OFFCURVE",
"168 566 OFFCURVE",
"168 600 CURVE SMOOTH",
"168 635 LINE",
"344 635 LINE",
"344 600 LINE SMOOTH",
"344 565 OFFCURVE",
"331 510 OFFCURVE",
"256 510 CURVE SMOOTH"
);
}
);
width = 601;
}
);
unicode = 2C2B;
},
{
glyphname = uni2C2C;
lastChange = "2017-04-18 13:24:41 +0000";
layers = (
{
layerId = UUID0;
paths = (
{
closed = 1;
nodes = (
"271 0 LINE",
"271 714 LINE",
"49 714 LINE",
"49 635 LINE",
"181 635 LINE",
"181 0 LINE"
);
}
);
width = 388;
}
);
unicode = 2C2C;
},
{
glyphname = uni2C2D;
lastChange = "2017-04-18 13:24:41 +0000";
layers = (
{
layerId = UUID0;
paths = (
{
closed = 1;
nodes = (
"675 0 LINE",
"675 714 LINE",
"585 714 LINE",
"585 419 LINE",
"78 675 LINE",
"78 41 LINE",
"585 292 LINE",
"585 0 LINE"
);
},
{
closed = 1;
nodes = (
"163 315 LINE",
"469 315 LINE",
"163 171 LINE"
);
},
{
closed = 1;
nodes = (
"163 544 LINE",
"469 395 LINE",
"163 395 LINE"
);
}
);
width = 792;
}
);
unicode = 2C2D;
},
{
glyphname = uni2C2E;
lastChange = "2017-04-18 13:24:41 +0000";
layers = (
{
layerId = UUID0;
paths = (
{
closed = 1;
nodes = (
"319 -10 OFFCURVE",
"355 49 OFFCURVE",
"355 110 CURVE SMOOTH",
"355 249 OFFCURVE",
"220 278 OFFCURVE",
"220 444 CURVE SMOOTH",
"220 521 OFFCURVE",
"255 632 OFFCURVE",
"450 646 CURVE",
"450 0 LINE",
"540 0 LINE",
"540 646 LINE",
"734 632 OFFCURVE",
"770 521 OFFCURVE",
"770 444 CURVE SMOOTH",
"770 278 OFFCURVE",
"634 237 OFFCURVE",
"634 113 CURVE SMOOTH",
"634 57 OFFCURVE",
"670 -10 OFFCURVE",
"779 -10 CURVE SMOOTH",
"901 -10 OFFCURVE",
"935 69 OFFCURVE",
"940 126 CURVE",
"854 141 LINE",
"847 106 OFFCURVE",
"829 69 OFFCURVE",
"783 69 CURVE SMOOTH",
"740 69 OFFCURVE",
"725 96 OFFCURVE",
"725 125 CURVE SMOOTH",
"725 209 OFFCURVE",
"860 270 OFFCURVE",
"860 444 CURVE SMOOTH",
"860 568 OFFCURVE",
"775 725 OFFCURVE",
"495 725 CURVE SMOOTH",
"214 725 OFFCURVE",
"129 568 OFFCURVE",
"129 444 CURVE SMOOTH",
"129 270 OFFCURVE",
"264 209 OFFCURVE",
"264 125 CURVE SMOOTH",
"264 96 OFFCURVE",
"250 70 OFFCURVE",
"206 70 CURVE SMOOTH",
"161 70 OFFCURVE",
"143 106 OFFCURVE",
"135 141 CURVE",
"49 126 LINE",
"55 69 OFFCURVE",
"83 -10 OFFCURVE",
"210 -10 CURVE SMOOTH"
);
}
);
width = 989;
}
);
unicode = 2C2E;
},
{
glyphname = uni2C30;
lastChange = "2017-04-18 13:24:41 +0000";
layers = (
{
layerId = UUID0;
paths = (
{
closed = 1;
nodes = (
"154 0 LINE",
"154 203 LINE SMOOTH",
"154 232 OFFCURVE",
"159 242 OFFCURVE",
"188 242 CURVE SMOOTH",
"311 242 LINE",
"311 0 LINE",
"396 0 LINE",
"396 242 LINE",
"519 242 LINE SMOOTH",
"548 242 OFFCURVE",
"553 232 OFFCURVE",
"553 203 CURVE SMOOTH",
"553 0 LINE",
"639 0 LINE",
"639 225 LINE SMOOTH",
"639 283 OFFCURVE",
"635 313 OFFCURVE",
"571 313 CURVE SMOOTH",
"396 313 LINE",
"396 536 LINE",
"311 536 LINE",
"311 313 LINE",
"136 313 LINE SMOOTH",
"72 313 OFFCURVE",
"68 283 OFFCURVE",
"68 225 CURVE SMOOTH",
"68 0 LINE"
);
}
);
width = 707;
}
);
unicode = 2C30;
},
{
glyphname = uni2C31;
lastChange = "2017-04-18 13:24:41 +0000";
layers = (
{
layerId = UUID0;
paths = (
{
closed = 1;
nodes = (
"646 0 LINE",
"646 71 LINE",
"208 71 LINE SMOOTH",
"188 71 OFFCURVE",
"174 71 OFFCURVE",
"174 110 CURVE SMOOTH",
"174 208 LINE",
"583 249 LINE SMOOTH",
"655 256 OFFCURVE",
"658 271 OFFCURVE",
"658 324 CURVE SMOOTH",
"658 536 LINE",
"572 536 LINE",
"572 354 LINE SMOOTH",
"572 324 OFFCURVE",
"568 315 OFFCURVE",
"540 313 CURVE SMOOTH",
"416 302 LINE",
"416 536 LINE",
"330 536 LINE",
"330 294 LINE",
"174 280 LINE",
"174 536 LINE",
"88 536 LINE",
"88 88 LINE SMOOTH",
"88 20 OFFCURVE",
"97 0 OFFCURVE",
"155 0 CURVE SMOOTH"
);
}
);
width = 727;
}
);
unicode = 2C31;
},
{
glyphname = uni2C32;
lastChange = "2017-04-18 13:24:41 +0000";
layers = (
{
layerId = UUID0;
paths = (
{
closed = 1;
nodes = (
"765 0 LINE SMOOTH",
"823 0 OFFCURVE",
"832 24 OFFCURVE",
"832 88 CURVE SMOOTH",
"832 448 LINE SMOOTH",
"832 512 OFFCURVE",
"823 536 OFFCURVE",
"765 536 CURVE SMOOTH",
"581 536 LINE SMOOTH",
"522 536 OFFCURVE",
"514 512 OFFCURVE",
"514 448 CURVE SMOOTH",
"514 71 LINE",
"406 71 LINE",
"406 448 LINE SMOOTH",
"406 512 OFFCURVE",
"397 536 OFFCURVE",
"339 536 CURVE SMOOTH",
"155 536 LINE SMOOTH",
"97 536 OFFCURVE",
"88 512 OFFCURVE",
"88 448 CURVE SMOOTH",
"88 88 LINE SMOOTH",
"88 24 OFFCURVE",
"97 0 OFFCURVE",
"155 0 CURVE SMOOTH"
);
},
{
closed = 1;
nodes = (
"184 71 OFFCURVE",
"174 76 OFFCURVE",
"174 110 CURVE SMOOTH",
"174 426 LINE SMOOTH",
"174 460 OFFCURVE",
"184 465 OFFCURVE",
"208 465 CURVE SMOOTH",
"286 465 LINE SMOOTH",
"311 465 OFFCURVE",
"320 460 OFFCURVE",
"320 426 CURVE SMOOTH",
"320 71 LINE",
"208 71 LINE SMOOTH"
);
},
{
closed = 1;
nodes = (
"600 426 LINE SMOOTH",
"600 460 OFFCURVE",
"609 465 OFFCURVE",
"634 465 CURVE SMOOTH",
"712 465 LINE SMOOTH",
"736 465 OFFCURVE",
"746 460 OFFCURVE",
"746 426 CURVE SMOOTH",
"746 110 LINE SMOOTH",
"746 76 OFFCURVE",
"736 71 OFFCURVE",
"712 71 CURVE SMOOTH",
"600 71 LINE"
);
}
);
width = 920;
}
);
unicode = 2C32;
},
{
glyphname = uni2C33;
lastChange = "2017-04-18 13:24:41 +0000";
layers = (
{
layerId = UUID0;
paths = (
{
closed = 1;
nodes = (
"237 0 LINE",
"312 194 LINE",
"417 194 LINE",
"417 88 LINE SMOOTH",
"417 24 OFFCURVE",
"425 0 OFFCURVE",
"484 0 CURVE SMOOTH",
"730 0 LINE",
"730 225 LINE SMOOTH",
"730 288 OFFCURVE",
"721 313 OFFCURVE",
"663 313 CURVE SMOOTH",
"484 313 LINE SMOOTH",
"439 313 OFFCURVE",
"424 298 OFFCURVE",
"418 265 CURVE",
"339 265 LINE",
"443 536 LINE",
"109 536 LINE SMOOTH",
"89 536 OFFCURVE",
"68 527 OFFCURVE",
"68 500 CURVE SMOOTH",
"68 427 LINE SMOOTH",
"68 325 OFFCURVE",
"125 233 OFFCURVE",
"234 203 CURVE",
"156 0 LINE"
);
},
{
closed = 1;
nodes = (
"180 292 OFFCURVE",
"154 351 OFFCURVE",
"154 424 CURVE SMOOTH",
"154 457 OFFCURVE",
"158 465 OFFCURVE",
"184 465 CURVE SMOOTH",
"335 465 LINE",
"261 272 LINE"
);
},
{
closed = 1;
nodes = (
"512 71 OFFCURVE",
"502 76 OFFCURVE",
"502 110 CURVE SMOOTH",
"502 203 LINE SMOOTH",
"502 237 OFFCURVE",
"512 242 OFFCURVE",
"537 242 CURVE SMOOTH",
"610 242 LINE SMOOTH",
"634 242 OFFCURVE",
"644 237 OFFCURVE",
"644 203 CURVE SMOOTH",
"644 71 LINE",
"537 71 LINE SMOOTH"
);
}
);
width = 798;
}
);
unicode = 2C33;
},
{
glyphname = uni2C34;
lastChange = "2017-04-18 13:24:41 +0000";
layers = (
{
layerId = UUID0;
paths = (
{
closed = 1;
nodes = (
"309 0 LINE SMOOTH",
"387 0 OFFCURVE",
"406 24 OFFCURVE",
"406 98 CURVE SMOOTH",
"406 465 LINE",
"479 465 LINE SMOOTH",
"504 465 OFFCURVE",
"514 460 OFFCURVE",
"514 426 CURVE SMOOTH",
"514 88 LINE SMOOTH",
"514 24 OFFCURVE",
"522 0 OFFCURVE",
"581 0 CURVE SMOOTH",
"760 0 LINE SMOOTH",
"818 0 OFFCURVE",
"827 24 OFFCURVE",
"827 88 CURVE SMOOTH",
"827 244 LINE SMOOTH",
"827 308 OFFCURVE",
"818 332 OFFCURVE",
"760 332 CURVE SMOOTH",
"600 332 LINE",
"600 448 LINE SMOOTH",
"600 512 OFFCURVE",
"591 536 OFFCURVE",
"532 536 CURVE SMOOTH",
"186 536 LINE SMOOTH",
"107 536 OFFCURVE",
"88 512 OFFCURVE",
"88 438 CURVE SMOOTH",
"88 98 LINE SMOOTH",
"88 26 OFFCURVE",
"107 0 OFFCURVE",
"186 0 CURVE SMOOTH"
);
},
{
closed = 1;
nodes = (
"184 71 OFFCURVE",
"174 81 OFFCURVE",
"174 120 CURVE SMOOTH",
"174 417 LINE SMOOTH",
"174 456 OFFCURVE",
"184 465 OFFCURVE",
"223 465 CURVE SMOOTH",
"320 465 LINE",
"320 120 LINE SMOOTH",
"320 81 OFFCURVE",
"311 71 OFFCURVE",
"271 71 CURVE SMOOTH",
"223 71 LINE SMOOTH"
);
},
{
closed = 1;
nodes = (
"609 71 OFFCURVE",
"600 76 OFFCURVE",
"600 110 CURVE SMOOTH",
"600 261 LINE",
"707 261 LINE SMOOTH",
"731 261 OFFCURVE",
"741 256 OFFCURVE",
"741 222 CURVE SMOOTH",
"741 110 LINE SMOOTH",
"741 76 OFFCURVE",
"731 71 OFFCURVE",
"707 71 CURVE SMOOTH",
"634 71 LINE SMOOTH"
);
}
);
width = 896;
}
);
unicode = 2C34;
},
{
glyphname = uni2C35;
lastChange = "2017-04-18 13:24:41 +0000";
layers = (
{
layerId = UUID0;
paths = (
{
closed = 1;
nodes = (
"337 -10 OFFCURVE",
"449 77 OFFCURVE",
"449 268 CURVE SMOOTH",
"449 467 OFFCURVE",
"344 546 OFFCURVE",
"194 546 CURVE SMOOTH",
"140 546 OFFCURVE",
"83 532 OFFCURVE",
"45 515 CURVE",
"70 444 LINE",
"106 457 OFFCURVE",
"156 470 OFFCURVE",
"195 470 CURVE SMOOTH",
"296 470 OFFCURVE",
"348 421 OFFCURVE",
"357 313 CURVE",
"94 313 LINE",
"94 241 LINE",
"358 241 LINE",
"351 120 OFFCURVE",
"287 65 OFFCURVE",
"183 65 CURVE SMOOTH",
"124 65 OFFCURVE",
"79 79 OFFCURVE",
"39 95 CURVE",
"39 19 LINE",
"78 0 OFFCURVE",
"120 -10 OFFCURVE",
"181 -10 CURVE SMOOTH"
);
}
);
width = 508;
}
);
unicode = 2C35;
},
{
glyphname = uni2C36;
lastChange = "2017-04-18 13:24:41 +0000";
layers = (
{
layerId = UUID0;
paths = (
{
closed = 1;
nodes = (
"339 0 LINE SMOOTH",
"397 0 OFFCURVE",
"406 24 OFFCURVE",
"406 88 CURVE SMOOTH",
"406 465 LINE",
"514 465 LINE",
"514 88 LINE SMOOTH",
"514 24 OFFCURVE",
"522 0 OFFCURVE",
"581 0 CURVE SMOOTH",
"765 0 LINE SMOOTH",
"823 0 OFFCURVE",
"832 24 OFFCURVE",
"832 88 CURVE SMOOTH",
"832 448 LINE SMOOTH",
"832 512 OFFCURVE",
"823 536 OFFCURVE",
"765 536 CURVE SMOOTH",
"521 536 LINE",
"539 578 OFFCURVE",
"583 609 OFFCURVE",
"670 609 CURVE SMOOTH",
"690 609 LINE",
"690 680 LINE",
"675 680 LINE SMOOTH",
"555 680 OFFCURVE",
"491 631 OFFCURVE",
"460 576 CURVE",
"429 631 OFFCURVE",
"365 680 OFFCURVE",
"245 680 CURVE SMOOTH",
"230 680 LINE",
"230 609 LINE",
"250 609 LINE SMOOTH",
"336 609 OFFCURVE",
"381 578 OFFCURVE",
"398 536 CURVE",
"155 536 LINE SMOOTH",
"97 536 OFFCURVE",
"88 512 OFFCURVE",
"88 448 CURVE SMOOTH",
"88 88 LINE SMOOTH",
"88 24 OFFCURVE",
"97 0 OFFCURVE",
"155 0 CURVE SMOOTH"
);
},
{
closed = 1;
nodes = (
"184 71 OFFCURVE",
"174 76 OFFCURVE",
"174 110 CURVE SMOOTH",
"174 426 LINE SMOOTH",
"174 460 OFFCURVE",
"184 465 OFFCURVE",
"208 465 CURVE SMOOTH",
"320 465 LINE",
"320 110 LINE SMOOTH",
"320 76 OFFCURVE",
"311 71 OFFCURVE",
"286 71 CURVE SMOOTH",
"208 71 LINE SMOOTH"
);
},
{
closed = 1;
nodes = (
"609 71 OFFCURVE",
"600 76 OFFCURVE",
"600 110 CURVE SMOOTH",
"600 465 LINE",
"712 465 LINE SMOOTH",
"736 465 OFFCURVE",
"746 460 OFFCURVE",
"746 426 CURVE SMOOTH",
"746 110 LINE SMOOTH",
"746 76 OFFCURVE",
"736 71 OFFCURVE",
"712 71 CURVE SMOOTH",
"634 71 LINE SMOOTH"
);
}
);
width = 920;
}
);
unicode = 2C36;
},
{
glyphname = uni2C37;
lastChange = "2017-04-18 13:24:41 +0000";
layers = (
{
layerId = UUID0;
paths = (
{
closed = 1;
nodes = (
"542 0 LINE",
"601 0 OFFCURVE",
"609 24 OFFCURVE",
"609 88 CURVE SMOOTH",
"609 225 LINE SMOOTH",
"609 285 OFFCURVE",
"602 310 OFFCURVE",
"551 312 CURVE",
"588 348 OFFCURVE",
"609 397 OFFCURVE",
"609 456 CURVE SMOOTH",
"609 490 LINE SMOOTH",
"609 521 OFFCURVE",
"585 536 OFFCURVE",
"558 536 CURVE SMOOTH",
"355 536 LINE SMOOTH",
"309 536 OFFCURVE",
"296 512 OFFCURVE",
"296 468 CURVE SMOOTH",
"296 313 LINE",
"136 313 LINE SMOOTH",
"77 313 OFFCURVE",
"68 288 OFFCURVE",
"68 225 CURVE SMOOTH",
"68 88 LINE SMOOTH",
"68 24 OFFCURVE",
"77 0 OFFCURVE",
"136 0 CURVE SMOOTH"
);
},
{
closed = 1;
nodes = (
"164 71 OFFCURVE",
"154 76 OFFCURVE",
"154 110 CURVE SMOOTH",
"154 203 LINE SMOOTH",
"154 237 OFFCURVE",
"164 242 OFFCURVE",
"188 242 CURVE SMOOTH",
"296 242 LINE",
"296 71 LINE",
"188 71 LINE SMOOTH"
);
},
{
closed = 1;
nodes = (
"382 242 LINE",
"489 242 LINE SMOOTH",
"514 242 OFFCURVE",
"523 237 OFFCURVE",
"523 203 CURVE SMOOTH",
"523 110 LINE SMOOTH",
"523 76 OFFCURVE",
"514 71 OFFCURVE",
"489 71 CURVE SMOOTH",
"382 71 LINE"
);
},
{
closed = 1;
nodes = (
"382 429 LINE SMOOTH",
"382 453 OFFCURVE",
"383 465 OFFCURVE",
"406 465 CURVE SMOOTH",
"501 465 LINE SMOOTH",
"525 465 OFFCURVE",
"526 450 OFFCURVE",
"526 424 CURVE SMOOTH",
"526 380 OFFCURVE",
"494 313 OFFCURVE",
"389 313 CURVE SMOOTH",
"382 313 LINE"
);
}
);
width = 688;
}
);
unicode = 2C37;
},
{
glyphname = uni2C38;
lastChange = "2017-04-18 13:24:41 +0000";
layers = (
{
layerId = UUID0;
paths = (
{
closed = 1;
nodes = (
"181 0 LINE SMOOTH",
"299 0 OFFCURVE",
"377 94 OFFCURVE",
"386 242 CURVE",
"452 242 LINE",
"452 88 LINE SMOOTH",
"452 24 OFFCURVE",
"461 0 OFFCURVE",
"520 0 CURVE SMOOTH",
"698 0 LINE SMOOTH",
"757 0 OFFCURVE",
"766 24 OFFCURVE",
"766 88 CURVE SMOOTH",
"766 225 LINE SMOOTH",
"766 288 OFFCURVE",
"757 312 OFFCURVE",
"698 312 CURVE SMOOTH",
"385 312 LINE",
"374 461 OFFCURVE",
"295 536 OFFCURVE",
"181 536 CURVE SMOOTH",
"88 536 LINE",
"88 0 LINE"
);
},
{
closed = 1;
nodes = (
"174 242 LINE",
"296 242 LINE",
"292 136 OFFCURVE",
"257 71 OFFCURVE",
"195 71 CURVE SMOOTH",
"174 71 LINE"
);
},
{
closed = 1;
nodes = (
"174 466 LINE",
"196 466 LINE SMOOTH",
"256 466 OFFCURVE",
"289 405 OFFCURVE",
"296 312 CURVE",
"174 312 LINE"
);
},
{
closed = 1;
nodes = (
"548 71 OFFCURVE",
"538 76 OFFCURVE",
"538 110 CURVE SMOOTH",
"538 242 LINE",
"646 242 LINE SMOOTH",
"670 242 OFFCURVE",
"680 237 OFFCURVE",
"680 203 CURVE SMOOTH",
"680 110 LINE SMOOTH",
"680 76 OFFCURVE",
"670 71 OFFCURVE",
"646 71 CURVE SMOOTH",
"572 71 LINE SMOOTH"
);
}
);
width = 834;
}
);
unicode = 2C38;
},
{
glyphname = uni2C39;
lastChange = "2017-04-18 13:24:41 +0000";
layers = (
{
layerId = UUID0;
paths = (
{
closed = 1;
nodes = (
"580 0 LINE",
"580 71 LINE",
"500 71 LINE",
"500 234 LINE",
"530 242 OFFCURVE",
"554 259 OFFCURVE",
"572 280 CURVE",
"598 250 OFFCURVE",
"635 229 OFFCURVE",
"687 229 CURVE SMOOTH",
"798 229 OFFCURVE",
"846 300 OFFCURVE",
"846 411 CURVE SMOOTH",
"846 536 LINE",
"68 536 LINE",
"68 411 LINE SMOOTH",
"68 300 OFFCURVE",
"116 229 OFFCURVE",
"227 229 CURVE SMOOTH",
"277 229 OFFCURVE",
"314 248 OFFCURVE",
"339 277 CURVE",
"357 256 OFFCURVE",
"381 241 OFFCURVE",
"414 233 CURVE",
"414 71 LINE",
"334 71 LINE",
"334 0 LINE"
);
},
{
closed = 1;
nodes = (
"164 301 OFFCURVE",
"154 345 OFFCURVE",
"154 412 CURVE SMOOTH",
"154 465 LINE",
"299 465 LINE",
"299 411 LINE SMOOTH",
"299 338 OFFCURVE",
"291 301 OFFCURVE",
"227 301 CURVE SMOOTH"
);
},
{
closed = 1;
nodes = (
"396 301 OFFCURVE",
"385 342 OFFCURVE",
"385 406 CURVE SMOOTH",
"385 465 LINE",
"529 465 LINE",
"529 412 LINE SMOOTH",
"529 338 OFFCURVE",
"521 301 OFFCURVE",
"458 301 CURVE SMOOTH"
);
},
{
closed = 1;
nodes = (
"625 301 OFFCURVE",
"615 336 OFFCURVE",
"615 406 CURVE SMOOTH",
"615 465 LINE",
"760 465 LINE",
"760 412 LINE SMOOTH",
"760 345 OFFCURVE",
"750 301 OFFCURVE",
"687 301 CURVE SMOOTH"
);
}
);
width = 914;
}
);
unicode = 2C39;
},
{
glyphname = uni2C3A;
lastChange = "2017-04-18 13:24:41 +0000";
layers = (
{
layerId = UUID0;
paths = (
{
closed = 1;
nodes = (
"615 0 LINE",
"615 124 LINE SMOOTH",
"615 177 OFFCURVE",
"598 231 OFFCURVE",
"559 266 CURVE",
"563 270 OFFCURVE",
"568 275 OFFCURVE",
"572 280 CURVE",
"598 250 OFFCURVE",
"635 229 OFFCURVE",
"687 229 CURVE SMOOTH",
"798 229 OFFCURVE",
"846 300 OFFCURVE",
"846 411 CURVE SMOOTH",
"846 536 LINE",
"68 536 LINE",
"68 411 LINE SMOOTH",
"68 300 OFFCURVE",
"116 229 OFFCURVE",
"227 229 CURVE SMOOTH",
"277 229 OFFCURVE",
"314 248 OFFCURVE",
"339 277 CURVE",
"350 266 LINE",
"311 231 OFFCURVE",
"299 177 OFFCURVE",
"299 125 CURVE SMOOTH",
"299 0 LINE"
);
},
{
closed = 1;
nodes = (
"385 125 LINE SMOOTH",
"385 186 OFFCURVE",
"395 229 OFFCURVE",
"458 229 CURVE SMOOTH",
"521 229 OFFCURVE",
"529 193 OFFCURVE",
"529 125 CURVE SMOOTH",
"529 71 LINE",
"385 71 LINE"
);
},
{
closed = 1;
nodes = (
"164 301 OFFCURVE",
"154 345 OFFCURVE",
"154 412 CURVE SMOOTH",
"154 465 LINE",
"299 465 LINE",
"299 411 LINE SMOOTH",
"299 338 OFFCURVE",
"291 301 OFFCURVE",
"227 301 CURVE SMOOTH"
);
},
{
closed = 1;
nodes = (
"396 301 OFFCURVE",
"385 342 OFFCURVE",
"385 406 CURVE SMOOTH",
"385 465 LINE",
"529 465 LINE",
"529 411 LINE SMOOTH",
"529 338 OFFCURVE",
"521 301 OFFCURVE",
"458 301 CURVE SMOOTH"
);
},
{
closed = 1;
nodes = (
"625 301 OFFCURVE",
"615 336 OFFCURVE",
"615 406 CURVE SMOOTH",
"615 465 LINE",
"760 465 LINE",
"760 412 LINE SMOOTH",
"760 345 OFFCURVE",
"750 301 OFFCURVE",
"687 301 CURVE SMOOTH"
);
}
);
width = 914;
}
);
unicode = 2C3A;
},
{
glyphname = uni2C3B;
lastChange = "2017-04-18 13:24:41 +0000";
layers = (
{
layerId = UUID0;
paths = (
{
closed = 1;
nodes = (
"395 0 LINE",
"395 134 LINE SMOOTH",
"395 187 OFFCURVE",
"377 241 OFFCURVE",
"338 275 CURVE",
"377 312 OFFCURVE",
"395 369 OFFCURVE",
"395 422 CURVE SMOOTH",
"395 536 LINE",
"78 536 LINE",
"78 421 LINE SMOOTH",
"78 369 OFFCURVE",
"90 312 OFFCURVE",
"129 275 CURVE",
"90 241 OFFCURVE",
"78 187 OFFCURVE",
"78 135 CURVE SMOOTH",
"78 0 LINE"
);
},
{
closed = 1;
nodes = (
"164 134 LINE SMOOTH",
"164 196 OFFCURVE",
"174 239 OFFCURVE",
"237 239 CURVE SMOOTH",
"300 239 OFFCURVE",
"309 203 OFFCURVE",
"309 135 CURVE SMOOTH",
"309 71 LINE",
"164 71 LINE"
);
},
{
closed = 1;
nodes = (
"174 311 OFFCURVE",
"164 355 OFFCURVE",
"164 421 CURVE SMOOTH",
"164 465 LINE",
"309 465 LINE",
"309 421 LINE SMOOTH",
"309 348 OFFCURVE",
"300 311 OFFCURVE",
"237 311 CURVE SMOOTH"
);
}
);
width = 473;
}
);
unicode = 2C3B;
},
{
glyphname = uni2C3C;
lastChange = "2017-04-18 13:24:41 +0000";
layers = (
{
layerId = UUID0;
paths = (
{
closed = 1;
nodes = (
"174 0 LINE",
"174 417 LINE SMOOTH",
"174 456 OFFCURVE",
"174 465 OFFCURVE",
"213 465 CURVE SMOOTH",
"281 465 LINE SMOOTH",
"320 465 OFFCURVE",
"320 456 OFFCURVE",
"320 417 CURVE SMOOTH",
"320 0 LINE",
"406 0 LINE",
"406 222 LINE",
"514 222 LINE",
"514 0 LINE",
"600 0 LINE",
"600 221 LINE",
"770 229 OFFCURVE",
"851 306 OFFCURVE",
"851 427 CURVE SMOOTH",
"851 490 LINE SMOOTH",
"851 521 OFFCURVE",
"832 536 OFFCURVE",
"805 536 CURVE SMOOTH",
"583 536 LINE SMOOTH",
"522 536 OFFCURVE",
"514 507 OFFCURVE",
"514 453 CURVE SMOOTH",
"514 292 LINE",
"406 292 LINE",
"406 438 LINE SMOOTH",
"406 512 OFFCURVE",
"401 536 OFFCURVE",
"323 536 CURVE SMOOTH",
"171 536 LINE SMOOTH",
"93 536 OFFCURVE",
"88 515 OFFCURVE",
"88 443 CURVE SMOOTH",
"88 0 LINE"
);
},
{
closed = 1;
nodes = (
"600 429 LINE SMOOTH",
"600 453 OFFCURVE",
"609 465 OFFCURVE",
"632 465 CURVE SMOOTH",
"740 465 LINE SMOOTH",
"760 465 OFFCURVE",
"765 450 OFFCURVE",
"765 424 CURVE SMOOTH",
"765 364 OFFCURVE",
"739 296 OFFCURVE",
"600 292 CURVE"
);
}
);
width = 919;
}
);
unicode = 2C3C;
},
{
glyphname = uni2C3D;
lastChange = "2017-04-18 13:24:41 +0000";
layers = (
{
layerId = UUID0;
paths = (
{
closed = 1;
nodes = (
"310 0 LINE",
"310 225 LINE SMOOTH",
"310 288 OFFCURVE",
"301 313 OFFCURVE",
"242 313 CURVE SMOOTH",
"129 313 LINE",
"189 536 LINE",
"108 536 LINE",
"29 242 LINE",
"189 242 LINE SMOOTH",
"214 242 OFFCURVE",
"224 237 OFFCURVE",
"224 203 CURVE SMOOTH",
"224 0 LINE"
);
}
);
width = 397;
}
);
unicode = 2C3D;
},
{
glyphname = uni2C3E;
lastChange = "2017-04-18 13:24:41 +0000";
layers = (
{
layerId = UUID0;
paths = (
{
closed = 1;
nodes = (
"314 0 LINE SMOOTH",
"373 0 OFFCURVE",
"382 24 OFFCURVE",
"382 88 CURVE SMOOTH",
"382 242 LINE",
"489 242 LINE",
"489 88 LINE SMOOTH",
"489 24 OFFCURVE",
"498 0 OFFCURVE",
"557 0 CURVE SMOOTH",
"735 0 LINE SMOOTH",
"794 0 OFFCURVE",
"803 24 OFFCURVE",
"803 88 CURVE SMOOTH",
"803 225 LINE SMOOTH",
"803 288 OFFCURVE",
"794 313 OFFCURVE",
"735 313 CURVE SMOOTH",
"575 313 LINE",
"575 453 LINE SMOOTH",
"575 526 OFFCURVE",
"570 536 OFFCURVE",
"502 536 CURVE SMOOTH",
"369 536 LINE SMOOTH",
"301 536 OFFCURVE",
"296 525 OFFCURVE",
"296 453 CURVE SMOOTH",
"296 313 LINE",
"136 313 LINE SMOOTH",
"77 313 OFFCURVE",
"68 288 OFFCURVE",
"68 225 CURVE SMOOTH",
"68 88 LINE SMOOTH",
"68 24 OFFCURVE",
"77 0 OFFCURVE",
"136 0 CURVE SMOOTH"
);
},
{
closed = 1;
nodes = (
"164 71 OFFCURVE",
"154 76 OFFCURVE",
"154 110 CURVE SMOOTH",
"154 203 LINE SMOOTH",
"154 237 OFFCURVE",
"164 242 OFFCURVE",
"188 242 CURVE SMOOTH",
"296 242 LINE",
"296 110 LINE SMOOTH",
"296 76 OFFCURVE",
"286 71 OFFCURVE",
"262 71 CURVE SMOOTH",
"188 71 LINE SMOOTH"
);
},
{
closed = 1;
nodes = (
"585 71 OFFCURVE",
"575 76 OFFCURVE",
"575 110 CURVE SMOOTH",
"575 242 LINE",
"683 242 LINE SMOOTH",
"707 242 OFFCURVE",
"717 237 OFFCURVE",
"717 203 CURVE SMOOTH",
"717 110 LINE SMOOTH",
"717 76 OFFCURVE",
"707 71 OFFCURVE",
"683 71 CURVE SMOOTH",
"609 71 LINE SMOOTH"
);
},
{
closed = 1;
nodes = (
"382 417 LINE SMOOTH",
"382 456 OFFCURVE",
"382 465 OFFCURVE",
"411 465 CURVE SMOOTH",
"460 465 LINE SMOOTH",
"489 465 OFFCURVE",
"489 456 OFFCURVE",
"489 417 CURVE SMOOTH",
"489 313 LINE",
"382 313 LINE"
);
}
);
width = 871;
}
);
unicode = 2C3E;
},
{
glyphname = uni2C3F;
lastChange = "2017-04-18 13:24:41 +0000";
layers = (
{
layerId = UUID0;
paths = (
{
closed = 1;
nodes = (
"174 0 LINE",
"174 370 LINE SMOOTH",
"174 431 OFFCURVE",
"184 474 OFFCURVE",
"247 474 CURVE SMOOTH",
"308 474 OFFCURVE",
"318 440 OFFCURVE",
"318 369 CURVE SMOOTH",
"318 0 LINE",
"404 0 LINE",
"404 370 LINE SMOOTH",
"404 438 OFFCURVE",
"413 474 OFFCURVE",
"476 474 CURVE SMOOTH",
"539 474 OFFCURVE",
"549 431 OFFCURVE",
"549 370 CURVE SMOOTH",
"549 0 LINE",
"635 0 LINE",
"635 370 LINE SMOOTH",
"635 455 OFFCURVE",
"602 546 OFFCURVE",
"476 546 CURVE SMOOTH",
"424 546 OFFCURVE",
"387 526 OFFCURVE",
"361 498 CURVE",
"336 526 OFFCURVE",
"298 546 OFFCURVE",
"247 546 CURVE SMOOTH",
"121 546 OFFCURVE",
"88 455 OFFCURVE",
"88 370 CURVE SMOOTH",
"88 0 LINE"
);
}
);
width = 723;
}
);
unicode = 2C3F;
},
{
glyphname = uni2C40;
lastChange = "2017-04-18 13:24:41 +0000";
layers = (
{
layerId = UUID0;
paths = (
{
closed = 1;
nodes = (
"174 0 LINE",
"174 221 LINE",
"344 229 OFFCURVE",
"425 306 OFFCURVE",
"425 427 CURVE SMOOTH",
"425 490 LINE SMOOTH",
"425 521 OFFCURVE",
"406 536 OFFCURVE",
"379 536 CURVE SMOOTH",
"167 536 LINE SMOOTH",
"106 536 OFFCURVE",
"88 507 OFFCURVE",
"88 453 CURVE SMOOTH",
"88 0 LINE"
);
},
{
closed = 1;
nodes = (
"174 429 LINE SMOOTH",
"174 453 OFFCURVE",
"183 465 OFFCURVE",
"206 465 CURVE SMOOTH",
"314 465 LINE SMOOTH",
"334 465 OFFCURVE",
"339 450 OFFCURVE",
"339 424 CURVE SMOOTH",
"339 364 OFFCURVE",
"313 296 OFFCURVE",
"174 292 CURVE"
);
}
);
width = 493;
}
);
unicode = 2C40;
},
{
glyphname = uni2C41;
lastChange = "2017-04-18 13:24:41 +0000";
layers = (
{
layerId = UUID0;
paths = (
{
closed = 1;
nodes = (
"330 0 LINE",
"404 0 OFFCURVE",
"418 10 OFFCURVE",
"418 72 CURVE SMOOTH",
"418 464 LINE SMOOTH",
"418 521 OFFCURVE",
"414 536 OFFCURVE",
"339 536 CURVE SMOOTH",
"166 536 LINE SMOOTH",
"91 536 OFFCURVE",
"78 478 OFFCURVE",
"78 432 CURVE SMOOTH",
"78 360 OFFCURVE",
"124 306 OFFCURVE",
"196 275 CURVE",
"124 238 OFFCURVE",
"78 176 OFFCURVE",
"78 104 CURVE SMOOTH",
"78 58 OFFCURVE",
"86 0 OFFCURVE",
"175 0 CURVE SMOOTH"
);
},
{
closed = 1;
nodes = (
"166 71 OFFCURVE",
"163 91 OFFCURVE",
"163 116 CURVE SMOOTH",
"163 180 OFFCURVE",
"223 235 OFFCURVE",
"332 243 CURVE",
"332 103 LINE SMOOTH",
"332 83 OFFCURVE",
"328 71 OFFCURVE",
"308 71 CURVE SMOOTH",
"193 71 LINE SMOOTH"
);
},
{
closed = 1;
nodes = (
"219 318 OFFCURVE",
"163 356 OFFCURVE",
"163 420 CURVE SMOOTH",
"163 446 OFFCURVE",
"163 465 OFFCURVE",
"205 465 CURVE SMOOTH",
"304 465 LINE SMOOTH",
"329 465 OFFCURVE",
"332 453 OFFCURVE",
"332 433 CURVE SMOOTH",
"332 313 LINE"
);
}
);
width = 506;
}
);
unicode = 2C41;
},
{
glyphname = uni2C42;
lastChange = "2017-04-18 13:24:41 +0000";
layers = (
{
layerId = UUID0;
paths = (
{
closed = 1;
nodes = (
"174 0 LINE",
"174 417 LINE SMOOTH",
"174 456 OFFCURVE",
"174 465 OFFCURVE",
"213 465 CURVE SMOOTH",
"281 465 LINE",
"281 243 LINE SMOOTH",
"281 180 OFFCURVE",
"290 155 OFFCURVE",
"349 155 CURVE SMOOTH",
"527 155 LINE SMOOTH",
"586 155 OFFCURVE",
"595 180 OFFCURVE",
"595 243 CURVE SMOOTH",
"595 448 LINE SMOOTH",
"595 512 OFFCURVE",
"586 536 OFFCURVE",
"527 536 CURVE SMOOTH",
"171 536 LINE SMOOTH",
"93 536 OFFCURVE",
"88 515 OFFCURVE",
"88 443 CURVE SMOOTH",
"88 0 LINE"
);
},
{
closed = 1;
nodes = (
"377 226 OFFCURVE",
"367 231 OFFCURVE",
"367 265 CURVE SMOOTH",
"367 465 LINE",
"475 465 LINE SMOOTH",
"499 465 OFFCURVE",
"509 460 OFFCURVE",
"509 426 CURVE SMOOTH",
"509 265 LINE SMOOTH",
"509 231 OFFCURVE",
"499 226 OFFCURVE",
"475 226 CURVE SMOOTH",
"401 226 LINE SMOOTH"
);
}
);
width = 663;
}
);
unicode = 2C42;
},
{
glyphname = uni2C43;
lastChange = "2017-04-18 13:24:41 +0000";
layers = (
{
layerId = UUID0;
paths = (
{
closed = 1;
nodes = (
"321 0 LINE SMOOTH",
"410 0 OFFCURVE",
"418 58 OFFCURVE",
"418 104 CURVE SMOOTH",
"418 221 OFFCURVE",
"332 312 OFFCURVE",
"174 313 CURVE",
"174 536 LINE",
"88 536 LINE",
"88 72 LINE SMOOTH",
"88 10 OFFCURVE",
"102 0 OFFCURVE",
"176 0 CURVE SMOOTH"
);
},
{
closed = 1;
nodes = (
"178 71 OFFCURVE",
"174 83 OFFCURVE",
"174 103 CURVE SMOOTH",
"174 244 LINE",
"290 240 OFFCURVE",
"333 183 OFFCURVE",
"333 116 CURVE SMOOTH",
"333 91 OFFCURVE",
"330 71 OFFCURVE",
"303 71 CURVE SMOOTH",
"198 71 LINE SMOOTH"
);
}
);
width = 486;
}
);
unicode = 2C43;
},
{
glyphname = uni2C44;
lastChange = "2017-04-18 13:24:41 +0000";
layers = (
{
layerId = UUID0;
paths = (
{
closed = 1;
nodes = (
"479 0 LINE",
"479 157 LINE",
"550 199 OFFCURVE",
"583 272 OFFCURVE",
"583 338 CURVE SMOOTH",
"583 433 OFFCURVE",
"514 546 OFFCURVE",
"321 546 CURVE SMOOTH",
"128 546 OFFCURVE",
"59 433 OFFCURVE",
"59 338 CURVE SMOOTH",
"59 272 OFFCURVE",
"92 199 OFFCURVE",
"163 157 CURVE",
"163 0 LINE"
);
},
{
closed = 1;
nodes = (
"249 134 LINE SMOOTH",
"249 196 OFFCURVE",
"258 250 OFFCURVE",
"321 250 CURVE SMOOTH",
"385 250 OFFCURVE",
"393 203 OFFCURVE",
"393 135 CURVE SMOOTH",
"393 71 LINE",
"249 71 LINE"
);
},
{
closed = 1;
nodes = (
"435 287 OFFCURVE",
"391 322 OFFCURVE",
"321 322 CURVE SMOOTH",
"244 322 OFFCURVE",
"202 288 OFFCURVE",
"181 241 CURVE",
"157 266 OFFCURVE",
"145 298 OFFCURVE",
"145 339 CURVE SMOOTH",
"145 433 OFFCURVE",
"221 474 OFFCURVE",
"321 474 CURVE SMOOTH",
"418 474 OFFCURVE",
"497 433 OFFCURVE",
"497 339 CURVE SMOOTH",
"497 297 OFFCURVE",
"483 264 OFFCURVE",
"458 239 CURVE"
);
}
);
width = 642;
}
);
unicode = 2C44;
},
{
glyphname = uni2C45;
lastChange = "2017-04-18 13:24:41 +0000";
layers = (
{
layerId = UUID0;
paths = (
{
closed = 1;
nodes = (
"339 0 LINE SMOOTH",
"397 0 OFFCURVE",
"406 24 OFFCURVE",
"406 88 CURVE SMOOTH",
"406 465 LINE",
"514 465 LINE",
"514 88 LINE SMOOTH",
"514 24 OFFCURVE",
"522 0 OFFCURVE",
"581 0 CURVE SMOOTH",
"765 0 LINE SMOOTH",
"823 0 OFFCURVE",
"832 24 OFFCURVE",
"832 88 CURVE SMOOTH",
"832 448 LINE SMOOTH",
"832 512 OFFCURVE",
"823 536 OFFCURVE",
"765 536 CURVE SMOOTH",
"155 536 LINE SMOOTH",
"97 536 OFFCURVE",
"88 512 OFFCURVE",
"88 448 CURVE SMOOTH",
"88 88 LINE SMOOTH",
"88 24 OFFCURVE",
"97 0 OFFCURVE",
"155 0 CURVE SMOOTH"
);
},
{
closed = 1;
nodes = (
"184 71 OFFCURVE",
"174 76 OFFCURVE",
"174 110 CURVE SMOOTH",
"174 426 LINE SMOOTH",
"174 460 OFFCURVE",
"184 465 OFFCURVE",
"208 465 CURVE SMOOTH",
"320 465 LINE",
"320 110 LINE SMOOTH",
"320 76 OFFCURVE",
"311 71 OFFCURVE",
"286 71 CURVE SMOOTH",
"208 71 LINE SMOOTH"
);
},
{
closed = 1;
nodes = (
"609 71 OFFCURVE",
"600 76 OFFCURVE",
"600 110 CURVE SMOOTH",
"600 465 LINE",
"712 465 LINE SMOOTH",
"736 465 OFFCURVE",
"746 460 OFFCURVE",
"746 426 CURVE SMOOTH",
"746 110 LINE SMOOTH",
"746 76 OFFCURVE",
"736 71 OFFCURVE",
"712 71 CURVE SMOOTH",
"634 71 LINE SMOOTH"
);
}
);
width = 920;
}
);
unicode = 2C45;
},
{
glyphname = uni2C46;
lastChange = "2017-04-18 13:24:41 +0000";
layers = (
{
layerId = UUID0;
paths = (
{
closed = 1;
nodes = (
"583 0 LINE SMOOTH",
"642 0 OFFCURVE",
"650 24 OFFCURVE",
"650 88 CURVE SMOOTH",
"650 448 LINE SMOOTH",
"650 512 OFFCURVE",
"642 536 OFFCURVE",
"583 536 CURVE SMOOTH",
"166 536 LINE SMOOTH",
"91 536 OFFCURVE",
"78 478 OFFCURVE",
"78 432 CURVE SMOOTH",
"78 360 OFFCURVE",
"124 306 OFFCURVE",
"196 275 CURVE",
"124 238 OFFCURVE",
"78 176 OFFCURVE",
"78 104 CURVE SMOOTH",
"78 58 OFFCURVE",
"86 0 OFFCURVE",
"175 0 CURVE SMOOTH"
);
},
{
closed = 1;
nodes = (
"166 71 OFFCURVE",
"163 91 OFFCURVE",
"163 116 CURVE SMOOTH",
"163 180 OFFCURVE",
"223 235 OFFCURVE",
"332 243 CURVE",
"332 71 LINE",
"193 71 LINE SMOOTH"
);
},
{
closed = 1;
nodes = (
"219 318 OFFCURVE",
"163 356 OFFCURVE",
"163 420 CURVE SMOOTH",
"163 446 OFFCURVE",
"163 465 OFFCURVE",
"205 465 CURVE SMOOTH",
"332 465 LINE",
"332 313 LINE"
);
},
{
closed = 1;
nodes = (
"418 242 LINE",
"564 242 LINE",
"564 110 LINE SMOOTH",
"564 76 OFFCURVE",
"555 71 OFFCURVE",
"530 71 CURVE SMOOTH",
"418 71 LINE"
);
},
{
closed = 1;
nodes = (
"418 465 LINE",
"530 465 LINE SMOOTH",
"555 465 OFFCURVE",
"564 460 OFFCURVE",
"564 426 CURVE SMOOTH",
"564 312 LINE",
"418 312 LINE"
);
}
);
width = 738;
}
);
unicode = 2C46;
},
{
glyphname = uni2C47;
lastChange = "2017-04-18 13:24:41 +0000";
layers = (
{
layerId = UUID0;
paths = (
{
closed = 1;
nodes = (
"414 -167 LINE",
"414 -8 LINE",
"579 6 OFFCURVE",
"679 106 OFFCURVE",
"679 268 CURVE SMOOTH",
"679 430 OFFCURVE",
"573 529 OFFCURVE",
"414 544 CURVE",
"414 691 LINE",
"331 691 LINE",
"331 544 LINE",
"162 531 OFFCURVE",
"63 431 OFFCURVE",
"63 268 CURVE SMOOTH",
"63 105 OFFCURVE",
"169 5 OFFCURVE",
"328 -8 CURVE",
"328 -167 LINE"
);
},
{
closed = 1;
nodes = (
"209 76 OFFCURVE",
"155 147 OFFCURVE",
"155 268 CURVE SMOOTH",
"155 389 OFFCURVE",
"208 459 OFFCURVE",
"331 471 CURVE",
"331 64 LINE"
);
},
{
closed = 1;
nodes = (
"414 470 LINE",
"532 457 OFFCURVE",
"588 388 OFFCURVE",
"588 268 CURVE SMOOTH",
"588 148 OFFCURVE",
"534 77 OFFCURVE",
"414 64 CURVE"
);
}
);
width = 743;
}
);
unicode = 2C47;
},
{
glyphname = uni2C48;
lastChange = "2017-04-18 13:24:41 +0000";
layers = (
{
layerId = UUID0;
paths = (
{
closed = 1;
nodes = (
"138 0 LINE",
"212 194 LINE",
"317 194 LINE",
"317 88 LINE SMOOTH",
"317 24 OFFCURVE",
"326 0 OFFCURVE",
"385 0 CURVE SMOOTH",
"631 0 LINE",
"631 225 LINE SMOOTH",
"631 288 OFFCURVE",
"622 313 OFFCURVE",
"563 313 CURVE SMOOTH",
"385 313 LINE SMOOTH",
"340 313 OFFCURVE",
"325 298 OFFCURVE",
"319 265 CURVE",
"240 265 LINE",
"344 536 LINE",
"39 536 LINE",
"39 465 LINE",
"236 465 LINE",
"57 0 LINE"
);
},
{
closed = 1;
nodes = (
"413 71 OFFCURVE",
"403 76 OFFCURVE",
"403 110 CURVE SMOOTH",
"403 203 LINE SMOOTH",
"403 237 OFFCURVE",
"413 242 OFFCURVE",
"438 242 CURVE SMOOTH",
"511 242 LINE SMOOTH",
"535 242 OFFCURVE",
"545 237 OFFCURVE",
"545 203 CURVE SMOOTH",
"545 71 LINE",
"438 71 LINE SMOOTH"
);
}
);
width = 699;
}
);
unicode = 2C48;
},
{
glyphname = uni2C49;
lastChange = "2017-04-18 13:24:41 +0000";
layers = (
{
layerId = UUID0;
paths = (
{
closed = 1;
nodes = (
"354 -103 LINE",
"354 -8 LINE",
"480 10 OFFCURVE",
"559 107 OFFCURVE",
"559 268 CURVE SMOOTH",
"559 444 OFFCURVE",
"458 544 OFFCURVE",
"313 544 CURVE SMOOTH",
"158 544 OFFCURVE",
"63 444 OFFCURVE",
"63 268 CURVE SMOOTH",
"63 107 OFFCURVE",
"147 10 OFFCURVE",
"267 -8 CURVE",
"267 -103 LINE"
);
},
{
closed = 1;
nodes = (
"287 51 OFFCURVE",
"268 70 OFFCURVE",
"268 93 CURVE SMOOTH",
"268 116 OFFCURVE",
"287 135 OFFCURVE",
"310 135 CURVE SMOOTH",
"333 135 OFFCURVE",
"353 116 OFFCURVE",
"353 93 CURVE SMOOTH",
"353 70 OFFCURVE",
"333 51 OFFCURVE",
"310 51 CURVE SMOOTH"
);
},
{
closed = 1;
nodes = (
"404 81 OFFCURVE",
"405 87 OFFCURVE",
"405 93 CURVE SMOOTH",
"405 146 OFFCURVE",
"363 188 OFFCURVE",
"310 188 CURVE SMOOTH",
"258 188 OFFCURVE",
"215 146 OFFCURVE",
"215 93 CURVE SMOOTH",
"215 88 OFFCURVE",
"216 83 OFFCURVE",
"216 78 CURVE",
"173 115 OFFCURVE",
"152 186 OFFCURVE",
"152 268 CURVE SMOOTH",
"152 350 OFFCURVE",
"173 420 OFFCURVE",
"217 456 CURVE",
"216 450 OFFCURVE",
"215 444 OFFCURVE",
"215 438 CURVE SMOOTH",
"215 386 OFFCURVE",
"258 344 OFFCURVE",
"310 344 CURVE SMOOTH",
"363 344 OFFCURVE",
"405 386 OFFCURVE",
"405 438 CURVE SMOOTH",
"405 445 OFFCURVE",
"404 451 OFFCURVE",
"403 457 CURVE",
"449 421 OFFCURVE",
"470 351 OFFCURVE",
"470 268 CURVE SMOOTH",
"470 185 OFFCURVE",
"448 112 OFFCURVE",
"403 76 CURVE"
);
},
{
closed = 1;
nodes = (
"287 396 OFFCURVE",
"268 416 OFFCURVE",
"268 438 CURVE SMOOTH",
"268 462 OFFCURVE",
"287 481 OFFCURVE",
"310 481 CURVE SMOOTH",
"333 481 OFFCURVE",
"353 462 OFFCURVE",
"353 438 CURVE SMOOTH",
"353 416 OFFCURVE",
"333 396 OFFCURVE",
"310 396 CURVE SMOOTH"
);
}
);
width = 623;
}
);
unicode = 2C49;
},
{
glyphname = uni2C4A;
lastChange = "2017-04-18 13:24:41 +0000";
layers = (
{
layerId = UUID0;
paths = (
{
closed = 1;
nodes = (
"314 0 LINE SMOOTH",
"373 0 OFFCURVE",
"382 24 OFFCURVE",
"382 88 CURVE SMOOTH",
"382 417 LINE SMOOTH",
"382 456 OFFCURVE",
"382 465 OFFCURVE",
"421 465 CURVE SMOOTH",
"489 465 LINE SMOOTH",
"528 465 OFFCURVE",
"528 456 OFFCURVE",
"528 417 CURVE SMOOTH",
"528 0 LINE",
"614 0 LINE",
"614 438 LINE SMOOTH",
"614 512 OFFCURVE",
"609 536 OFFCURVE",
"531 536 CURVE SMOOTH",
"379 536 LINE SMOOTH",
"301 536 OFFCURVE",
"296 515 OFFCURVE",
"296 443 CURVE SMOOTH",
"296 313 LINE",
"136 313 LINE SMOOTH",
"77 313 OFFCURVE",
"68 288 OFFCURVE",
"68 225 CURVE SMOOTH",
"68 88 LINE SMOOTH",
"68 24 OFFCURVE",
"77 0 OFFCURVE",
"136 0 CURVE SMOOTH"
);
},
{
closed = 1;
nodes = (
"164 71 OFFCURVE",
"154 76 OFFCURVE",
"154 110 CURVE SMOOTH",
"154 203 LINE SMOOTH",
"154 237 OFFCURVE",
"164 242 OFFCURVE",
"188 242 CURVE SMOOTH",
"296 242 LINE",
"296 110 LINE SMOOTH",
"296 76 OFFCURVE",
"286 71 OFFCURVE",
"262 71 CURVE SMOOTH",
"188 71 LINE SMOOTH"
);
}
);
width = 702;
}
);
unicode = 2C4A;
},
{
glyphname = uni2C4B;
lastChange = "2017-04-18 13:24:41 +0000";
layers = (
{
layerId = UUID0;
paths = (
{
closed = 1;
nodes = (
"512 0 LINE",
"512 136 LINE SMOOTH",
"512 172 OFFCURVE",
"503 210 OFFCURVE",
"485 242 CURVE",
"571 242 LINE SMOOTH",
"635 242 OFFCURVE",
"639 271 OFFCURVE",
"639 330 CURVE SMOOTH",
"639 536 LINE",
"553 536 LINE",
"553 352 LINE SMOOTH",
"553 322 OFFCURVE",
"548 313 OFFCURVE",
"519 313 CURVE SMOOTH",
"396 313 LINE",
"396 536 LINE",
"311 536 LINE",
"311 313 LINE",
"188 313 LINE SMOOTH",
"159 313 OFFCURVE",
"154 322 OFFCURVE",
"154 352 CURVE SMOOTH",
"154 536 LINE",
"68 536 LINE",
"68 330 LINE SMOOTH",
"68 271 OFFCURVE",
"72 242 OFFCURVE",
"136 242 CURVE SMOOTH",
"218 242 LINE",
"201 210 OFFCURVE",
"195 173 OFFCURVE",
"195 137 CURVE SMOOTH",
"195 0 LINE"
);
},
{
closed = 1;
nodes = (
"281 136 LINE SMOOTH",
"281 198 OFFCURVE",
"291 241 OFFCURVE",
"354 241 CURVE SMOOTH",
"417 241 OFFCURVE",
"426 205 OFFCURVE",
"426 137 CURVE SMOOTH",
"426 71 LINE",
"281 71 LINE"
);
}
);
width = 707;
}
);
unicode = 2C4B;
},
{
glyphname = uni2C4C;
lastChange = "2017-04-18 13:24:41 +0000";
layers = (
{
layerId = UUID0;
paths = (
{
closed = 1;
nodes = (
"474 0 LINE SMOOTH",
"533 0 OFFCURVE",
"537 15 OFFCURVE",
"546 72 CURVE SMOOTH",
"620 536 LINE",
"538 536 LINE",
"471 103 LINE SMOOTH",
"467 78 OFFCURVE",
"462 71 OFFCURVE",
"446 71 CURVE SMOOTH",
"431 71 OFFCURVE",
"426 77 OFFCURVE",
"422 103 CURVE SMOOTH",
"368 464 LINE SMOOTH",
"359 526 OFFCURVE",
"349 536 OFFCURVE",
"274 536 CURVE SMOOTH",
"156 536 LINE SMOOTH",
"67 536 OFFCURVE",
"59 478 OFFCURVE",
"59 432 CURVE SMOOTH",
"59 319 OFFCURVE",
"167 250 OFFCURVE",
"317 245 CURVE",
"347 72 LINE SMOOTH",
"357 15 OFFCURVE",
"358 0 OFFCURVE",
"418 0 CURVE SMOOTH"
);
},
{
closed = 1;
nodes = (
"200 319 OFFCURVE",
"144 357 OFFCURVE",
"144 420 CURVE SMOOTH",
"144 445 OFFCURVE",
"146 465 OFFCURVE",
"174 465 CURVE SMOOTH",
"259 465 LINE SMOOTH",
"279 465 OFFCURVE",
"285 453 OFFCURVE",
"288 433 CURVE SMOOTH",
"307 313 LINE"
);
}
);
width = 669;
}
);
unicode = 2C4C;
},
{
glyphname = uni2C4D;
lastChange = "2017-04-18 13:24:41 +0000";
layers = (
{
layerId = UUID0;
paths = (
{
closed = 1;
nodes = (
"507 0 LINE",
"507 136 LINE SMOOTH",
"507 172 OFFCURVE",
"499 210 OFFCURVE",
"480 242 CURVE",
"659 242 LINE",
"546 536 LINE",
"474 536 LINE",
"501 458 LINE",
"196 458 LINE",
"225 536 LINE",
"152 536 LINE",
"39 242 LINE",
"213 242 LINE",
"196 210 OFFCURVE",
"190 173 OFFCURVE",
"190 137 CURVE SMOOTH",
"190 0 LINE"
);
},
{
closed = 1;
nodes = (
"276 136 LINE SMOOTH",
"276 198 OFFCURVE",
"286 241 OFFCURVE",
"349 241 CURVE SMOOTH",
"413 241 OFFCURVE",
"421 205 OFFCURVE",
"421 137 CURVE SMOOTH",
"421 71 LINE",
"276 71 LINE"
);
},
{
closed = 1;
nodes = (
"173 392 LINE",
"311 392 LINE",
"311 313 LINE",
"145 313 LINE"
);
},
{
closed = 1;
nodes = (
"387 392 LINE",
"525 392 LINE",
"553 313 LINE",
"387 313 LINE"
);
}
);
width = 698;
}
);
unicode = 2C4D;
},
{
glyphname = uni2C4E;
lastChange = "2017-04-18 13:24:41 +0000";
layers = (
{
layerId = UUID0;
paths = (
{
closed = 1;
nodes = (
"591 0 LINE SMOOTH",
"654 0 OFFCURVE",
"658 29 OFFCURVE",
"658 88 CURVE SMOOTH",
"658 536 LINE",
"572 536 LINE",
"572 110 LINE SMOOTH",
"572 81 OFFCURVE",
"567 71 OFFCURVE",
"538 71 CURVE SMOOTH",
"416 71 LINE",
"416 536 LINE",
"330 536 LINE",
"330 71 LINE",
"208 71 LINE SMOOTH",
"179 71 OFFCURVE",
"174 81 OFFCURVE",
"174 110 CURVE SMOOTH",
"174 536 LINE",
"88 536 LINE",
"88 88 LINE SMOOTH",
"88 29 OFFCURVE",
"92 0 OFFCURVE",
"155 0 CURVE SMOOTH"
);
}
);
width = 746;
}
);
unicode = 2C4E;
},
{
glyphname = uni2C4F;
lastChange = "2017-04-18 13:24:41 +0000";
layers = (
{
layerId = UUID0;
paths = (
{
closed = 1;
nodes = (
"561 0 LINE",
"561 129 LINE SMOOTH",
"561 182 OFFCURVE",
"547 237 OFFCURVE",
"509 271 CURVE",
"547 306 OFFCURVE",
"561 361 OFFCURVE",
"561 414 CURVE SMOOTH",
"561 536 LINE",
"245 536 LINE",
"245 413 LINE SMOOTH",
"245 378 OFFCURVE",
"249 343 OFFCURVE",
"262 313 CURVE",
"127 313 LINE SMOOTH",
"79 313 OFFCURVE",
"39 273 OFFCURVE",
"39 224 CURVE SMOOTH",
"39 175 OFFCURVE",
"79 135 OFFCURVE",
"127 135 CURVE SMOOTH",
"177 135 OFFCURVE",
"217 175 OFFCURVE",
"217 224 CURVE SMOOTH",
"217 233 OFFCURVE",
"215 242 OFFCURVE",
"213 250 CURVE",
"273 250 LINE",
"250 217 OFFCURVE",
"245 172 OFFCURVE",
"245 130 CURVE SMOOTH",
"245 0 LINE"
);
},
{
closed = 1;
nodes = (
"106 185 OFFCURVE",
"89 202 OFFCURVE",
"89 224 CURVE SMOOTH",
"89 245 OFFCURVE",
"105 262 OFFCURVE",
"126 262 CURVE SMOOTH",
"151 262 OFFCURVE",
"167 245 OFFCURVE",
"167 224 CURVE SMOOTH",
"167 202 OFFCURVE",
"150 185 OFFCURVE",
"127 185 CURVE SMOOTH"
);
},
{
closed = 1;
nodes = (
"331 125 LINE SMOOTH",
"331 191 OFFCURVE",
"340 236 OFFCURVE",
"403 236 CURVE SMOOTH",
"467 236 OFFCURVE",
"475 198 OFFCURVE",
"475 125 CURVE SMOOTH",
"475 71 LINE",
"331 71 LINE"
);
},
{
closed = 1;
nodes = (
"340 308 OFFCURVE",
"331 352 OFFCURVE",
"331 418 CURVE SMOOTH",
"331 465 LINE",
"475 465 LINE",
"475 418 LINE SMOOTH",
"475 345 OFFCURVE",
"467 308 OFFCURVE",
"403 308 CURVE SMOOTH"
);
}
);
width = 639;
}
);
unicode = 2C4F;
},
{
glyphname = uni2C50;
lastChange = "2017-04-18 13:24:41 +0000";
layers = (
{
layerId = UUID0;
paths = (
{
closed = 1;
nodes = (
"535 0 LINE",
"535 129 LINE SMOOTH",
"535 182 OFFCURVE",
"521 237 OFFCURVE",
"483 271 CURVE",
"521 306 OFFCURVE",
"535 361 OFFCURVE",
"535 414 CURVE SMOOTH",
"535 536 LINE",
"218 536 LINE",
"218 413 LINE SMOOTH",
"218 378 OFFCURVE",
"222 343 OFFCURVE",
"236 313 CURVE",
"106 313 LINE SMOOTH",
"70 313 OFFCURVE",
"39 276 OFFCURVE",
"39 233 CURVE SMOOTH",
"39 188 OFFCURVE",
"71 153 OFFCURVE",
"110 153 CURVE SMOOTH",
"149 153 OFFCURVE",
"180 188 OFFCURVE",
"180 233 CURVE SMOOTH",
"180 239 OFFCURVE",
"179 245 OFFCURVE",
"178 250 CURVE",
"247 250 LINE",
"224 217 OFFCURVE",
"218 172 OFFCURVE",
"218 130 CURVE SMOOTH",
"218 0 LINE"
);
},
{
closed = 1;
nodes = (
"304 125 LINE SMOOTH",
"304 191 OFFCURVE",
"314 236 OFFCURVE",
"377 236 CURVE SMOOTH",
"440 236 OFFCURVE",
"449 198 OFFCURVE",
"449 125 CURVE SMOOTH",
"449 71 LINE",
"304 71 LINE"
);
},
{
closed = 1;
nodes = (
"314 308 OFFCURVE",
"304 352 OFFCURVE",
"304 418 CURVE SMOOTH",
"304 465 LINE",
"449 465 LINE",
"449 418 LINE SMOOTH",
"449 345 OFFCURVE",
"440 308 OFFCURVE",
"377 308 CURVE SMOOTH"
);
}
);
width = 613;
}
);
unicode = 2C50;
},
{
glyphname = uni2C51;
lastChange = "2017-04-18 13:24:41 +0000";
layers = (
{
layerId = UUID0;
paths = (
{
closed = 1;
nodes = (
"683 0 LINE",
"454 492 LINE SMOOTH",
"441 519 OFFCURVE",
"430 536 OFFCURVE",
"404 536 CURVE SMOOTH",
"318 536 LINE SMOOTH",
"292 536 OFFCURVE",
"280 519 OFFCURVE",
"268 492 CURVE SMOOTH",
"39 0 LINE"
);
},
{
closed = 1;
nodes = (
"225 224 LINE",
"323 224 LINE",
"323 71 LINE",
"153 71 LINE"
);
},
{
closed = 1;
nodes = (
"399 224 LINE",
"497 224 LINE",
"568 71 LINE",
"399 71 LINE"
);
},
{
closed = 1;
nodes = (
"330 451 LINE SMOOTH",
"336 463 OFFCURVE",
"342 477 OFFCURVE",
"350 477 CURVE SMOOTH",
"372 477 LINE SMOOTH",
"379 477 OFFCURVE",
"386 463 OFFCURVE",
"392 451 CURVE SMOOTH",
"466 290 LINE",
"255 290 LINE"
);
}
);
width = 722;
}
);
unicode = 2C51;
},
{
glyphname = uni2C52;
lastChange = "2017-04-18 13:24:41 +0000";
layers = (
{
layerId = UUID0;
paths = (
{
closed = 1;
nodes = (
"400 -29 LINE",
"400 39 LINE",
"417 45 OFFCURVE",
"434 54 OFFCURVE",
"449 64 CURVE",
"449 -29 LINE",
"517 -29 LINE",
"517 147 LINE",
"532 180 OFFCURVE",
"541 219 OFFCURVE",
"541 264 CURVE SMOOTH",
"541 413 OFFCURVE",
"442 505 OFFCURVE",
"303 505 CURVE SMOOTH",
"290 505 OFFCURVE",
"278 504 OFFCURVE",
"266 503 CURVE",
"266 554 LINE",
"197 554 LINE",
"197 486 LINE",
"179 479 OFFCURVE",
"163 470 OFFCURVE",
"148 458 CURVE",
"148 554 LINE",
"80 554 LINE",
"80 364 LINE",
"69 334 OFFCURVE",
"63 301 OFFCURVE",
"63 264 CURVE SMOOTH",
"63 114 OFFCURVE",
"164 22 OFFCURVE",
"300 22 CURVE SMOOTH",
"311 22 OFFCURVE",
"321 22 OFFCURVE",
"332 23 CURVE",
"332 -29 LINE"
);
},
{
closed = 1;
nodes = (
"197 94 OFFCURVE",
"153 176 OFFCURVE",
"153 264 CURVE SMOOTH",
"153 352 OFFCURVE",
"196 433 OFFCURVE",
"301 433 CURVE SMOOTH",
"406 433 OFFCURVE",
"451 367 OFFCURVE",
"451 264 CURVE SMOOTH",
"451 162 OFFCURVE",
"406 94 OFFCURVE",
"302 94 CURVE SMOOTH"
);
}
);
width = 604;
}
);
unicode = 2C52;
},
{
glyphname = uni2C53;
lastChange = "2017-04-18 13:24:41 +0000";
layers = (
{
layerId = UUID0;
paths = (
{
closed = 1;
nodes = (
"622 100 LINE SMOOTH",
"657 111 OFFCURVE",
"658 152 OFFCURVE",
"658 209 CURVE SMOOTH",
"658 448 LINE SMOOTH",
"658 507 OFFCURVE",
"654 536 OFFCURVE",
"591 536 CURVE SMOOTH",
"155 536 LINE SMOOTH",
"92 536 OFFCURVE",
"88 507 OFFCURVE",
"88 448 CURVE SMOOTH",
"88 -68 LINE"
);
},
{
closed = 1;
nodes = (
"174 426 LINE SMOOTH",
"174 456 OFFCURVE",
"179 465 OFFCURVE",
"208 465 CURVE SMOOTH",
"330 465 LINE",
"330 82 LINE",
"174 33 LINE"
);
},
{
closed = 1;
nodes = (
"416 465 LINE",
"538 465 LINE SMOOTH",
"567 465 OFFCURVE",
"572 456 OFFCURVE",
"572 426 CURVE SMOOTH",
"572 196 LINE SMOOTH",
"572 172 OFFCURVE",
"568 157 OFFCURVE",
"545 150 CURVE SMOOTH",
"416 109 LINE"
);
}
);
width = 746;
}
);
unicode = 2C53;
},
{
glyphname = uni2C54;
lastChange = "2017-04-18 13:24:41 +0000";
layers = (
{
layerId = UUID0;
paths = (
{
closed = 1;
nodes = (
"444 -10 OFFCURVE",
"486 0 OFFCURVE",
"525 19 CURVE",
"525 95 LINE",
"485 79 OFFCURVE",
"440 65 OFFCURVE",
"381 65 CURVE SMOOTH",
"277 65 OFFCURVE",
"213 121 OFFCURVE",
"206 242 CURVE",
"470 242 LINE",
"470 313 LINE",
"207 313 LINE",
"216 421 OFFCURVE",
"268 470 OFFCURVE",
"369 470 CURVE SMOOTH",
"408 470 OFFCURVE",
"458 457 OFFCURVE",
"494 444 CURVE",
"519 515 LINE",
"481 532 OFFCURVE",
"424 546 OFFCURVE",
"370 546 CURVE SMOOTH",
"232 546 OFFCURVE",
"132 479 OFFCURVE",
"117 313 CURVE",
"20 313 LINE",
"20 242 LINE",
"116 242 LINE",
"126 69 OFFCURVE",
"234 -10 OFFCURVE",
"383 -10 CURVE SMOOTH"
);
}
);
width = 564;
}
);
unicode = 2C54;
},
{
glyphname = uni2C55;
lastChange = "2017-04-18 13:24:41 +0000";
layers = (
{
layerId = UUID0;
paths = (
{
closed = 1;
nodes = (
"543 -10 OFFCURVE",
"585 0 OFFCURVE",
"625 19 CURVE",
"625 95 LINE",
"584 79 OFFCURVE",
"540 65 OFFCURVE",
"480 65 CURVE SMOOTH",
"376 65 OFFCURVE",
"313 121 OFFCURVE",
"305 242 CURVE",
"569 242 LINE",
"569 313 LINE",
"306 313 LINE",
"315 421 OFFCURVE",
"367 470 OFFCURVE",
"468 470 CURVE SMOOTH",
"507 470 OFFCURVE",
"557 457 OFFCURVE",
"593 444 CURVE",
"618 515 LINE",
"580 532 OFFCURVE",
"523 546 OFFCURVE",
"469 546 CURVE SMOOTH",
"331 546 OFFCURVE",
"231 479 OFFCURVE",
"216 313 CURVE",
"100 313 LINE SMOOTH",
"62 313 OFFCURVE",
"29 278 OFFCURVE",
"29 233 CURVE SMOOTH",
"29 188 OFFCURVE",
"62 153 OFFCURVE",
"100 153 CURVE SMOOTH",
"139 153 OFFCURVE",
"170 188 OFFCURVE",
"170 233 CURVE SMOOTH",
"170 236 OFFCURVE",
"170 239 OFFCURVE",
"170 242 CURVE",
"215 242 LINE",
"225 69 OFFCURVE",
"333 -10 OFFCURVE",
"482 -10 CURVE SMOOTH"
);
}
);
width = 664;
}
);
unicode = 2C55;
},
{
glyphname = uni2C56;
lastChange = "2017-04-18 13:24:41 +0000";
layers = (
{
layerId = UUID0;
paths = (
{
closed = 1;
nodes = (
"519 0 LINE",
"519 129 LINE SMOOTH",
"519 168 OFFCURVE",
"512 209 OFFCURVE",
"492 242 CURVE",
"683 242 LINE",
"536 536 LINE",
"176 536 LINE",
"39 242 LINE",
"226 242 LINE",
"208 209 OFFCURVE",
"203 169 OFFCURVE",
"203 130 CURVE SMOOTH",
"203 0 LINE"
);
},
{
closed = 1;
nodes = (
"289 125 LINE SMOOTH",
"289 191 OFFCURVE",
"298 236 OFFCURVE",
"361 236 CURVE SMOOTH",
"425 236 OFFCURVE",
"433 198 OFFCURVE",
"433 125 CURVE SMOOTH",
"433 71 LINE",
"289 71 LINE"
);
},
{
closed = 1;
nodes = (
"224 465 LINE",
"323 465 LINE",
"323 313 LINE",
"153 313 LINE"
);
},
{
closed = 1;
nodes = (
"399 465 LINE",
"489 465 LINE",
"565 313 LINE",
"399 313 LINE"
);
}
);
width = 722;
}
);
unicode = 2C56;
},
{
glyphname = uni2C57;
lastChange = "2017-04-18 13:24:41 +0000";
layers = (
{
layerId = UUID0;
paths = (
{
closed = 1;
nodes = (
"274 -10 OFFCURVE",
"338 90 OFFCURVE",
"345 242 CURVE",
"439 242 LINE",
"446 90 OFFCURVE",
"510 -10 OFFCURVE",
"643 -10 CURVE SMOOTH",
"688 -10 OFFCURVE",
"719 -4 OFFCURVE",
"745 6 CURVE",
"745 83 LINE",
"718 72 OFFCURVE",
"692 65 OFFCURVE",
"648 65 CURVE SMOOTH",
"575 65 OFFCURVE",
"538 133 OFFCURVE",
"532 242 CURVE",
"703 242 LINE",
"703 313 LINE",
"532 313 LINE",
"538 404 OFFCURVE",
"567 470 OFFCURVE",
"651 470 CURVE SMOOTH",
"663 470 OFFCURVE",
"700 468 OFFCURVE",
"727 456 CURVE",
"745 531 LINE",
"715 541 OFFCURVE",
"678 546 OFFCURVE",
"637 546 CURVE SMOOTH",
"501 546 OFFCURVE",
"449 444 OFFCURVE",
"440 313 CURVE",
"344 313 LINE",
"334 444 OFFCURVE",
"282 546 OFFCURVE",
"147 546 CURVE SMOOTH",
"106 546 OFFCURVE",
"69 541 OFFCURVE",
"39 531 CURVE",
"57 456 LINE",
"84 468 OFFCURVE",
"121 470 OFFCURVE",
"133 470 CURVE SMOOTH",
"217 470 OFFCURVE",
"246 404 OFFCURVE",
"252 313 CURVE",
"82 313 LINE",
"82 242 LINE",
"252 242 LINE",
"247 133 OFFCURVE",
"209 65 OFFCURVE",
"136 65 CURVE SMOOTH",
"92 65 OFFCURVE",
"66 72 OFFCURVE",
"40 83 CURVE",
"40 6 LINE",
"65 -4 OFFCURVE",
"96 -10 OFFCURVE",
"141 -10 CURVE SMOOTH"
);
}
);
width = 784;
}
);
unicode = 2C57;
},
{
glyphname = uni2C58;
lastChange = "2017-04-18 13:24:41 +0000";
layers = (
{
layerId = UUID0;
paths = (
{
closed = 1;
nodes = (
"757 -10 OFFCURVE",
"788 -4 OFFCURVE",
"813 6 CURVE",
"813 83 LINE",
"786 72 OFFCURVE",
"760 65 OFFCURVE",
"716 65 CURVE SMOOTH",
"644 65 OFFCURVE",
"606 133 OFFCURVE",
"600 242 CURVE",
"771 242 LINE",
"771 313 LINE",
"600 313 LINE",
"606 404 OFFCURVE",
"636 470 OFFCURVE",
"719 470 CURVE SMOOTH",
"731 470 OFFCURVE",
"769 468 OFFCURVE",
"795 456 CURVE",
"813 531 LINE",
"784 541 OFFCURVE",
"747 546 OFFCURVE",
"705 546 CURVE SMOOTH",
"570 546 OFFCURVE",
"518 444 OFFCURVE",
"509 313 CURVE",
"418 313 LINE",
"418 464 LINE SMOOTH",
"418 521 OFFCURVE",
"414 536 OFFCURVE",
"339 536 CURVE SMOOTH",
"166 536 LINE SMOOTH",
"91 536 OFFCURVE",
"78 478 OFFCURVE",
"78 432 CURVE SMOOTH",
"78 360 OFFCURVE",
"124 306 OFFCURVE",
"196 275 CURVE",
"124 238 OFFCURVE",
"78 176 OFFCURVE",
"78 104 CURVE SMOOTH",
"78 58 OFFCURVE",
"86 0 OFFCURVE",
"175 0 CURVE SMOOTH",
"330 0 LINE SMOOTH",
"404 0 OFFCURVE",
"418 10 OFFCURVE",
"418 72 CURVE SMOOTH",
"418 242 LINE",
"508 242 LINE",
"514 90 OFFCURVE",
"578 -10 OFFCURVE",
"711 -10 CURVE SMOOTH"
);
},
{
closed = 1;
nodes = (
"166 71 OFFCURVE",
"163 91 OFFCURVE",
"163 116 CURVE SMOOTH",
"163 180 OFFCURVE",
"223 235 OFFCURVE",
"332 243 CURVE",
"332 103 LINE SMOOTH",
"332 83 OFFCURVE",
"328 71 OFFCURVE",
"308 71 CURVE SMOOTH",
"193 71 LINE SMOOTH"
);
},
{
closed = 1;
nodes = (
"219 318 OFFCURVE",
"163 356 OFFCURVE",
"163 420 CURVE SMOOTH",
"163 446 OFFCURVE",
"163 465 OFFCURVE",
"205 465 CURVE SMOOTH",
"304 465 LINE SMOOTH",
"329 465 OFFCURVE",
"332 453 OFFCURVE",
"332 433 CURVE SMOOTH",
"332 313 LINE"
);
}
);
width = 853;
}
);
unicode = 2C58;
},
{
glyphname = uni2C59;
lastChange = "2017-04-18 13:24:41 +0000";
layers = (
{
layerId = UUID0;
paths = (
{
closed = 1;
nodes = (
"942 -10 OFFCURVE",
"973 -4 OFFCURVE",
"999 6 CURVE",
"999 83 LINE",
"972 72 OFFCURVE",
"946 65 OFFCURVE",
"902 65 CURVE SMOOTH",
"829 65 OFFCURVE",
"792 133 OFFCURVE",
"786 242 CURVE",
"957 242 LINE",
"957 313 LINE",
"786 313 LINE",
"792 404 OFFCURVE",
"821 470 OFFCURVE",
"905 470 CURVE SMOOTH",
"917 470 OFFCURVE",
"954 468 OFFCURVE",
"981 456 CURVE",
"999 531 LINE",
"969 541 OFFCURVE",
"932 546 OFFCURVE",
"891 546 CURVE SMOOTH",
"755 546 OFFCURVE",
"703 444 OFFCURVE",
"694 313 CURVE",
"647 313 LINE",
"536 536 LINE",
"176 536 LINE",
"39 242 LINE",
"226 242 LINE",
"208 209 OFFCURVE",
"203 169 OFFCURVE",
"203 130 CURVE SMOOTH",
"203 0 LINE",
"519 0 LINE",
"519 129 LINE SMOOTH",
"519 168 OFFCURVE",
"512 209 OFFCURVE",
"492 242 CURVE",
"693 242 LINE",
"700 90 OFFCURVE",
"764 -10 OFFCURVE",
"897 -10 CURVE SMOOTH"
);
},
{
closed = 1;
nodes = (
"289 125 LINE SMOOTH",
"289 191 OFFCURVE",
"298 236 OFFCURVE",
"361 236 CURVE SMOOTH",
"425 236 OFFCURVE",
"433 198 OFFCURVE",
"433 125 CURVE SMOOTH",
"433 71 LINE",
"289 71 LINE"
);
},
{
closed = 1;
nodes = (
"224 465 LINE",
"323 465 LINE",
"323 313 LINE",
"153 313 LINE"
);
},
{
closed = 1;
nodes = (
"399 465 LINE",
"489 465 LINE",
"565 313 LINE",
"399 313 LINE"
);
}
);
width = 1038;
}
);
unicode = 2C59;
},
{
glyphname = uni2C5A;
lastChange = "2017-04-18 13:24:41 +0000";
layers = (
{
layerId = UUID0;
paths = (
{
closed = 1;
nodes = (
"532 -10 OFFCURVE",
"618 81 OFFCURVE",
"626 242 CURVE",
"644 242 LINE SMOOTH",
"673 242 OFFCURVE",
"678 232 OFFCURVE",
"678 208 CURVE SMOOTH",
"678 188 LINE",
"749 188 LINE",
"749 252 LINE SMOOTH",
"749 301 OFFCURVE",
"737 313 OFFCURVE",
"685 313 CURVE SMOOTH",
"625 313 LINE",
"611 462 OFFCURVE",
"523 546 OFFCURVE",
"400 546 CURVE SMOOTH",
"268 546 OFFCURVE",
"185 462 OFFCURVE",
"172 313 CURVE",
"112 313 LINE SMOOTH",
"60 313 OFFCURVE",
"49 301 OFFCURVE",
"49 252 CURVE SMOOTH",
"49 188 LINE",
"119 188 LINE",
"119 208 LINE SMOOTH",
"119 232 OFFCURVE",
"124 242 OFFCURVE",
"153 242 CURVE SMOOTH",
"171 242 LINE",
"180 81 OFFCURVE",
"271 -10 OFFCURVE",
"396 -10 CURVE SMOOTH"
);
},
{
closed = 1;
nodes = (
"307 63 OFFCURVE",
"267 131 OFFCURVE",
"262 242 CURVE",
"535 242 LINE",
"530 131 OFFCURVE",
"490 63 OFFCURVE",
"399 63 CURVE SMOOTH"
);
},
{
closed = 1;
nodes = (
"271 413 OFFCURVE",
"310 472 OFFCURVE",
"397 472 CURVE SMOOTH",
"485 472 OFFCURVE",
"526 413 OFFCURVE",
"534 313 CURVE",
"263 313 LINE"
);
}
);
width = 797;
}
);
unicode = 2C5A;
},
{
glyphname = uni2C5B;
lastChange = "2017-04-18 13:24:41 +0000";
layers = (
{
layerId = UUID0;
paths = (
{
closed = 1;
nodes = (
"360 0 LINE",
"360 46 LINE SMOOTH",
"360 100 OFFCURVE",
"353 156 OFFCURVE",
"317 190 CURVE",
"341 213 OFFCURVE",
"352 243 OFFCURVE",
"352 268 CURVE SMOOTH",
"352 292 OFFCURVE",
"341 323 OFFCURVE",
"317 345 CURVE",
"353 380 OFFCURVE",
"360 436 OFFCURVE",
"360 490 CURVE SMOOTH",
"360 536 LINE",
"78 536 LINE",
"78 489 LINE SMOOTH",
"78 435 OFFCURVE",
"80 378 OFFCURVE",
"117 344 CURVE",
"95 323 OFFCURVE",
"86 295 OFFCURVE",
"86 268 CURVE SMOOTH",
"86 241 OFFCURVE",
"95 212 OFFCURVE",
"117 191 CURVE",
"81 157 OFFCURVE",
"78 101 OFFCURVE",
"78 47 CURVE SMOOTH",
"78 0 LINE"
);
},
{
closed = 1;
nodes = (
"160 116 OFFCURVE",
"167 155 OFFCURVE",
"220 155 CURVE SMOOTH",
"274 155 OFFCURVE",
"278 120 OFFCURVE",
"278 66 CURVE",
"160 66 LINE"
);
},
{
closed = 1;
nodes = (
"178 223 OFFCURVE",
"166 250 OFFCURVE",
"166 268 CURVE SMOOTH",
"166 286 OFFCURVE",
"178 313 OFFCURVE",
"219 313 CURVE SMOOTH",
"260 313 OFFCURVE",
"272 286 OFFCURVE",
"272 268 CURVE SMOOTH",
"272 249 OFFCURVE",
"260 223 OFFCURVE",
"219 223 CURVE SMOOTH"
);
},
{
closed = 1;
nodes = (
"167 381 OFFCURVE",
"160 420 OFFCURVE",
"160 470 CURVE",
"278 470 LINE",
"278 417 OFFCURVE",
"274 381 OFFCURVE",
"220 381 CURVE SMOOTH"
);
},
{
closed = 1;
nodes = (
"454 242 LINE",
"454 313 LINE",
"320 313 LINE",
"320 242 LINE"
);
}
);
width = 483;
}
);
unicode = 2C5B;
},
{
glyphname = uni2C5C;
lastChange = "2017-04-18 13:24:41 +0000";
layers = (
{
layerId = UUID0;
paths = (
{
closed = 1;
nodes = (
"214 0 LINE",
"214 536 LINE",
"39 536 LINE",
"39 465 LINE",
"128 465 LINE",
"128 0 LINE"
);
}
);
width = 312;
}
);
unicode = 2C5C;
},
{
glyphname = uni2C5D;
lastChange = "2017-04-18 13:24:41 +0000";
layers = (
{
layerId = UUID0;
paths = (
{
closed = 1;
nodes = (
"546 0 LINE",
"546 536 LINE",
"460 536 LINE",
"460 326 LINE",
"68 509 LINE",
"68 27 LINE",
"460 207 LINE",
"460 0 LINE"
);
},
{
closed = 1;
nodes = (
"146 232 LINE",
"376 232 LINE",
"146 141 LINE"
);
},
{
closed = 1;
nodes = (
"146 395 LINE",
"376 299 LINE",
"146 299 LINE"
);
}
);
width = 644;
}
);
unicode = 2C5D;
},
{
glyphname = uni2C5E;
lastChange = "2017-04-18 13:24:41 +0000";
layers = (
{
layerId = UUID0;
paths = (
{
closed = 1;
nodes = (
"256 -10 OFFCURVE",
"279 41 OFFCURVE",
"279 83 CURVE SMOOTH",
"279 175 OFFCURVE",
"194 206 OFFCURVE",
"194 331 CURVE SMOOTH",
"194 386 OFFCURVE",
"216 458 OFFCURVE",
"343 473 CURVE",
"343 0 LINE",
"429 0 LINE",
"429 474 LINE",
"554 462 OFFCURVE",
"577 388 OFFCURVE",
"577 331 CURVE SMOOTH",
"577 206 OFFCURVE",
"492 175 OFFCURVE",
"492 83 CURVE SMOOTH",
"492 41 OFFCURVE",
"515 -10 OFFCURVE",
"607 -10 CURVE SMOOTH",
"698 -10 OFFCURVE",
"728 59 OFFCURVE",
"732 102 CURVE",
"658 114 LINE",
"652 88 OFFCURVE",
"639 62 OFFCURVE",
"612 62 CURVE SMOOTH",
"591 62 OFFCURVE",
"581 69 OFFCURVE",
"581 91 CURVE SMOOTH",
"581 154 OFFCURVE",
"667 205 OFFCURVE",
"667 331 CURVE SMOOTH",
"667 424 OFFCURVE",
"604 546 OFFCURVE",
"394 546 CURVE SMOOTH",
"246 546 OFFCURVE",
"104 487 OFFCURVE",
"104 331 CURVE SMOOTH",
"104 200 OFFCURVE",
"191 154 OFFCURVE",
"191 91 CURVE SMOOTH",
"191 69 OFFCURVE",
"181 62 OFFCURVE",
"159 62 CURVE SMOOTH",
"132 62 OFFCURVE",
"119 88 OFFCURVE",
"113 114 CURVE",
"39 102 LINE",
"43 59 OFFCURVE",
"73 -10 OFFCURVE",
"165 -10 CURVE SMOOTH"
);
}
);
width = 771;
}
);
unicode = 2C5E;
},
{
glyphname = uniA66F;
lastChange = "2017-04-18 13:24:41 +0000";
layers = (
{
layerId = UUID0;
paths = (
{
closed = 1;
nodes = (
"-195 605 OFFCURVE",
"-182 620 OFFCURVE",
"-181 651 CURVE",
"180 651 LINE",
"181 620 OFFCURVE",
"195 605 OFFCURVE",
"220 605 CURVE SMOOTH",
"247 605 OFFCURVE",
"260 621 OFFCURVE",
"260 652 CURVE SMOOTH",
"260 684 OFFCURVE",
"247 703 OFFCURVE",
"219 703 CURVE SMOOTH",
"-220 703 LINE SMOOTH",
"-247 703 OFFCURVE",
"-260 685 OFFCURVE",
"-260 652 CURVE SMOOTH",
"-260 621 OFFCURVE",
"-247 605 OFFCURVE",
"-220 605 CURVE SMOOTH"
);
}
);
width = 0;
}
);
unicode = A66F;
},
{
glyphname = u1E000;
lastChange = "2017-04-18 13:24:41 +0000";
layers = (
{
layerId = UUID0;
paths = (
{
closed = 1;
nodes = (
"-102 605 LINE",
"-102 703 LINE SMOOTH",
"-102 716 OFFCURVE",
"-100 721 OFFCURVE",
"-85 721 CURVE SMOOTH",
"-28 721 LINE",
"-28 605 LINE",
"28 605 LINE",
"28 721 LINE",
"85 721 LINE SMOOTH",
"100 721 OFFCURVE",
"102 716 OFFCURVE",
"102 703 CURVE SMOOTH",
"102 605 LINE",
"158 605 LINE",
"158 719 LINE SMOOTH",
"158 750 OFFCURVE",
"156 765 OFFCURVE",
"119 765 CURVE SMOOTH",
"28 765 LINE",
"28 874 LINE",
"-28 874 LINE",
"-28 765 LINE",
"-119 765 LINE SMOOTH",
"-156 765 OFFCURVE",
"-158 750 OFFCURVE",
"-158 719 CURVE SMOOTH",
"-158 605 LINE"
);
}
);
width = 0;
}
);
unicode = 1E000;
},
{
glyphname = u1E001;
lastChange = "2017-04-18 13:24:41 +0000";
layers = (
{
layerId = UUID0;
paths = (
{
closed = 1;
nodes = (
"149 605 LINE",
"149 649 LINE",
"-85 649 LINE SMOOTH",
"-95 649 OFFCURVE",
"-102 649 OFFCURVE",
"-102 667 CURVE SMOOTH",
"-102 709 LINE",
"115 729 LINE SMOOTH",
"156 733 OFFCURVE",
"158 741 OFFCURVE",
"158 769 CURVE SMOOTH",
"158 874 LINE",
"102 874 LINE",
"102 789 LINE SMOOTH",
"102 775 OFFCURVE",
"100 771 OFFCURVE",
"86 770 CURVE SMOOTH",
"28 765 LINE",
"28 874 LINE",
"-28 874 LINE",
"-28 761 LINE",
"-102 753 LINE",
"-102 874 LINE",
"-158 874 LINE",
"-158 651 LINE SMOOTH",
"-158 616 OFFCURVE",
"-152 605 OFFCURVE",
"-119 605 CURVE SMOOTH"
);
}
);
width = 0;
}
);
unicode = 1E001;
},
{
glyphname = u1E002;
lastChange = "2017-04-18 13:24:41 +0000";
layers = (
{
layerId = UUID0;
paths = (
{
closed = 1;
nodes = (
"164 605 LINE SMOOTH",
"198 605 OFFCURVE",
"203 618 OFFCURVE",
"203 651 CURVE SMOOTH",
"203 828 LINE SMOOTH",
"203 861 OFFCURVE",
"198 874 OFFCURVE",
"164 874 CURVE SMOOTH",
"63 874 LINE SMOOTH",
"30 874 OFFCURVE",
"25 862 OFFCURVE",
"25 829 CURVE SMOOTH",
"25 649 LINE",
"-25 649 LINE",
"-25 829 LINE SMOOTH",
"-25 862 OFFCURVE",
"-30 874 OFFCURVE",
"-63 874 CURVE SMOOTH",
"-164 874 LINE SMOOTH",
"-198 874 OFFCURVE",
"-203 861 OFFCURVE",
"-203 828 CURVE SMOOTH",
"-203 651 LINE SMOOTH",
"-203 618 OFFCURVE",
"-198 605 OFFCURVE",
"-164 605 CURVE SMOOTH"
);
},
{
closed = 1;
nodes = (
"-142 649 OFFCURVE",
"-147 651 OFFCURVE",
"-147 667 CURVE SMOOTH",
"-147 813 LINE SMOOTH",
"-147 828 OFFCURVE",
"-142 830 OFFCURVE",
"-130 830 CURVE SMOOTH",
"-98 830 LINE SMOOTH",
"-85 830 OFFCURVE",
"-81 828 OFFCURVE",
"-81 813 CURVE SMOOTH",
"-81 649 LINE",
"-130 649 LINE SMOOTH"
);
},
{
closed = 1;
nodes = (
"81 813 LINE SMOOTH",
"81 828 OFFCURVE",
"85 830 OFFCURVE",
"98 830 CURVE SMOOTH",
"130 830 LINE SMOOTH",
"142 830 OFFCURVE",
"147 828 OFFCURVE",
"147 813 CURVE SMOOTH",
"147 667 LINE SMOOTH",
"147 651 OFFCURVE",
"142 649 OFFCURVE",
"130 649 CURVE SMOOTH",
"81 649 LINE"
);
}
);
width = 0;
}
);
unicode = 1E002;
},
{
glyphname = u1E003;
lastChange = "2017-04-18 13:24:41 +0000";
layers = (
{
layerId = UUID0;
paths = (
{
closed = 1;
nodes = (
"-87 605 LINE",
"-46 697 LINE",
"8 697 LINE",
"8 651 LINE SMOOTH",
"8 618 OFFCURVE",
"13 605 OFFCURVE",
"46 605 CURVE SMOOTH",
"183 605 LINE",
"183 719 LINE SMOOTH",
"183 752 OFFCURVE",
"178 765 OFFCURVE",
"144 765 CURVE SMOOTH",
"46 765 LINE SMOOTH",
"22 765 OFFCURVE",
"12 756 OFFCURVE",
"9 741 CURVE",
"-30 741 LINE",
"28 874 LINE",
"-159 874 LINE SMOOTH",
"-170 874 OFFCURVE",
"-183 869 OFFCURVE",
"-183 854 CURVE SMOOTH",
"-183 817 LINE SMOOTH",
"-183 769 OFFCURVE",
"-156 718 OFFCURVE",
"-98 702 CURVE",
"-140 605 LINE"
);
},
{
closed = 1;
nodes = (
"-121 758 OFFCURVE",
"-127 786 OFFCURVE",
"-127 812 CURVE SMOOTH",
"-127 826 OFFCURVE",
"-125 830 OFFCURVE",
"-113 830 CURVE SMOOTH",
"-45 830 LINE",
"-82 747 LINE"
);
},
{
closed = 1;
nodes = (
"68 649 OFFCURVE",
"63 651 OFFCURVE",
"63 667 CURVE SMOOTH",
"63 703 LINE SMOOTH",
"63 718 OFFCURVE",
"68 720 OFFCURVE",
"80 720 CURVE SMOOTH",
"111 720 LINE SMOOTH",
"123 720 OFFCURVE",
"127 718 OFFCURVE",
"127 703 CURVE SMOOTH",
"127 649 LINE",
"80 649 LINE SMOOTH"
);
}
);
width = 0;
}
);
unicode = 1E003;
},
{
glyphname = u1E004;
lastChange = "2017-04-18 13:24:41 +0000";
layers = (
{
layerId = UUID0;
paths = (
{
closed = 1;
nodes = (
"-80 605 LINE SMOOTH",
"-36 605 OFFCURVE",
"-25 618 OFFCURVE",
"-25 656 CURVE SMOOTH",
"-25 830 LINE",
"11 830 LINE",
"23 830 OFFCURVE",
"28 828 OFFCURVE",
"28 813 CURVE SMOOTH",
"28 651 LINE SMOOTH",
"28 618 OFFCURVE",
"33 605 OFFCURVE",
"66 605 CURVE SMOOTH",
"164 605 LINE SMOOTH",
"198 605 OFFCURVE",
"203 618 OFFCURVE",
"203 651 CURVE SMOOTH",
"203 729 LINE SMOOTH",
"203 762 OFFCURVE",
"198 774 OFFCURVE",
"164 774 CURVE SMOOTH",
"83 774 LINE",
"83 828 LINE SMOOTH",
"83 861 OFFCURVE",
"73 874 OFFCURVE",
"40 874 CURVE SMOOTH",
"-147 874 LINE SMOOTH",
"-191 874 OFFCURVE",
"-203 861 OFFCURVE",
"-203 823 CURVE SMOOTH",
"-203 656 LINE SMOOTH",
"-203 619 OFFCURVE",
"-191 605 OFFCURVE",
"-147 605 CURVE SMOOTH"
);
},
{
closed = 1;
nodes = (
"-142 649 OFFCURVE",
"-147 654 OFFCURVE",
"-147 672 CURVE SMOOTH",
"-147 808 LINE SMOOTH",
"-147 826 OFFCURVE",
"-142 830 OFFCURVE",
"-123 830 CURVE SMOOTH",
"-81 830 LINE",
"-81 672 LINE SMOOTH",
"-81 654 OFFCURVE",
"-85 649 OFFCURVE",
"-105 649 CURVE SMOOTH",
"-123 649 LINE SMOOTH"
);
},
{
closed = 1;
nodes = (
"88 649 OFFCURVE",
"83 651 OFFCURVE",
"83 667 CURVE SMOOTH",
"83 730 LINE",
"130 730 LINE SMOOTH",
"143 730 OFFCURVE",
"147 728 OFFCURVE",
"147 713 CURVE SMOOTH",
"147 667 LINE SMOOTH",
"147 651 OFFCURVE",
"143 649 OFFCURVE",
"130 649 CURVE SMOOTH",
"101 649 LINE"
);
}
);
width = 0;
}
);
unicode = 1E004;
},
{
glyphname = u1E005;
lastChange = "2017-04-18 13:24:41 +0000";
layers = (
{
layerId = UUID0;
paths = (
{
closed = 1;
nodes = (
"51 601 OFFCURVE",
"114 642 OFFCURVE",
"114 738 CURVE SMOOTH",
"114 839 OFFCURVE",
"55 879 OFFCURVE",
"-28 879 CURVE SMOOTH",
"-58 879 OFFCURVE",
"-89 872 OFFCURVE",
"-110 863 CURVE",
"-95 819 LINE",
"-75 826 OFFCURVE",
"-48 832 OFFCURVE",
"-27 832 CURVE SMOOTH",
"18 832 OFFCURVE",
"48 814 OFFCURVE",
"54 765 CURVE",
"-83 765 LINE",
"-83 723 LINE",
"55 723 LINE",
"48 674 OFFCURVE",
"21 646 OFFCURVE",
"-34 646 CURVE SMOOTH",
"-66 646 OFFCURVE",
"-90 654 OFFCURVE",
"-114 662 CURVE",
"-114 615 LINE",
"-92 606 OFFCURVE",
"-69 601 OFFCURVE",
"-35 601 CURVE SMOOTH"
);
}
);
width = 0;
}
);
unicode = 1E005;
},
{
glyphname = u1E006;
lastChange = "2017-04-18 13:24:41 +0000";
layers = (
{
layerId = UUID0;
paths = (
{
closed = 1;
nodes = (
"-63 605 LINE SMOOTH",
"-30 605 OFFCURVE",
"-25 618 OFFCURVE",
"-25 651 CURVE SMOOTH",
"-25 830 LINE",
"25 830 LINE",
"25 651 LINE SMOOTH",
"25 618 OFFCURVE",
"30 605 OFFCURVE",
"63 605 CURVE SMOOTH",
"164 605 LINE SMOOTH",
"198 605 OFFCURVE",
"203 618 OFFCURVE",
"203 651 CURVE SMOOTH",
"203 829 LINE SMOOTH",
"203 861 OFFCURVE",
"198 874 OFFCURVE",
"164 874 CURVE SMOOTH",
"39 874 LINE",
"50 891 OFFCURVE",
"74 902 OFFCURVE",
"115 902 CURVE SMOOTH",
"126 902 LINE",
"126 945 LINE",
"118 945 LINE SMOOTH",
"53 945 OFFCURVE",
"18 921 OFFCURVE",
"0 895 CURVE",
"-18 921 OFFCURVE",
"-53 945 OFFCURVE",
"-118 945 CURVE SMOOTH",
"-126 945 LINE",
"-126 902 LINE",
"-115 902 LINE SMOOTH",
"-74 902 OFFCURVE",
"-50 891 OFFCURVE",
"-39 874 CURVE",
"-164 874 LINE SMOOTH",
"-198 874 OFFCURVE",
"-203 861 OFFCURVE",
"-203 829 CURVE SMOOTH",
"-203 651 LINE SMOOTH",
"-203 618 OFFCURVE",
"-198 605 OFFCURVE",
"-164 605 CURVE SMOOTH"
);
},
{
closed = 1;
nodes = (
"-142 649 OFFCURVE",
"-147 652 OFFCURVE",
"-147 667 CURVE SMOOTH",
"-147 813 LINE SMOOTH",
"-147 828 OFFCURVE",
"-142 830 OFFCURVE",
"-130 830 CURVE SMOOTH",
"-81 830 LINE",
"-81 667 LINE SMOOTH",
"-81 652 OFFCURVE",
"-85 649 OFFCURVE",
"-98 649 CURVE SMOOTH",
"-130 649 LINE SMOOTH"
);
},
{
closed = 1;
nodes = (
"85 649 OFFCURVE",
"81 652 OFFCURVE",
"81 667 CURVE SMOOTH",
"81 830 LINE",
"130 830 LINE SMOOTH",
"142 830 OFFCURVE",
"147 828 OFFCURVE",
"147 813 CURVE SMOOTH",
"147 667 LINE SMOOTH",
"147 652 OFFCURVE",
"142 649 OFFCURVE",
"130 649 CURVE SMOOTH",
"98 649 LINE SMOOTH"
);
}
);
width = 0;
}
);
unicode = 1E006;
},
{
glyphname = u1E008;
lastChange = "2017-04-18 13:24:41 +0000";
layers = (
{
layerId = UUID0;
paths = (
{
closed = 1;
nodes = (
"-132 605 LINE SMOOTH",
"-67 605 OFFCURVE",
"-23 651 OFFCURVE",
"-18 725 CURVE",
"15 725 LINE",
"15 651 LINE SMOOTH",
"15 618 OFFCURVE",
"20 605 OFFCURVE",
"53 605 CURVE SMOOTH",
"151 605 LINE SMOOTH",
"186 605 OFFCURVE",
"190 618 OFFCURVE",
"190 651 CURVE SMOOTH",
"190 724 LINE SMOOTH",
"190 757 OFFCURVE",
"186 769 OFFCURVE",
"151 769 CURVE SMOOTH",
"-18 769 LINE",
"-25 843 OFFCURVE",
"-69 874 OFFCURVE",
"-132 874 CURVE SMOOTH",
"-189 874 LINE",
"-189 605 LINE"
);
},
{
closed = 1;
nodes = (
"-134 725 LINE",
"-75 725 LINE",
"-78 674 OFFCURVE",
"-91 649 OFFCURVE",
"-125 649 CURVE SMOOTH",
"-134 649 LINE"
);
},
{
closed = 1;
nodes = (
"-134 830 LINE",
"-124 830 LINE SMOOTH",
"-102 830 OFFCURVE",
"-80 813 OFFCURVE",
"-76 769 CURVE",
"-134 769 LINE"
);
},
{
closed = 1;
nodes = (
"75 649 OFFCURVE",
"70 651 OFFCURVE",
"70 667 CURVE SMOOTH",
"70 725 LINE",
"117 725 LINE SMOOTH",
"129 725 OFFCURVE",
"134 723 OFFCURVE",
"134 708 CURVE SMOOTH",
"134 667 LINE SMOOTH",
"134 651 OFFCURVE",
"129 649 OFFCURVE",
"117 649 CURVE SMOOTH",
"87 649 LINE SMOOTH"
);
}
);
width = 0;
}
);
unicode = 1E008;
},
{
glyphname = u1E009;
lastChange = "2017-04-18 13:24:41 +0000";
layers = (
{
layerId = UUID0;
paths = (
{
closed = 1;
nodes = (
"67 605 LINE",
"67 649 LINE",
"28 649 LINE",
"28 720 LINE",
"43 724 OFFCURVE",
"54 732 OFFCURVE",
"63 741 CURVE",
"77 726 OFFCURVE",
"98 717 OFFCURVE",
"126 717 CURVE SMOOTH",
"188 717 OFFCURVE",
"217 751 OFFCURVE",
"217 808 CURVE SMOOTH",
"217 874 LINE",
"-217 874 LINE",
"-217 808 LINE SMOOTH",
"-217 751 OFFCURVE",
"-188 717 OFFCURVE",
"-125 717 CURVE SMOOTH",
"-98 717 OFFCURVE",
"-79 726 OFFCURVE",
"-64 740 CURVE",
"-55 729 OFFCURVE",
"-45 723 OFFCURVE",
"-28 720 CURVE",
"-28 649 LINE",
"-67 649 LINE",
"-67 605 LINE"
);
},
{
closed = 1;
nodes = (
"-159 762 OFFCURVE",
"-161 780 OFFCURVE",
"-161 813 CURVE SMOOTH",
"-161 830 LINE",
"-90 830 LINE",
"-90 813 LINE SMOOTH",
"-90 777 OFFCURVE",
"-93 762 OFFCURVE",
"-125 762 CURVE SMOOTH"
);
},
{
closed = 1;
nodes = (
"-31 762 OFFCURVE",
"-35 779 OFFCURVE",
"-35 810 CURVE SMOOTH",
"-35 830 LINE",
"35 830 LINE",
"35 813 LINE SMOOTH",
"35 777 OFFCURVE",
"33 762 OFFCURVE",
"0 762 CURVE SMOOTH"
);
},
{
closed = 1;
nodes = (
"94 762 OFFCURVE",
"91 776 OFFCURVE",
"91 810 CURVE SMOOTH",
"91 830 LINE",
"162 830 LINE",
"162 813 LINE SMOOTH",
"162 780 OFFCURVE",
"159 762 OFFCURVE",
"126 762 CURVE SMOOTH"
);
}
);
width = 0;
}
);
unicode = 1E009;
},
{
glyphname = u1E00A;
lastChange = "2017-04-18 13:24:41 +0000";
layers = (
{
layerId = UUID0;
paths = (
{
closed = 1;
nodes = (
"92 605 LINE",
"92 669 LINE SMOOTH",
"92 695 OFFCURVE",
"82 721 OFFCURVE",
"61 738 CURVE",
"63 741 LINE",
"77 726 OFFCURVE",
"98 717 OFFCURVE",
"126 717 CURVE SMOOTH",
"188 717 OFFCURVE",
"217 751 OFFCURVE",
"217 808 CURVE SMOOTH",
"217 874 LINE",
"-217 874 LINE",
"-217 808 LINE SMOOTH",
"-217 751 OFFCURVE",
"-188 717 OFFCURVE",
"-125 717 CURVE SMOOTH",
"-98 717 OFFCURVE",
"-79 726 OFFCURVE",
"-64 740 CURVE",
"-62 737 LINE",
"-82 720 OFFCURVE",
"-89 694 OFFCURVE",
"-89 669 CURVE SMOOTH",
"-89 605 LINE"
);
},
{
closed = 1;
nodes = (
"-159 762 OFFCURVE",
"-161 780 OFFCURVE",
"-161 813 CURVE SMOOTH",
"-161 830 LINE",
"-90 830 LINE",
"-90 813 LINE SMOOTH",
"-90 777 OFFCURVE",
"-93 762 OFFCURVE",
"-125 762 CURVE SMOOTH"
);
},
{
closed = 1;
nodes = (
"-34 669 LINE SMOOTH",
"-34 699 OFFCURVE",
"-32 719 OFFCURVE",
"1 719 CURVE SMOOTH",
"34 719 OFFCURVE",
"36 702 OFFCURVE",
"36 669 CURVE SMOOTH",
"36 649 LINE",
"-34 649 LINE"
);
},
{
closed = 1;
nodes = (
"-31 762 OFFCURVE",
"-35 779 OFFCURVE",
"-35 810 CURVE SMOOTH",
"-35 830 LINE",
"35 830 LINE",
"35 813 LINE SMOOTH",
"35 777 OFFCURVE",
"33 762 OFFCURVE",
"0 762 CURVE SMOOTH"
);
},
{
closed = 1;
nodes = (
"94 762 OFFCURVE",
"91 776 OFFCURVE",
"91 810 CURVE SMOOTH",
"91 830 LINE",
"162 830 LINE",
"162 813 LINE SMOOTH",
"162 780 OFFCURVE",
"159 762 OFFCURVE",
"126 762 CURVE SMOOTH"
);
}
);
width = 0;
}
);
unicode = 1E00A;
},
{
glyphname = u1E00B;
lastChange = "2017-04-18 13:24:41 +0000";
layers = (
{
layerId = UUID0;
paths = (
{
closed = 1;
nodes = (
"91 605 LINE",
"91 674 LINE SMOOTH",
"91 700 OFFCURVE",
"80 727 OFFCURVE",
"59 744 CURVE",
"80 763 OFFCURVE",
"91 791 OFFCURVE",
"91 817 CURVE SMOOTH",
"91 874 LINE",
"-91 874 LINE",
"-91 816 LINE SMOOTH",
"-91 791 OFFCURVE",
"-83 763 OFFCURVE",
"-61 744 CURVE",
"-83 727 OFFCURVE",
"-91 700 OFFCURVE",
"-91 674 CURVE SMOOTH",
"-91 605 LINE"
);
},
{
closed = 1;
nodes = (
"-35 674 LINE SMOOTH",
"-35 701 OFFCURVE",
"-32 722 OFFCURVE",
"0 722 CURVE SMOOTH",
"33 722 OFFCURVE",
"36 704 OFFCURVE",
"36 674 CURVE SMOOTH",
"36 649 LINE",
"-35 649 LINE"
);
},
{
closed = 1;
nodes = (
"-32 766 OFFCURVE",
"-35 786 OFFCURVE",
"-35 815 CURVE SMOOTH",
"-35 830 LINE",
"36 830 LINE",
"36 815 LINE SMOOTH",
"36 783 OFFCURVE",
"33 766 OFFCURVE",
"0 766 CURVE SMOOTH"
);
}
);
width = 0;
}
);
unicode = 1E00B;
},
{
glyphname = u1E00C;
lastChange = "2017-04-18 13:24:41 +0000";
layers = (
{
layerId = UUID0;
paths = (
{
closed = 1;
nodes = (
"-155 605 LINE",
"-155 808 LINE SMOOTH",
"-155 826 OFFCURVE",
"-155 830 OFFCURVE",
"-135 830 CURVE SMOOTH",
"-107 830 LINE SMOOTH",
"-88 830 OFFCURVE",
"-88 826 OFFCURVE",
"-88 808 CURVE SMOOTH",
"-88 605 LINE",
"-32 605 LINE",
"-32 714 LINE",
"22 714 LINE",
"22 605 LINE",
"78 605 LINE",
"78 713 LINE",
"172 718 OFFCURVE",
"210 757 OFFCURVE",
"210 817 CURVE SMOOTH",
"210 849 LINE SMOOTH",
"210 866 OFFCURVE",
"199 874 OFFCURVE",
"183 874 CURVE SMOOTH",
"62 874 LINE SMOOTH",
"27 874 OFFCURVE",
"22 859 OFFCURVE",
"22 831 CURVE SMOOTH",
"22 757 LINE",
"-32 757 LINE",
"-32 823 LINE SMOOTH",
"-32 861 OFFCURVE",
"-35 874 OFFCURVE",
"-80 874 CURVE SMOOTH",
"-163 874 LINE SMOOTH",
"-208 874 OFFCURVE",
"-210 863 OFFCURVE",
"-210 826 CURVE SMOOTH",
"-210 605 LINE"
);
},
{
closed = 1;
nodes = (
"78 814 LINE SMOOTH",
"78 825 OFFCURVE",
"83 830 OFFCURVE",
"94 830 CURVE SMOOTH",
"143 830 LINE SMOOTH",
"153 830 OFFCURVE",
"155 823 OFFCURVE",
"155 812 CURVE SMOOTH",
"155 793 OFFCURVE",
"146 761 OFFCURVE",
"78 757 CURVE"
);
}
);
width = 0;
}
);
unicode = 1E00C;
},
{
glyphname = u1E00D;
lastChange = "2017-04-18 13:24:41 +0000";
layers = (
{
layerId = UUID0;
paths = (
{
closed = 1;
nodes = (
"81 605 LINE",
"81 719 LINE SMOOTH",
"81 752 OFFCURVE",
"71 765 OFFCURVE",
"37 765 CURVE SMOOTH",
"-18 765 LINE",
"15 874 LINE",
"-37 874 LINE",
"-81 721 LINE",
"8 721 LINE SMOOTH",
"20 721 OFFCURVE",
"25 718 OFFCURVE",
"25 703 CURVE SMOOTH",
"25 605 LINE"
);
}
);
width = 0;
}
);
unicode = 1E00D;
},
{
glyphname = u1E00E;
lastChange = "2017-04-18 13:24:41 +0000";
layers = (
{
layerId = UUID0;
paths = (
{
closed = 1;
nodes = (
"-66 605 LINE SMOOTH",
"-33 605 OFFCURVE",
"-25 618 OFFCURVE",
"-25 651 CURVE SMOOTH",
"-25 721 LINE",
"25 721 LINE",
"25 651 LINE SMOOTH",
"25 618 OFFCURVE",
"33 605 OFFCURVE",
"66 605 CURVE SMOOTH",
"164 605 LINE SMOOTH",
"197 605 OFFCURVE",
"203 618 OFFCURVE",
"203 651 CURVE SMOOTH",
"203 719 LINE SMOOTH",
"203 752 OFFCURVE",
"197 765 OFFCURVE",
"164 765 CURVE SMOOTH",
"81 765 LINE",
"81 831 LINE SMOOTH",
"81 869 OFFCURVE",
"76 874 OFFCURVE",
"36 874 CURVE SMOOTH",
"-36 874 LINE SMOOTH",
"-75 874 OFFCURVE",
"-81 868 OFFCURVE",
"-81 831 CURVE SMOOTH",
"-81 765 LINE",
"-164 765 LINE SMOOTH",
"-197 765 OFFCURVE",
"-203 752 OFFCURVE",
"-203 719 CURVE SMOOTH",
"-203 651 LINE SMOOTH",
"-203 618 OFFCURVE",
"-197 605 OFFCURVE",
"-164 605 CURVE SMOOTH"
);
},
{
closed = 1;
nodes = (
"-142 649 OFFCURVE",
"-147 651 OFFCURVE",
"-147 667 CURVE SMOOTH",
"-147 703 LINE SMOOTH",
"-147 718 OFFCURVE",
"-142 721 OFFCURVE",
"-130 721 CURVE SMOOTH",
"-81 721 LINE",
"-81 667 LINE SMOOTH",
"-81 651 OFFCURVE",
"-85 649 OFFCURVE",
"-97 649 CURVE SMOOTH",
"-130 649 LINE SMOOTH"
);
},
{
closed = 1;
nodes = (
"-25 808 LINE SMOOTH",
"-25 826 OFFCURVE",
"-25 830 OFFCURVE",
"-11 830 CURVE SMOOTH",
"11 830 LINE SMOOTH",
"25 830 OFFCURVE",
"25 826 OFFCURVE",
"25 808 CURVE SMOOTH",
"25 765 LINE",
"-25 765 LINE"
);
},
{
closed = 1;
nodes = (
"86 649 OFFCURVE",
"81 651 OFFCURVE",
"81 667 CURVE SMOOTH",
"81 721 LINE",
"130 721 LINE SMOOTH",
"142 721 OFFCURVE",
"147 718 OFFCURVE",
"147 703 CURVE SMOOTH",
"147 667 LINE SMOOTH",
"147 651 OFFCURVE",
"142 649 OFFCURVE",
"130 649 CURVE SMOOTH",
"98 649 LINE SMOOTH"
);
}
);
width = 0;
}
);
unicode = 1E00E;
},
{
glyphname = u1E00F;
lastChange = "2017-04-18 13:24:41 +0000";
layers = (
{
layerId = UUID0;
paths = (
{
closed = 1;
nodes = (
"-96 605 LINE",
"-96 782 LINE SMOOTH",
"-96 811 OFFCURVE",
"-96 834 OFFCURVE",
"-63 834 CURVE SMOOTH",
"-31 834 OFFCURVE",
"-28 815 OFFCURVE",
"-28 782 CURVE SMOOTH",
"-28 605 LINE",
"28 605 LINE",
"28 782 LINE SMOOTH",
"28 814 OFFCURVE",
"30 834 OFFCURVE",
"63 834 CURVE SMOOTH",
"96 834 OFFCURVE",
"96 811 OFFCURVE",
"96 782 CURVE SMOOTH",
"96 605 LINE",
"151 605 LINE",
"151 790 LINE SMOOTH",
"151 833 OFFCURVE",
"133 879 OFFCURVE",
"63 879 CURVE SMOOTH",
"34 879 OFFCURVE",
"14 871 OFFCURVE",
"0 856 CURVE",
"-14 871 OFFCURVE",
"-35 879 OFFCURVE",
"-63 879 CURVE SMOOTH",
"-133 879 OFFCURVE",
"-151 833 OFFCURVE",
"-151 790 CURVE SMOOTH",
"-151 605 LINE"
);
}
);
width = 0;
}
);
unicode = 1E00F;
},
{
glyphname = u1E010;
lastChange = "2017-04-18 13:24:41 +0000";
layers = (
{
layerId = UUID0;
paths = (
{
closed = 1;
nodes = (
"-38 605 LINE",
"-38 713 LINE",
"56 718 OFFCURVE",
"94 757 OFFCURVE",
"94 817 CURVE SMOOTH",
"94 849 LINE SMOOTH",
"94 866 OFFCURVE",
"83 874 OFFCURVE",
"67 874 CURVE SMOOTH",
"-54 874 LINE SMOOTH",
"-89 874 OFFCURVE",
"-94 859 OFFCURVE",
"-94 831 CURVE SMOOTH",
"-94 605 LINE"
);
},
{
closed = 1;
nodes = (
"-38 814 LINE SMOOTH",
"-38 825 OFFCURVE",
"-33 830 OFFCURVE",
"-22 830 CURVE SMOOTH",
"27 830 LINE SMOOTH",
"37 830 OFFCURVE",
"39 823 OFFCURVE",
"39 812 CURVE SMOOTH",
"39 793 OFFCURVE",
"29 761 OFFCURVE",
"-38 757 CURVE"
);
}
);
width = 0;
}
);
unicode = 1E010;
},
{
glyphname = u1E011;
lastChange = "2017-04-18 13:24:41 +0000";
layers = (
{
layerId = UUID0;
paths = (
{
closed = 1;
nodes = (
"46 605 LINE SMOOTH",
"88 605 OFFCURVE",
"96 611 OFFCURVE",
"96 643 CURVE SMOOTH",
"96 836 LINE SMOOTH",
"96 866 OFFCURVE",
"94 874 OFFCURVE",
"51 874 CURVE SMOOTH",
"-44 874 LINE SMOOTH",
"-86 874 OFFCURVE",
"-96 844 OFFCURVE",
"-96 820 CURVE SMOOTH",
"-96 784 OFFCURVE",
"-73 760 OFFCURVE",
"-34 744 CURVE",
"-72 726 OFFCURVE",
"-96 695 OFFCURVE",
"-96 659 CURVE SMOOTH",
"-96 635 OFFCURVE",
"-92 605 OFFCURVE",
"-41 605 CURVE SMOOTH"
);
},
{
closed = 1;
nodes = (
"-39 649 OFFCURVE",
"-41 659 OFFCURVE",
"-41 670 CURVE SMOOTH",
"-41 695 OFFCURVE",
"-18 720 OFFCURVE",
"41 725 CURVE",
"41 664 LINE SMOOTH",
"41 655 OFFCURVE",
"39 649 OFFCURVE",
"29 649 CURVE SMOOTH",
"-26 649 LINE SMOOTH"
);
},
{
closed = 1;
nodes = (
"-19 767 OFFCURVE",
"-41 790 OFFCURVE",
"-41 810 CURVE SMOOTH",
"-41 821 OFFCURVE",
"-41 830 OFFCURVE",
"-20 830 CURVE SMOOTH",
"27 830 LINE SMOOTH",
"39 830 OFFCURVE",
"41 825 OFFCURVE",
"41 816 CURVE SMOOTH",
"41 765 LINE"
);
}
);
width = 0;
}
);
unicode = 1E011;
},
{
glyphname = u1E012;
lastChange = "2017-04-18 13:24:41 +0000";
layers = (
{
layerId = UUID0;
paths = (
{
closed = 1;
nodes = (
"-84 605 LINE",
"-84 808 LINE SMOOTH",
"-84 826 OFFCURVE",
"-84 830 OFFCURVE",
"-65 830 CURVE SMOOTH",
"-37 830 LINE",
"-37 728 LINE SMOOTH",
"-37 695 OFFCURVE",
"-32 683 OFFCURVE",
"2 683 CURVE SMOOTH",
"102 683 LINE SMOOTH",
"135 683 OFFCURVE",
"141 695 OFFCURVE",
"141 728 CURVE SMOOTH",
"141 828 LINE SMOOTH",
"141 861 OFFCURVE",
"135 874 OFFCURVE",
"102 874 CURVE SMOOTH",
"-93 874 LINE SMOOTH",
"-137 874 OFFCURVE",
"-140 863 OFFCURVE",
"-140 826 CURVE SMOOTH",
"-140 605 LINE"
);
},
{
closed = 1;
nodes = (
"24 727 OFFCURVE",
"19 729 OFFCURVE",
"19 744 CURVE SMOOTH",
"19 830 LINE",
"68 830 LINE SMOOTH",
"80 830 OFFCURVE",
"85 828 OFFCURVE",
"85 813 CURVE SMOOTH",
"85 744 LINE SMOOTH",
"85 729 OFFCURVE",
"80 727 OFFCURVE",
"68 727 CURVE SMOOTH",
"36 727 LINE SMOOTH"
);
}
);
width = 0;
}
);
unicode = 1E012;
},
{
glyphname = u1E013;
lastChange = "2017-04-18 13:24:41 +0000";
layers = (
{
layerId = UUID0;
paths = (
{
closed = 1;
nodes = (
"52 605 LINE SMOOTH",
"68 605 OFFCURVE",
"94 617 OFFCURVE",
"94 649 CURVE SMOOTH",
"94 662 LINE SMOOTH",
"94 714 OFFCURVE",
"56 762 OFFCURVE",
"-38 766 CURVE",
"-38 874 LINE",
"-94 874 LINE",
"-94 649 LINE SMOOTH",
"-94 621 OFFCURVE",
"-89 605 OFFCURVE",
"-54 605 CURVE SMOOTH"
);
},
{
closed = 1;
nodes = (
"-33 649 OFFCURVE",
"-38 655 OFFCURVE",
"-38 666 CURVE SMOOTH",
"-38 723 LINE",
"29 719 OFFCURVE",
"39 687 OFFCURVE",
"39 668 CURVE SMOOTH",
"39 656 OFFCURVE",
"37 649 OFFCURVE",
"27 649 CURVE SMOOTH",
"-22 649 LINE SMOOTH"
);
}
);
width = 0;
}
);
unicode = 1E013;
},
{
glyphname = u1E014;
lastChange = "2017-04-18 13:24:41 +0000";
layers = (
{
layerId = UUID0;
paths = (
{
closed = 1;
nodes = (
"91 605 LINE",
"91 684 LINE",
"130 706 OFFCURVE",
"146 741 OFFCURVE",
"146 775 CURVE SMOOTH",
"146 823 OFFCURVE",
"107 879 OFFCURVE",
"0 879 CURVE SMOOTH",
"-107 879 OFFCURVE",
"-145 823 OFFCURVE",
"-145 775 CURVE SMOOTH",
"-145 741 OFFCURVE",
"-130 706 OFFCURVE",
"-91 684 CURVE",
"-91 605 LINE"
);
},
{
closed = 1;
nodes = (
"-35 671 LINE SMOOTH",
"-35 701 OFFCURVE",
"-33 727 OFFCURVE",
"0 727 CURVE SMOOTH",
"33 727 OFFCURVE",
"36 705 OFFCURVE",
"36 672 CURVE SMOOTH",
"36 649 LINE",
"-35 649 LINE"
);
},
{
closed = 1;
nodes = (
"64 754 OFFCURVE",
"38 772 OFFCURVE",
"0 772 CURVE SMOOTH",
"-41 772 OFFCURVE",
"-65 755 OFFCURVE",
"-77 734 CURVE",
"-86 747 OFFCURVE",
"-89 757 OFFCURVE",
"-89 776 CURVE SMOOTH",
"-89 815 OFFCURVE",
"-53 834 OFFCURVE",
"0 834 CURVE SMOOTH",
"52 834 OFFCURVE",
"89 813 OFFCURVE",
"89 776 CURVE SMOOTH",
"89 757 OFFCURVE",
"87 744 OFFCURVE",
"76 733 CURVE"
);
}
);
width = 0;
}
);
unicode = 1E014;
},
{
glyphname = u1E015;
lastChange = "2017-04-18 13:24:41 +0000";
layers = (
{
layerId = UUID0;
paths = (
{
closed = 1;
nodes = (
"-63 605 LINE SMOOTH",
"-30 605 OFFCURVE",
"-25 618 OFFCURVE",
"-25 651 CURVE SMOOTH",
"-25 830 LINE",
"25 830 LINE",
"25 651 LINE SMOOTH",
"25 618 OFFCURVE",
"30 605 OFFCURVE",
"63 605 CURVE SMOOTH",
"164 605 LINE SMOOTH",
"198 605 OFFCURVE",
"203 618 OFFCURVE",
"203 651 CURVE SMOOTH",
"203 829 LINE SMOOTH",
"203 861 OFFCURVE",
"198 874 OFFCURVE",
"164 874 CURVE SMOOTH",
"-164 874 LINE SMOOTH",
"-198 874 OFFCURVE",
"-203 861 OFFCURVE",
"-203 829 CURVE SMOOTH",
"-203 651 LINE SMOOTH",
"-203 618 OFFCURVE",
"-198 605 OFFCURVE",
"-164 605 CURVE SMOOTH"
);
},
{
closed = 1;
nodes = (
"-142 649 OFFCURVE",
"-147 652 OFFCURVE",
"-147 667 CURVE SMOOTH",
"-147 813 LINE SMOOTH",
"-147 828 OFFCURVE",
"-142 830 OFFCURVE",
"-130 830 CURVE SMOOTH",
"-81 830 LINE",
"-81 667 LINE SMOOTH",
"-81 652 OFFCURVE",
"-85 649 OFFCURVE",
"-98 649 CURVE SMOOTH",
"-130 649 LINE SMOOTH"
);
},
{
closed = 1;
nodes = (
"85 649 OFFCURVE",
"81 652 OFFCURVE",
"81 667 CURVE SMOOTH",
"81 830 LINE",
"130 830 LINE SMOOTH",
"142 830 OFFCURVE",
"147 828 OFFCURVE",
"147 813 CURVE SMOOTH",
"147 667 LINE SMOOTH",
"147 652 OFFCURVE",
"142 649 OFFCURVE",
"130 649 CURVE SMOOTH",
"98 649 LINE SMOOTH"
);
}
);
width = 0;
}
);
unicode = 1E015;
},
{
glyphname = u1E016;
lastChange = "2017-04-18 13:24:41 +0000";
layers = (
{
layerId = UUID0;
paths = (
{
closed = 1;
nodes = (
"121 605 LINE SMOOTH",
"154 605 OFFCURVE",
"160 618 OFFCURVE",
"160 651 CURVE SMOOTH",
"160 828 LINE SMOOTH",
"160 861 OFFCURVE",
"154 874 OFFCURVE",
"121 874 CURVE SMOOTH",
"-107 874 LINE SMOOTH",
"-149 874 OFFCURVE",
"-160 844 OFFCURVE",
"-160 820 CURVE SMOOTH",
"-160 784 OFFCURVE",
"-136 760 OFFCURVE",
"-98 744 CURVE",
"-136 726 OFFCURVE",
"-160 695 OFFCURVE",
"-160 659 CURVE SMOOTH",
"-160 635 OFFCURVE",
"-155 605 OFFCURVE",
"-104 605 CURVE SMOOTH"
);
},
{
closed = 1;
nodes = (
"-103 649 OFFCURVE",
"-104 659 OFFCURVE",
"-104 670 CURVE SMOOTH",
"-104 695 OFFCURVE",
"-81 720 OFFCURVE",
"-23 725 CURVE",
"-23 664 LINE SMOOTH",
"-23 655 OFFCURVE",
"-25 649 OFFCURVE",
"-34 649 CURVE SMOOTH",
"-89 649 LINE SMOOTH"
);
},
{
closed = 1;
nodes = (
"-83 767 OFFCURVE",
"-104 790 OFFCURVE",
"-104 810 CURVE SMOOTH",
"-104 821 OFFCURVE",
"-104 830 OFFCURVE",
"-83 830 CURVE SMOOTH",
"-36 830 LINE SMOOTH",
"-24 830 OFFCURVE",
"-23 825 OFFCURVE",
"-23 816 CURVE SMOOTH",
"-23 765 LINE"
);
},
{
closed = 1;
nodes = (
"33 721 LINE",
"104 721 LINE",
"104 667 LINE SMOOTH",
"104 651 OFFCURVE",
"99 649 OFFCURVE",
"87 649 CURVE SMOOTH",
"33 649 LINE"
);
},
{
closed = 1;
nodes = (
"33 830 LINE",
"87 830 LINE SMOOTH",
"99 830 OFFCURVE",
"104 828 OFFCURVE",
"104 813 CURVE SMOOTH",
"104 764 LINE",
"33 764 LINE"
);
}
);
width = 0;
}
);
unicode = 1E016;
},
{
glyphname = u1E017;
lastChange = "2017-04-18 13:24:41 +0000";
layers = (
{
layerId = UUID0;
paths = (
{
closed = 1;
nodes = (
"28 524 LINE",
"28 602 LINE",
"118 609 OFFCURVE",
"170 659 OFFCURVE",
"170 740 CURVE SMOOTH",
"170 821 OFFCURVE",
"115 872 OFFCURVE",
"28 880 CURVE",
"28 951 LINE",
"-26 951 LINE",
"-26 880 LINE",
"-119 872 OFFCURVE",
"-170 821 OFFCURVE",
"-170 740 CURVE SMOOTH",
"-170 659 OFFCURVE",
"-114 609 OFFCURVE",
"-28 602 CURVE",
"-28 524 LINE"
);
},
{
closed = 1;
nodes = (
"-85 652 OFFCURVE",
"-111 682 OFFCURVE",
"-111 740 CURVE SMOOTH",
"-111 799 OFFCURVE",
"-86 830 OFFCURVE",
"-26 834 CURVE",
"-26 646 LINE"
);
},
{
closed = 1;
nodes = (
"28 834 LINE",
"85 829 OFFCURVE",
"112 798 OFFCURVE",
"112 740 CURVE SMOOTH",
"112 683 OFFCURVE",
"86 653 OFFCURVE",
"28 646 CURVE"
);
}
);
width = 0;
}
);
unicode = 1E017;
},
{
glyphname = u1E018;
lastChange = "2017-04-18 13:24:41 +0000";
layers = (
{
layerId = UUID0;
paths = (
{
closed = 1;
nodes = (
"-104 605 LINE",
"-64 697 LINE",
"-12 697 LINE",
"-12 651 LINE SMOOTH",
"-12 618 OFFCURVE",
"-8 605 OFFCURVE",
"26 605 CURVE SMOOTH",
"163 605 LINE",
"163 719 LINE SMOOTH",
"163 752 OFFCURVE",
"158 765 OFFCURVE",
"125 765 CURVE SMOOTH",
"26 765 LINE SMOOTH",
"2 765 OFFCURVE",
"-8 756 OFFCURVE",
"-11 741 CURVE",
"-44 741 LINE",
"13 874 LINE",
"-163 874 LINE",
"-163 830 LINE",
"-61 830 LINE",
"-155 605 LINE"
);
},
{
closed = 1;
nodes = (
"48 649 OFFCURVE",
"43 651 OFFCURVE",
"43 667 CURVE SMOOTH",
"43 703 LINE SMOOTH",
"43 718 OFFCURVE",
"48 721 OFFCURVE",
"60 721 CURVE SMOOTH",
"90 721 LINE SMOOTH",
"103 721 OFFCURVE",
"107 718 OFFCURVE",
"107 703 CURVE SMOOTH",
"107 649 LINE",
"60 649 LINE SMOOTH"
);
}
);
width = 0;
}
);
unicode = 1E018;
},
{
glyphname = u1E01B;
lastChange = "2017-04-18 13:24:41 +0000";
layers = (
{
layerId = UUID0;
paths = (
{
closed = 1;
nodes = (
"88 605 LINE",
"88 675 LINE SMOOTH",
"88 690 OFFCURVE",
"85 709 OFFCURVE",
"78 725 CURVE",
"119 725 LINE SMOOTH",
"156 725 OFFCURVE",
"158 740 OFFCURVE",
"158 770 CURVE SMOOTH",
"158 874 LINE",
"102 874 LINE",
"102 786 LINE SMOOTH",
"102 773 OFFCURVE",
"100 769 OFFCURVE",
"85 769 CURVE SMOOTH",
"28 769 LINE",
"28 874 LINE",
"-28 874 LINE",
"-28 769 LINE",
"-85 769 LINE SMOOTH",
"-100 769 OFFCURVE",
"-102 773 OFFCURVE",
"-102 786 CURVE SMOOTH",
"-102 874 LINE",
"-158 874 LINE",
"-158 770 LINE SMOOTH",
"-158 740 OFFCURVE",
"-156 725 OFFCURVE",
"-119 725 CURVE SMOOTH",
"-80 725 LINE",
"-86 709 OFFCURVE",
"-88 690 OFFCURVE",
"-88 675 CURVE SMOOTH",
"-88 605 LINE"
);
},
{
closed = 1;
nodes = (
"-33 670 LINE SMOOTH",
"-33 700 OFFCURVE",
"-33 721 OFFCURVE",
"0 721 CURVE SMOOTH",
"29 721 OFFCURVE",
"33 703 OFFCURVE",
"33 670 CURVE SMOOTH",
"33 649 LINE",
"-33 649 LINE"
);
}
);
width = 0;
}
);
unicode = 1E01B;
},
{
glyphname = u1E01C;
lastChange = "2017-04-18 13:24:41 +0000";
layers = (
{
layerId = UUID0;
paths = (
{
closed = 1;
nodes = (
"75 605 LINE SMOOTH",
"110 605 OFFCURVE",
"112 613 OFFCURVE",
"117 642 CURVE SMOOTH",
"158 874 LINE",
"104 874 LINE",
"67 664 LINE SMOOTH",
"65 652 OFFCURVE",
"63 649 OFFCURVE",
"56 649 CURVE SMOOTH",
"48 649 OFFCURVE",
"47 651 OFFCURVE",
"45 664 CURVE SMOOTH",
"15 836 LINE SMOOTH",
"9 868 OFFCURVE",
"4 874 OFFCURVE",
"-38 874 CURVE SMOOTH",
"-103 874 LINE SMOOTH",
"-153 874 OFFCURVE",
"-158 844 OFFCURVE",
"-158 820 CURVE SMOOTH",
"-158 764 OFFCURVE",
"-103 726 OFFCURVE",
"-21 723 CURVE",
"-7 642 LINE SMOOTH",
"-2 613 OFFCURVE",
"0 605 OFFCURVE",
"34 605 CURVE SMOOTH"
);
},
{
closed = 1;
nodes = (
"-79 771 OFFCURVE",
"-103 787 OFFCURVE",
"-103 814 CURVE SMOOTH",
"-103 826 OFFCURVE",
"-101 830 OFFCURVE",
"-88 830 CURVE SMOOTH",
"-51 830 LINE SMOOTH",
"-42 830 OFFCURVE",
"-40 829 OFFCURVE",
"-38 820 CURVE SMOOTH",
"-28 766 LINE"
);
}
);
width = 0;
}
);
unicode = 1E01C;
},
{
glyphname = u1E01D;
lastChange = "2017-04-18 13:24:41 +0000";
layers = (
{
layerId = UUID0;
paths = (
{
closed = 1;
nodes = (
"88 605 LINE",
"88 680 LINE SMOOTH",
"88 697 OFFCURVE",
"88 709 OFFCURVE",
"81 723 CURVE",
"172 723 LINE",
"110 874 LINE",
"61 874 LINE",
"74 841 LINE",
"-74 841 LINE",
"-61 874 LINE",
"-110 874 LINE",
"-172 723 LINE",
"-81 723 LINE",
"-87 708 OFFCURVE",
"-88 697 OFFCURVE",
"-88 680 CURVE SMOOTH",
"-88 605 LINE"
);
},
{
closed = 1;
nodes = (
"-33 670 LINE SMOOTH",
"-33 700 OFFCURVE",
"-33 721 OFFCURVE",
"0 721 CURVE SMOOTH",
"29 721 OFFCURVE",
"33 703 OFFCURVE",
"33 670 CURVE SMOOTH",
"33 649 LINE",
"-33 649 LINE"
);
},
{
closed = 1;
nodes = (
"-90 800 LINE",
"-25 800 LINE",
"-25 765 LINE",
"-104 765 LINE"
);
},
{
closed = 1;
nodes = (
"25 800 LINE",
"91 800 LINE",
"104 765 LINE",
"25 765 LINE"
);
}
);
width = 0;
}
);
unicode = 1E01D;
},
{
glyphname = u1E01E;
lastChange = "2017-04-18 13:24:41 +0000";
layers = (
{
layerId = UUID0;
paths = (
{
closed = 1;
nodes = (
"119 605 LINE SMOOTH",
"156 605 OFFCURVE",
"158 621 OFFCURVE",
"158 651 CURVE SMOOTH",
"158 874 LINE",
"102 874 LINE",
"102 667 LINE SMOOTH",
"102 654 OFFCURVE",
"100 649 OFFCURVE",
"85 649 CURVE SMOOTH",
"28 649 LINE",
"28 874 LINE",
"-28 874 LINE",
"-28 649 LINE",
"-85 649 LINE SMOOTH",
"-100 649 OFFCURVE",
"-102 654 OFFCURVE",
"-102 667 CURVE SMOOTH",
"-102 874 LINE",
"-158 874 LINE",
"-158 651 LINE SMOOTH",
"-158 621 OFFCURVE",
"-156 605 OFFCURVE",
"-119 605 CURVE SMOOTH"
);
}
);
width = 0;
}
);
unicode = 1E01E;
},
{
glyphname = u1E01F;
lastChange = "2017-04-18 13:24:41 +0000";
layers = (
{
layerId = UUID0;
paths = (
{
closed = 1;
nodes = (
"146 605 LINE",
"146 694 LINE SMOOTH",
"146 710 OFFCURVE",
"137 728 OFFCURVE",
"125 740 CURVE",
"137 751 OFFCURVE",
"146 769 OFFCURVE",
"146 785 CURVE SMOOTH",
"146 874 LINE",
"-31 874 LINE",
"-31 785 LINE SMOOTH",
"-31 778 OFFCURVE",
"-29 771 OFFCURVE",
"-27 765 CURVE",
"-95 765 LINE SMOOTH",
"-123 765 OFFCURVE",
"-146 744 OFFCURVE",
"-146 719 CURVE SMOOTH",
"-146 687 OFFCURVE",
"-123 670 OFFCURVE",
"-95 670 CURVE SMOOTH",
"-67 670 OFFCURVE",
"-44 691 OFFCURVE",
"-44 716 CURVE SMOOTH",
"-44 721 OFFCURVE",
"-44 724 OFFCURVE",
"-45 727 CURVE",
"-21 727 LINE",
"-26 717 OFFCURVE",
"-31 705 OFFCURVE",
"-31 695 CURVE SMOOTH",
"-31 605 LINE"
);
},
{
closed = 1;
nodes = (
"-104 701 OFFCURVE",
"-111 709 OFFCURVE",
"-111 718 CURVE SMOOTH",
"-111 727 OFFCURVE",
"-104 734 OFFCURVE",
"-96 734 CURVE SMOOTH",
"-85 734 OFFCURVE",
"-79 727 OFFCURVE",
"-79 718 CURVE SMOOTH",
"-79 709 OFFCURVE",
"-86 701 OFFCURVE",
"-95 701 CURVE SMOOTH"
);
},
{
closed = 1;
nodes = (
"24 670 LINE SMOOTH",
"24 700 OFFCURVE",
"24 721 OFFCURVE",
"58 721 CURVE SMOOTH",
"86 721 OFFCURVE",
"90 703 OFFCURVE",
"90 670 CURVE SMOOTH",
"90 649 LINE",
"24 649 LINE"
);
},
{
closed = 1;
nodes = (
"24 758 OFFCURVE",
"24 780 OFFCURVE",
"24 810 CURVE SMOOTH",
"24 830 LINE",
"90 830 LINE",
"90 809 LINE SMOOTH",
"90 777 OFFCURVE",
"86 758 OFFCURVE",
"58 758 CURVE SMOOTH"
);
}
);
width = 0;
}
);
unicode = 1E01F;
},
{
glyphname = u1E020;
lastChange = "2017-04-18 13:24:41 +0000";
layers = (
{
layerId = UUID0;
paths = (
{
closed = 1;
nodes = (
"140 605 LINE",
"140 694 LINE SMOOTH",
"140 710 OFFCURVE",
"132 728 OFFCURVE",
"120 740 CURVE",
"132 751 OFFCURVE",
"140 769 OFFCURVE",
"140 785 CURVE SMOOTH",
"140 874 LINE",
"-37 874 LINE",
"-37 785 LINE SMOOTH",
"-37 778 OFFCURVE",
"-35 771 OFFCURVE",
"-32 765 CURVE",
"-95 765 LINE SMOOTH",
"-120 765 OFFCURVE",
"-140 745 OFFCURVE",
"-140 722 CURVE SMOOTH",
"-140 692 OFFCURVE",
"-120 677 OFFCURVE",
"-95 677 CURVE SMOOTH",
"-70 677 OFFCURVE",
"-50 696 OFFCURVE",
"-50 720 CURVE SMOOTH",
"-50 721 OFFCURVE",
"-50 724 OFFCURVE",
"-51 727 CURVE",
"-26 727 LINE",
"-32 717 OFFCURVE",
"-37 705 OFFCURVE",
"-37 695 CURVE SMOOTH",
"-37 605 LINE"
);
},
{
closed = 1;
nodes = (
"19 670 LINE SMOOTH",
"19 700 OFFCURVE",
"19 721 OFFCURVE",
"52 721 CURVE SMOOTH",
"81 721 OFFCURVE",
"84 703 OFFCURVE",
"84 670 CURVE SMOOTH",
"84 649 LINE",
"19 649 LINE"
);
},
{
closed = 1;
nodes = (
"19 758 OFFCURVE",
"19 780 OFFCURVE",
"19 810 CURVE SMOOTH",
"19 830 LINE",
"84 830 LINE",
"84 809 LINE SMOOTH",
"84 777 OFFCURVE",
"81 758 OFFCURVE",
"52 758 CURVE SMOOTH"
);
}
);
width = 0;
}
);
unicode = 1E020;
},
{
glyphname = u1E021;
lastChange = "2017-04-18 13:24:41 +0000";
layers = (
{
layerId = UUID0;
paths = (
{
closed = 1;
nodes = (
"180 605 LINE",
"54 851 LINE SMOOTH",
"47 865 OFFCURVE",
"40 874 OFFCURVE",
"24 874 CURVE SMOOTH",
"-23 874 LINE SMOOTH",
"-39 874 OFFCURVE",
"-46 865 OFFCURVE",
"-53 851 CURVE SMOOTH",
"-179 605 LINE"
);
},
{
closed = 1;
nodes = (
"-68 714 LINE",
"-24 714 LINE",
"-24 649 LINE",
"-102 649 LINE"
);
},
{
closed = 1;
nodes = (
"26 714 LINE",
"69 714 LINE",
"103 649 LINE",
"26 649 LINE"
);
},
{
closed = 1;
nodes = (
"-14 823 LINE SMOOTH",
"-11 829 OFFCURVE",
"-8 835 OFFCURVE",
"-5 835 CURVE SMOOTH",
"7 835 LINE SMOOTH",
"9 835 OFFCURVE",
"13 829 OFFCURVE",
"16 823 CURVE SMOOTH",
"49 756 LINE",
"-48 756 LINE"
);
}
);
width = 0;
}
);
unicode = 1E021;
},
{
glyphname = u1E023;
lastChange = "2017-04-18 13:24:41 +0000";
layers = (
{
layerId = UUID0;
paths = (
{
closed = 1;
nodes = (
"137 655 LINE SMOOTH",
"157 661 OFFCURVE",
"158 682 OFFCURVE",
"158 711 CURVE SMOOTH",
"158 828 LINE SMOOTH",
"158 859 OFFCURVE",
"156 874 OFFCURVE",
"119 874 CURVE SMOOTH",
"-119 874 LINE SMOOTH",
"-156 874 OFFCURVE",
"-158 859 OFFCURVE",
"-158 828 CURVE SMOOTH",
"-158 571 LINE"
);
},
{
closed = 1;
nodes = (
"-102 813 LINE SMOOTH",
"-102 826 OFFCURVE",
"-100 830 OFFCURVE",
"-85 830 CURVE SMOOTH",
"-28 830 LINE",
"-28 653 LINE",
"-102 632 LINE"
);
},
{
closed = 1;
nodes = (
"28 830 LINE",
"85 830 LINE SMOOTH",
"100 830 OFFCURVE",
"103 826 OFFCURVE",
"103 813 CURVE SMOOTH",
"103 709 LINE SMOOTH",
"103 698 OFFCURVE",
"100 691 OFFCURVE",
"89 688 CURVE SMOOTH",
"28 669 LINE"
);
}
);
width = 0;
}
);
unicode = 1E023;
},
{
glyphname = u1E024;
lastChange = "2017-04-18 13:24:41 +0000";
layers = (
{
layerId = UUID0;
paths = (
{
closed = 1;
nodes = (
"93 601 OFFCURVE",
"115 606 OFFCURVE",
"137 615 CURVE",
"137 662 LINE",
"114 654 OFFCURVE",
"90 646 OFFCURVE",
"58 646 CURVE SMOOTH",
"2 646 OFFCURVE",
"-25 674 OFFCURVE",
"-32 723 CURVE",
"107 723 LINE",
"107 765 LINE",
"-31 765 LINE",
"-25 814 OFFCURVE",
"6 832 OFFCURVE",
"51 832 CURVE SMOOTH",
"71 832 OFFCURVE",
"99 826 OFFCURVE",
"119 819 CURVE",
"134 863 LINE",
"113 872 OFFCURVE",
"81 879 OFFCURVE",
"51 879 CURVE SMOOTH",
"-24 879 OFFCURVE",
"-79 846 OFFCURVE",
"-89 765 CURVE",
"-137 765 LINE",
"-137 723 LINE",
"-90 723 LINE",
"-83 638 OFFCURVE",
"-23 601 OFFCURVE",
"59 601 CURVE SMOOTH"
);
}
);
width = 0;
}
);
unicode = 1E024;
},
{
glyphname = u1E026;
lastChange = "2017-04-18 13:24:41 +0000";
layers = (
{
layerId = UUID0;
paths = (
{
closed = 1;
nodes = (
"87 605 LINE",
"87 694 LINE SMOOTH",
"87 704 OFFCURVE",
"84 713 OFFCURVE",
"80 723 CURVE",
"179 723 LINE",
"97 874 LINE",
"-102 874 LINE",
"-103 874 OFFCURVE",
"-104 870 OFFCURVE",
"-179 723 CURVE",
"-82 723 LINE",
"-86 714 OFFCURVE",
"-90 704 OFFCURVE",
"-90 695 CURVE SMOOTH",
"-90 605 LINE"
);
},
{
closed = 1;
nodes = (
"-34 670 LINE SMOOTH",
"-34 700 OFFCURVE",
"-34 721 OFFCURVE",
"-1 721 CURVE SMOOTH",
"28 721 OFFCURVE",
"31 703 OFFCURVE",
"31 670 CURVE SMOOTH",
"31 649 LINE",
"-34 649 LINE"
);
},
{
closed = 1;
nodes = (
"-71 832 LINE",
"-26 832 LINE",
"-26 765 LINE",
"-106 765 LINE"
);
},
{
closed = 1;
nodes = (
"24 832 LINE",
"66 832 LINE",
"101 765 LINE",
"24 765 LINE"
);
}
);
width = 0;
}
);
unicode = 1E026;
},
{
glyphname = u1E027;
lastChange = "2017-04-18 13:24:41 +0000";
layers = (
{
layerId = UUID0;
paths = (
{
closed = 1;
nodes = (
"-76 601 OFFCURVE",
"-25 638 OFFCURVE",
"-20 723 CURVE",
"21 723 LINE",
"26 638 OFFCURVE",
"77 601 OFFCURVE",
"145 601 CURVE SMOOTH",
"168 601 OFFCURVE",
"182 603 OFFCURVE",
"196 605 CURVE",
"196 652 LINE",
"181 649 OFFCURVE",
"169 646 OFFCURVE",
"146 646 CURVE SMOOTH",
"103 646 OFFCURVE",
"85 674 OFFCURVE",
"79 723 CURVE",
"174 723 LINE",
"174 765 LINE",
"80 765 LINE",
"85 814 OFFCURVE",
"106 832 OFFCURVE",
"139 832 CURVE SMOOTH",
"157 832 OFFCURVE",
"173 829 OFFCURVE",
"187 826 CURVE",
"198 872 LINE",
"180 875 OFFCURVE",
"165 879 OFFCURVE",
"141 879 CURVE SMOOTH",
"75 879 OFFCURVE",
"29 846 OFFCURVE",
"21 765 CURVE",
"-21 765 LINE",
"-29 846 OFFCURVE",
"-75 879 OFFCURVE",
"-140 879 CURVE SMOOTH",
"-164 879 OFFCURVE",
"-180 875 OFFCURVE",
"-197 872 CURVE",
"-187 826 LINE",
"-172 829 OFFCURVE",
"-156 832 OFFCURVE",
"-139 832 CURVE SMOOTH",
"-106 832 OFFCURVE",
"-85 814 OFFCURVE",
"-79 765 CURVE",
"-173 765 LINE",
"-173 723 LINE",
"-78 723 LINE",
"-85 674 OFFCURVE",
"-103 646 OFFCURVE",
"-146 646 CURVE SMOOTH",
"-169 646 OFFCURVE",
"-180 649 OFFCURVE",
"-195 652 CURVE",
"-195 605 LINE",
"-181 603 OFFCURVE",
"-167 601 OFFCURVE",
"-144 601 CURVE SMOOTH"
);
}
);
width = 0;
}
);
unicode = 1E027;
},
{
glyphname = u1E028;
lastChange = "2017-04-18 13:24:41 +0000";
layers = (
{
layerId = UUID0;
paths = (
{
closed = 1;
nodes = (
"176 601 OFFCURVE",
"189 603 OFFCURVE",
"204 605 CURVE",
"204 652 LINE",
"188 649 OFFCURVE",
"177 646 OFFCURVE",
"154 646 CURVE SMOOTH",
"111 646 OFFCURVE",
"93 674 OFFCURVE",
"86 723 CURVE",
"182 723 LINE",
"182 765 LINE",
"87 765 LINE",
"93 814 OFFCURVE",
"114 832 OFFCURVE",
"147 832 CURVE SMOOTH",
"165 832 OFFCURVE",
"181 829 OFFCURVE",
"195 826 CURVE",
"206 872 LINE",
"188 875 OFFCURVE",
"172 879 OFFCURVE",
"148 879 CURVE SMOOTH",
"83 879 OFFCURVE",
"37 846 OFFCURVE",
"29 765 CURVE",
"-13 765 LINE",
"-13 836 LINE SMOOTH",
"-13 866 OFFCURVE",
"-15 874 OFFCURVE",
"-58 874 CURVE SMOOTH",
"-153 874 LINE SMOOTH",
"-195 874 OFFCURVE",
"-205 844 OFFCURVE",
"-205 820 CURVE SMOOTH",
"-205 784 OFFCURVE",
"-182 760 OFFCURVE",
"-143 744 CURVE",
"-181 726 OFFCURVE",
"-205 695 OFFCURVE",
"-205 659 CURVE SMOOTH",
"-205 635 OFFCURVE",
"-201 605 OFFCURVE",
"-150 605 CURVE SMOOTH",
"-63 605 LINE SMOOTH",
"-21 605 OFFCURVE",
"-13 611 OFFCURVE",
"-13 643 CURVE SMOOTH",
"-13 723 LINE",
"28 723 LINE",
"34 638 OFFCURVE",
"84 601 OFFCURVE",
"152 601 CURVE SMOOTH"
);
},
{
closed = 1;
nodes = (
"-148 649 OFFCURVE",
"-149 659 OFFCURVE",
"-149 670 CURVE SMOOTH",
"-149 695 OFFCURVE",
"-126 720 OFFCURVE",
"-68 725 CURVE",
"-68 664 LINE SMOOTH",
"-68 655 OFFCURVE",
"-70 649 OFFCURVE",
"-80 649 CURVE SMOOTH",
"-135 649 LINE SMOOTH"
);
},
{
closed = 1;
nodes = (
"-128 767 OFFCURVE",
"-149 790 OFFCURVE",
"-149 810 CURVE SMOOTH",
"-149 821 OFFCURVE",
"-149 830 OFFCURVE",
"-129 830 CURVE SMOOTH",
"-82 830 LINE SMOOTH",
"-70 830 OFFCURVE",
"-68 825 OFFCURVE",
"-68 816 CURVE SMOOTH",
"-68 765 LINE"
);
}
);
width = 0;
}
);
unicode = 1E028;
},
{
glyphname = u1E029;
lastChange = "2017-04-18 13:24:41 +0000";
layers = (
{
layerId = UUID0;
paths = (
{
closed = 1;
nodes = (
"236 601 OFFCURVE",
"250 603 OFFCURVE",
"264 605 CURVE",
"264 652 LINE",
"249 649 OFFCURVE",
"237 646 OFFCURVE",
"214 646 CURVE SMOOTH",
"171 646 OFFCURVE",
"153 674 OFFCURVE",
"146 723 CURVE",
"242 723 LINE",
"242 765 LINE",
"147 765 LINE",
"153 814 OFFCURVE",
"174 832 OFFCURVE",
"207 832 CURVE SMOOTH",
"225 832 OFFCURVE",
"241 829 OFFCURVE",
"255 826 CURVE",
"266 872 LINE",
"248 875 OFFCURVE",
"232 879 OFFCURVE",
"208 879 CURVE SMOOTH",
"143 879 OFFCURVE",
"97 846 OFFCURVE",
"89 765 CURVE",
"70 765 LINE",
"11 874 LINE",
"-188 874 LINE",
"-265 723 LINE",
"-167 723 LINE",
"-172 713 OFFCURVE",
"-176 704 OFFCURVE",
"-176 694 CURVE SMOOTH",
"-176 605 LINE",
"1 605 LINE",
"1 694 LINE SMOOTH",
"1 703 OFFCURVE",
"-2 713 OFFCURVE",
"-7 723 CURVE",
"88 723 LINE",
"94 638 OFFCURVE",
"145 601 OFFCURVE",
"212 601 CURVE SMOOTH"
);
},
{
closed = 1;
nodes = (
"-120 670 LINE SMOOTH",
"-120 700 OFFCURVE",
"-120 721 OFFCURVE",
"-87 721 CURVE SMOOTH",
"-58 721 OFFCURVE",
"-55 703 OFFCURVE",
"-55 670 CURVE SMOOTH",
"-55 649 LINE",
"-120 649 LINE"
);
},
{
closed = 1;
nodes = (
"-157 832 LINE",
"-112 832 LINE",
"-112 765 LINE",
"-192 765 LINE"
);
},
{
closed = 1;
nodes = (
"-62 832 LINE",
"-20 832 LINE",
"15 765 LINE",
"-62 765 LINE"
);
}
);
width = 0;
}
);
unicode = 1E029;
},
{
glyphname = u1E02A;
lastChange = "2017-04-18 13:24:41 +0000";
layers = (
{
layerId = UUID0;
paths = (
{
closed = 1;
nodes = (
"73 601 OFFCURVE",
"121 643 OFFCURVE",
"126 723 CURVE",
"134 723 LINE SMOOTH",
"146 723 OFFCURVE",
"148 721 OFFCURVE",
"148 710 CURVE SMOOTH",
"148 701 LINE",
"196 701 LINE",
"196 735 LINE SMOOTH",
"196 761 OFFCURVE",
"187 767 OFFCURVE",
"157 767 CURVE SMOOTH",
"125 767 LINE",
"117 841 OFFCURVE",
"69 879 OFFCURVE",
"0 879 CURVE SMOOTH",
"-73 879 OFFCURVE",
"-119 841 OFFCURVE",
"-126 767 CURVE",
"-156 767 LINE SMOOTH",
"-187 767 OFFCURVE",
"-196 761 OFFCURVE",
"-196 735 CURVE SMOOTH",
"-196 701 LINE",
"-149 701 LINE",
"-149 710 LINE SMOOTH",
"-149 721 OFFCURVE",
"-146 723 OFFCURVE",
"-134 723 CURVE SMOOTH",
"-126 723 LINE",
"-121 643 OFFCURVE",
"-70 601 OFFCURVE",
"-1 601 CURVE SMOOTH"
);
},
{
closed = 1;
nodes = (
"-44 645 OFFCURVE",
"-65 669 OFFCURVE",
"-68 723 CURVE",
"68 723 LINE",
"65 669 OFFCURVE",
"43 645 OFFCURVE",
"0 645 CURVE SMOOTH"
);
},
{
closed = 1;
nodes = (
"-62 814 OFFCURVE",
"-42 833 OFFCURVE",
"0 833 CURVE SMOOTH",
"40 833 OFFCURVE",
"62 814 OFFCURVE",
"67 767 CURVE",
"-67 767 LINE"
);
}
